<?xml version="1.0" standalone="no"?>
<!DOCTYPE svg PUBLIC "-//W3C//DTD SVG 20010904//EN"
 "http://www.w3.org/TR/2001/REC-SVG-20010904/DTD/svg10.dtd">
<svg version="1.0" xmlns="http://www.w3.org/2000/svg"
 width="260.000000pt" height="260.000000pt" viewBox="0 0 260.000000 260.000000"
 preserveAspectRatio="xMidYMid meet">
<metadata>
Created by potrace 1.14, written by Peter Selinger 2001-2017
</metadata>
<g transform="translate(0.000000,260.000000) scale(0.100000,-0.100000)"
fill="#000000" stroke="none">
<path d="M390 2220 l-385 -380 826 0 c513 0 846 -4 879 -10 81 -15 154 -53
216 -112 176 -167 176 -449 0 -616 -62 -59 -135 -97 -216 -112 -29 -5 -154
-10 -277 -10 l-224 0 3 220 3 220 -270 -2 -270 -3 -5 -215 -5 -215 -333 -3
-332 -2 0 -30 0 -30 330 0 330 0 0 -276 c0 -241 2 -275 15 -270 8 3 48 27 87
54 84 57 151 92 173 92 25 0 113 -48 198 -106 l77 -54 0 280 0 281 268 -3 267
-3 65 -31 c167 -80 262 -241 246 -421 -15 -180 -126 -321 -294 -373 -62 -19
-96 -20 -913 -20 l-849 0 0 -35 0 -35 918 2 917 3 69 34 c144 71 232 190 467
636 220 416 245 486 219 618 -28 147 -123 273 -255 339 l-68 35 54 25 c305
141 371 547 125 775 -68 63 -152 106 -241 122 -39 7 -291 11 -744 11 l-686 0
-385 -380z"/>
</g>
</svg>
