<svg viewBox="0 0 462 432" fill="none" xmlns="http://www.w3.org/2000/svg">
<g clip-path="url(#clip0)">
<path opacity="0.5" fill-rule="evenodd" clip-rule="evenodd" d="M219.748 11.0456C280.117 3.85487 345.626 5.29109 391.939 44.6769C440.992 86.3944 464.344 152.539 461.783 216.882C459.311 279.005 427.977 337.951 378.755 375.93C334.457 410.11 275.642 403.54 219.691 403.677C163.505 403.815 100.647 415.299 59.8056 376.713C18.4143 337.608 17.2119 273.567 21.9059 216.818C26.1661 165.314 48.4198 118.583 84.2386 81.3281C120.9 43.1966 167.222 17.3021 219.748 11.0456Z" fill="#FC8181"/>
<path d="M166.398 111.95H82.156V238.309H166.398V111.95Z" fill="#263238" stroke="#263238" stroke-width="0.951651" stroke-linecap="round" stroke-linejoin="round"/>
<path d="M159.661 122.05H88.9006V228.191H159.661V122.05Z" fill="white" stroke="#263238" stroke-width="0.951651" stroke-linecap="round" stroke-linejoin="round"/>
<path d="M124.697 143.117C129.116 143.117 132.699 139.534 132.699 135.115C132.699 130.696 129.116 127.113 124.697 127.113C120.278 127.113 116.695 130.696 116.695 135.115C116.695 139.534 120.278 143.117 124.697 143.117Z" fill="#FF725E"/>
<path d="M105.746 150.694H141.126" stroke="#263238" stroke-width="0.951651" stroke-miterlimit="10"/>
<path d="M105.746 212.187H141.126" stroke="#263238" stroke-width="0.951651" stroke-miterlimit="10"/>
<path d="M94.7959 170.911H154.607" stroke="#263238" stroke-width="0.951651" stroke-miterlimit="10"/>
<path d="M94.7959 176.807H154.607" stroke="#263238" stroke-width="0.951651" stroke-miterlimit="10"/>
<path d="M94.7959 182.702H154.607" stroke="#263238" stroke-width="0.951651" stroke-miterlimit="10"/>
<path d="M94.7959 188.606H154.607" stroke="#263238" stroke-width="0.951651" stroke-miterlimit="10"/>
<path d="M94.7959 194.501H154.607" stroke="#263238" stroke-width="0.951651" stroke-miterlimit="10"/>
<path d="M58.3187 357.542C58.3187 357.542 58.8675 338.015 58.177 321.249C57.4866 304.484 58.8763 268.458 58.8763 268.458" stroke="#263238" stroke-width="0.988167" stroke-miterlimit="10"/>
<path d="M58.5575 289.613L50.9272 283.621" stroke="#263238" stroke-width="0.988167" stroke-miterlimit="10"/>
<path d="M58.4778 293.747L61.1864 289.348" stroke="#263238" stroke-width="0.988167" stroke-miterlimit="10"/>
<path d="M57.8582 311.114L64.6297 305.511" stroke="#263238" stroke-width="0.988167" stroke-miterlimit="10"/>
<path d="M58.8762 275.822L55.3 272.574" stroke="#263238" stroke-width="0.988167" stroke-miterlimit="10"/>
<path d="M57.7873 314.159L53.3171 309.353" stroke="#263238" stroke-width="0.988167" stroke-miterlimit="10"/>
<path d="M58.1856 333.005L48.8647 324.507" stroke="#263238" stroke-width="0.988167" stroke-miterlimit="10"/>
<path d="M58.4248 343.476C60.7966 342.56 63.1033 341.483 65.3292 340.254" stroke="#263238" stroke-width="0.988167" stroke-miterlimit="10"/>
<path d="M53.2819 292.632C49.5464 289.737 37.0124 290.251 34.5693 296.288C32.1262 302.325 39.7918 312.044 47.1919 311.336C50.0864 311.061 51.3345 310.858 52.5029 309.247L42.1552 299.191L53.3084 308.158C53.6343 307.579 53.8927 306.964 54.0785 306.326C54.2183 305.854 54.3336 305.375 54.4238 304.892C55.1407 301.307 56.7783 295.332 53.2819 292.632Z" fill="#FF725E"/>
<path d="M77.5445 285.666C77.5445 285.727 77.5445 285.798 77.5002 285.869C76.4911 290.348 71.3748 292.889 67.0729 292.508C66.4747 292.453 65.8824 292.346 65.3025 292.189C64.2966 293.791 63.6728 295.603 63.4794 297.485C63.286 299.367 63.5282 301.268 64.1872 303.042C64.3785 303.54 64.625 304.015 64.9219 304.458C66.2231 303.422 79.7574 291.862 79.7574 291.862L65.6743 305.423C69.9054 309.964 79.8814 309.344 83.3778 300.917C86.8742 292.49 82.4395 286.869 77.5445 285.666Z" fill="#FF725E"/>
<path d="M70.6489 270.007C63.3462 268.405 56.8136 271.715 56.9375 279.336C56.9575 281.033 57.3279 282.706 58.0256 284.252C58.7232 285.799 59.7331 287.184 60.9916 288.321L68.4448 277.991L62.1158 289.188C62.7069 289.585 63.3354 289.923 63.9924 290.198C64.9215 290.569 65.8994 290.805 66.8957 290.897C71.1888 291.269 76.314 288.728 77.3231 284.249C78.4561 279.213 77.9516 271.609 70.6489 270.007Z" fill="#FF725E"/>
<path d="M62.1246 243.496C62.1246 243.496 61.3722 243.717 56.6985 246.001C52.0248 248.285 48.3336 255.685 52.0602 262.005C54.1581 265.608 56.5923 266.971 58.3095 267.475L60.1773 249.311L59.4249 267.714C59.7779 267.753 60.1341 267.753 60.4871 267.714C63.5232 267.396 68.3297 263.766 68.7812 256.322C69.2326 248.878 62.1246 243.496 62.1246 243.496Z" fill="#FF725E"/>
<path d="M40.7832 259.995L54.8752 271.264C55.0295 270.751 55.0747 270.211 55.008 269.679C54.3618 263.226 47.9266 259.491 43.6777 258.172C39.4289 256.853 36.4813 259.225 39.2076 265.404C41.934 271.582 49.1127 274.521 52.3082 273.627C53.0748 273.431 53.7597 272.997 54.2644 272.388L40.7832 259.995Z" fill="#FF725E"/>
<path d="M50.4848 274.459C47.4398 274.556 42.5182 272.388 39.6414 268.201C36.6849 268.139 34.233 269.538 33.4451 273.246C32.0112 279.974 36.8708 287.02 43.8814 286.152C46.9441 285.781 48.7144 284.727 49.7235 283.665L37.1806 272.228L50.5998 282.452C50.8606 281.972 51.0259 281.446 51.0867 280.903C51.5274 278.743 51.3179 276.5 50.4848 274.459Z" fill="#FF725E"/>
<path d="M50.4049 311.849C49.2664 312.347 48.0508 312.647 46.8111 312.734C42.2259 313.106 37.5522 309.565 35.2419 305.325C32.427 305.777 30.1787 307.29 29.6387 310.362C28.249 318.231 35.534 328.605 42.9163 326.968C44.8334 326.594 46.6082 325.692 48.0415 324.365L31.9313 308.91L48.9355 323.33C49.9089 322.077 50.5348 320.59 50.7501 319.019C51.547 316.671 51.4236 314.109 50.4049 311.849Z" fill="#FF725E"/>
<path d="M82.7403 327.995C77.3407 321.736 70.9055 327.34 70.9055 327.34C70.9055 327.34 66.9576 328.641 65.4705 334.226C65.0079 335.923 65.0759 337.721 65.6653 339.378L81.9259 329.924L66.0636 340.281C67.5418 343.087 70.7727 344.804 75.1897 343.565C82.3508 341.538 88.1487 334.253 82.7403 327.995Z" fill="#FF725E"/>
<path d="M69.268 351.646H46.7668V384.964H69.268V351.646Z" fill="#263238"/>
<path d="M314.399 58.7333H217.172L215.888 72.0994H314.399V58.7333Z" stroke="#263238" stroke-width="0.94773" stroke-miterlimit="10"/>
<path d="M314.399 72.0995H217.172L215.888 85.4656H314.399V72.0995Z" stroke="#263238" stroke-width="0.94773" stroke-miterlimit="10"/>
<path d="M314.399 85.4656H217.172L215.888 98.8317H314.399V85.4656Z" stroke="#263238" stroke-width="0.94773" stroke-miterlimit="10"/>
<path d="M314.399 98.8318H217.172L215.888 112.198H314.399V98.8318Z" stroke="#263238" stroke-width="0.94773" stroke-miterlimit="10"/>
<path d="M314.399 112.198H217.172L215.888 125.564H314.399V112.198Z" stroke="#263238" stroke-width="0.94773" stroke-miterlimit="10"/>
<path d="M314.399 125.564H217.172L215.888 138.93H314.399V125.564Z" stroke="#263238" stroke-width="0.94773" stroke-miterlimit="10"/>
<path d="M314.399 138.93H217.172L215.888 152.296H314.399V138.93Z" stroke="#263238" stroke-width="0.94773" stroke-miterlimit="10"/>
<path d="M314.399 152.296H217.172L215.888 165.662H314.399V152.296Z" stroke="#263238" stroke-width="0.94773" stroke-miterlimit="10"/>
<path d="M314.399 165.662H217.172L215.888 179.029H314.399V165.662Z" stroke="#263238" stroke-width="0.94773" stroke-miterlimit="10"/>
<path d="M314.399 179.029H217.172L215.888 192.395H314.399V179.029Z" stroke="#263238" stroke-width="0.94773" stroke-miterlimit="10"/>
<path d="M314.399 192.395H217.172L215.888 205.761H314.399V192.395Z" stroke="#263238" stroke-width="0.94773" stroke-miterlimit="10"/>
<path d="M314.399 205.761H217.172L215.888 219.127H314.399V205.761Z" stroke="#263238" stroke-width="0.94773" stroke-miterlimit="10"/>
<path d="M314.399 219.127H217.172L215.888 232.493H314.399V219.127Z" stroke="#263238" stroke-width="0.94773" stroke-miterlimit="10"/>
<path d="M314.399 232.493H217.172L215.888 245.859H314.399V232.493Z" stroke="#263238" stroke-width="0.94773" stroke-miterlimit="10"/>
<path d="M314.399 245.859H217.172L215.888 259.225H314.399V245.859Z" stroke="#263238" stroke-width="0.94773" stroke-miterlimit="10"/>
<path d="M414.344 58.7333H317.117L315.833 72.0994H414.344V58.7333Z" stroke="#263238" stroke-width="0.94773" stroke-miterlimit="10"/>
<path d="M414.344 72.0995H317.117L315.833 85.4656H414.344V72.0995Z" stroke="#263238" stroke-width="0.94773" stroke-miterlimit="10"/>
<path d="M414.344 85.4656H317.117L315.833 98.8317H414.344V85.4656Z" stroke="#263238" stroke-width="0.94773" stroke-miterlimit="10"/>
<path d="M414.344 98.8318H317.117L315.833 112.198H414.344V98.8318Z" stroke="#263238" stroke-width="0.94773" stroke-miterlimit="10"/>
<path d="M414.344 112.198H317.117L315.833 125.564H414.344V112.198Z" stroke="#263238" stroke-width="0.94773" stroke-miterlimit="10"/>
<path d="M414.344 125.564H317.117L315.833 138.93H414.344V125.564Z" stroke="#263238" stroke-width="0.94773" stroke-miterlimit="10"/>
<path d="M414.344 138.93H317.117L315.833 152.296H414.344V138.93Z" stroke="#263238" stroke-width="0.94773" stroke-miterlimit="10"/>
<path d="M414.344 152.296H317.117L315.833 165.662H414.344V152.296Z" stroke="#263238" stroke-width="0.94773" stroke-miterlimit="10"/>
<path d="M414.344 165.662H317.117L315.833 179.029H414.344V165.662Z" stroke="#263238" stroke-width="0.94773" stroke-miterlimit="10"/>
<path d="M414.344 179.029H317.117L315.833 192.395H414.344V179.029Z" stroke="#263238" stroke-width="0.94773" stroke-miterlimit="10"/>
<path d="M414.344 192.395H317.117L315.833 205.761H414.344V192.395Z" stroke="#263238" stroke-width="0.94773" stroke-miterlimit="10"/>
<path d="M414.344 205.761H317.117L315.833 219.127H414.344V205.761Z" stroke="#263238" stroke-width="0.94773" stroke-miterlimit="10"/>
<path d="M414.344 219.127H317.117L315.833 232.493H414.344V219.127Z" stroke="#263238" stroke-width="0.94773" stroke-miterlimit="10"/>
<path d="M414.344 232.493H317.117L315.833 245.859H414.344V232.493Z" stroke="#263238" stroke-width="0.94773" stroke-miterlimit="10"/>
<path d="M414.344 245.859H317.117L315.833 259.225H414.344V245.859Z" stroke="#263238" stroke-width="0.94773" stroke-miterlimit="10"/>
<path d="M419.213 48.3768H213.622V58.459H419.213V48.3768Z" stroke="#263238" stroke-width="0.94773" stroke-miterlimit="10"/>
<path d="M419.213 58.4678V236.052" stroke="#263238" stroke-width="0.94773" stroke-miterlimit="10"/>
<path d="M416.974 58.7511V180.587" stroke="#263238" stroke-width="0.94773" stroke-miterlimit="10"/>
<path d="M420.665 235.653H417.903V240.176H420.665V235.653Z" fill="#263238" stroke="#263238" stroke-width="0.94773" stroke-miterlimit="10"/>
<path d="M418.178 179.622H415.416V184.145H418.178V179.622Z" fill="#263238" stroke="#263238" stroke-width="0.94773" stroke-miterlimit="10"/>
<path d="M381.07 384.973C384.611 373.927 398.898 328.172 398.898 317.621C398.898 305.609 394.64 304.06 386.505 301.687C378.37 299.315 310.938 300.528 302.803 302.466C294.668 304.405 291.172 312.203 289.623 319.134C288.224 325.428 275.159 375.237 272.619 384.929L381.07 384.973Z" fill="white" stroke="#263238" stroke-width="0.988167" stroke-linecap="round" stroke-linejoin="round"/>
<path d="M381.071 384.974C384.611 373.927 398.898 328.172 398.898 317.621C398.898 306.857 395.472 304.493 388.895 302.449L388.825 302.511C388.825 302.511 381.46 301.351 379.132 309.486C377.291 315.93 365.261 364.854 360.322 384.974H381.071Z" fill="#263238" stroke="#263238" stroke-width="0.988167" stroke-linecap="round" stroke-linejoin="round"/>
<path d="M155.147 323.852C155.147 323.852 162.229 330.934 168.018 333.04C173.807 335.147 180.578 332.155 180.578 332.155C180.578 332.155 176.285 319.895 166.477 314.381C156.67 308.866 152.695 317.727 155.147 323.852Z" fill="white" stroke="#263238" stroke-width="0.988167" stroke-linecap="round" stroke-linejoin="round"/>
<path d="M148.101 315.275C148.101 315.275 135.541 330.898 138.294 333.04C141.046 335.182 148.402 322.631 149.323 322.011C150.243 321.391 152.085 315.576 148.101 315.275Z" fill="white" stroke="#263238" stroke-width="0.988167" stroke-linecap="round" stroke-linejoin="round"/>
<path d="M154.227 310.681C154.227 310.681 149.933 308.53 148.101 310.681C146.269 312.832 147.216 319.869 147.481 325.074C147.747 330.279 148.712 338.254 151.775 336.413C154.837 334.572 154.536 319.869 154.536 316.496C154.543 314.554 154.44 312.612 154.227 310.681Z" fill="white" stroke="#263238" stroke-width="0.988167" stroke-linecap="round" stroke-linejoin="round"/>
<path d="M162.503 310.982C162.503 310.982 156.979 308.229 154.536 308.84C152.093 309.45 151.465 324.773 151.465 329.978C151.465 335.182 155.448 338.254 156.679 336.112C157.909 333.97 159.13 318.028 160.051 315.576C160.689 313.955 161.511 312.414 162.503 310.982Z" fill="white" stroke="#263238" stroke-width="0.988167" stroke-linecap="round" stroke-linejoin="round"/>
<path d="M230.865 336.413C230.865 336.413 229.334 333.961 217.083 331.509C204.832 329.057 188.279 324.773 186.438 323.852C184.597 322.932 169.85 312.221 165.566 309.76C161.282 307.299 159.432 310.645 158.484 314.044C157.537 317.443 154.501 333.04 154.802 334.572C155.103 336.103 157.865 338.254 158.785 336.112C159.706 333.97 163.689 321.71 163.999 320.48C164.309 319.249 174.108 330.287 176.56 332.739C179.012 335.191 181.765 336.723 185.137 336.723C186.98 336.739 188.822 336.635 190.652 336.413C190.652 336.413 224.35 358.781 230.485 361.534C236.619 364.287 241.815 360.923 242.426 359.091C243.036 357.259 243.656 346.22 240.283 342.273C236.911 338.325 230.865 336.413 230.865 336.413Z" fill="white" stroke="#263238" stroke-width="0.988167" stroke-linecap="round" stroke-linejoin="round"/>
<path d="M178.126 322.011C173.966 321.288 169.938 319.946 166.176 318.028C160.352 314.965 157.9 319.258 160.352 322.631C162.804 326.003 170.461 326.915 170.461 326.915C170.461 326.915 175.064 334.271 181.499 336.112C183.371 336.631 185.346 336.649 187.228 336.164C189.109 335.679 190.83 334.709 192.218 333.35" fill="white"/>
<path d="M178.126 322.011C173.966 321.288 169.938 319.946 166.176 318.028C160.352 314.965 157.9 319.258 160.352 322.631C162.804 326.003 170.461 326.915 170.461 326.915C170.461 326.915 175.064 334.271 181.499 336.112C183.371 336.631 185.346 336.649 187.228 336.164C189.109 335.679 190.83 334.709 192.218 333.35" stroke="#263238" stroke-width="0.988167" stroke-linecap="round" stroke-linejoin="round"/>
<path d="M241.549 287.702C241.549 287.702 230.21 325.694 233.273 328.756C236.335 331.819 246.754 339.476 248.321 337.608C249.887 335.74 254.446 320.444 254.446 311.566C254.446 302.688 243.691 282.187 241.549 287.702Z" fill="#FF725E" stroke="#263238" stroke-width="0.988167" stroke-linecap="round" stroke-linejoin="round"/>
<path d="M251.959 334.881C251.959 334.881 240.629 325.384 236.911 324.463C233.193 323.542 232.928 323.241 230.175 328.145C227.422 333.049 226.501 335.227 228.953 336.997C231.405 338.767 239.982 350.478 245.497 351.399C251.012 352.319 252.578 343.769 251.959 334.881Z" fill="#FF725E" stroke="#263238" stroke-width="0.988167" stroke-linecap="round" stroke-linejoin="round"/>
<path d="M229.334 384.974H349.204C350.204 381.132 357.25 353.815 359.826 341.007C362.588 327.225 367.492 278.815 367.492 270.848C367.492 262.881 367.182 242.522 362.278 234.556C357.374 226.589 337.157 210.045 324.286 203.575C311.416 197.104 301.272 191.625 294.571 191.014C287.87 190.403 263.316 210.621 255.623 228.395C255.623 228.395 240.575 239.424 239.38 246.47C238.185 253.516 238.159 261.917 241.222 277.85C244.284 293.783 245.532 304.254 245.532 304.254C245.532 304.254 234.193 337.944 232.635 351.735C231.263 364.287 229.617 381.911 229.334 384.974Z" fill="#FF725E" stroke="#263238" stroke-width="0.988167" stroke-linecap="round" stroke-linejoin="round"/>
<path d="M252.003 245.488C252.003 245.488 248.63 249.241 251.25 249.241C253.871 249.241 257.252 244.364 260.253 245.488C263.253 246.612 272.247 252.985 272.247 252.985C272.247 252.985 277.124 256.367 278.62 255.242C280.116 254.118 288.746 243.62 293.624 245.833C298.501 248.046 303.741 254.083 304.494 251.082C305.246 248.081 299.616 233.83 297.368 227.085C295.12 220.34 271.503 216.587 262.846 224.084C254.189 231.582 252.003 245.488 252.003 245.488Z" fill="#263238" stroke="#263238" stroke-width="0.988167" stroke-linecap="round" stroke-linejoin="round"/>
<path d="M276.575 257.623C276.575 257.623 273.407 259.509 273.407 272.379C273.466 280.877 273.977 289.366 274.938 297.81C274.938 297.81 272.185 298.695 272.495 300.563C272.805 302.431 277.089 302.714 277.089 302.714C277.089 302.714 256.562 349.628 255.331 376.246" stroke="#263238" stroke-width="0.988167" stroke-linecap="round" stroke-linejoin="round"/>
<path d="M294.73 295.172C296.049 295.093 297.324 295.049 298.537 295.049" stroke="#263238" stroke-width="0.988167" stroke-linecap="round" stroke-linejoin="round"/>
<path d="M258.394 301.484C258.394 301.484 275.566 297.058 289.995 295.562" stroke="#263238" stroke-width="0.988167" stroke-linecap="round" stroke-linejoin="round"/>
<path d="M266.67 304.856C266.67 304.856 286.277 300.563 300.068 299.953" stroke="#263238" stroke-width="0.988167" stroke-linecap="round" stroke-linejoin="round"/>
<path d="M257.686 225.35C257.686 225.35 254.579 233.724 251.711 239.938C248.843 246.152 244.541 249.497 247.17 249.736C249.799 249.975 258.403 243.045 260.554 240.885C262.705 238.725 267.007 245.904 268.688 248.533C270.37 251.162 275.38 258.093 276.575 257.615C277.77 257.137 290.676 240.407 293.066 238.017C295.456 235.627 301.679 250.206 305.264 253.065C308.849 255.924 307.415 249.958 306.937 246.373C306.459 242.788 304.547 213.621 302.157 200.238C299.767 186.854 291.632 181.348 287.33 180.87C283.028 180.392 275.823 180.87 271.556 186.367C267.29 191.864 257.686 225.35 257.686 225.35Z" fill="#FF725E" stroke="#263238" stroke-width="0.988167" stroke-linecap="round" stroke-linejoin="round"/>
<path d="M260.076 227.032C260.076 227.032 268.927 237.787 271.583 246.391C274.238 254.995 276.602 260.022 277.779 257.146C278.956 254.269 289.286 225.828 289.968 212.444C290.649 199.06 289.729 193.077 288.295 188.775C286.861 184.473 282.32 173.957 282.32 173.957C282.32 173.957 273.716 173.001 271.087 178.976C268.458 184.951 263.191 207.186 260.323 214.383C258.592 218.405 258.503 222.945 260.076 227.032Z" fill="white" stroke="#263238" stroke-width="0.988167" stroke-linecap="round" stroke-linejoin="round"/>
<path d="M280.435 189.182L271.698 182.207L266.511 193.608C264.289 201.574 261.926 210.346 260.315 214.365C258.579 218.396 258.493 222.947 260.076 227.041C263.051 230.733 265.738 234.648 268.113 238.752C277.248 220.774 280.435 189.182 280.435 189.182Z" fill="#263238" stroke="#263238" stroke-width="0.988167" stroke-linecap="round" stroke-linejoin="round"/>
<path d="M205.46 138.196C205.46 138.196 199.928 154.182 203.92 161.21C207.912 168.238 216.215 176.258 220.216 186.721C224.217 197.184 228.51 207.62 227.9 214.993C227.289 222.367 227.28 231.289 232.202 235.591C237.123 239.893 250.64 239.584 260.784 231.9C270.928 224.217 271.583 208.266 271.583 208.266C271.583 208.266 280.143 195.05 280.435 189.182C280.727 183.313 280.745 177.807 280.745 177.807C280.745 177.807 289.658 171.354 289.658 159.679C289.658 148.003 285.047 147.685 285.047 147.685C281.858 143.899 279.721 139.341 278.85 134.469C277.319 126.175 274.858 117.261 267.485 114.8C260.111 112.34 241.664 117.261 229.989 124.024C218.313 130.787 205.46 138.196 205.46 138.196Z" fill="white" stroke="#263238" stroke-width="0.988167" stroke-linecap="round" stroke-linejoin="round"/>
<path d="M218.065 142.498C216.488 141.021 214.517 140.032 212.391 139.651C210.264 139.269 208.072 139.511 206.08 140.347C198.698 143.117 197.777 152.031 197.777 152.031C197.777 152.031 191.935 149.88 191.935 146.499V140.966C191.935 140.966 186.102 145.879 187.633 150.181C188.74 152.892 190.825 155.087 193.475 156.333C193.475 156.333 181.8 155.713 178.109 149.252C174.417 142.79 181.49 136.346 181.49 136.346L177.489 136.071C177.489 136.071 181.8 129.928 187.943 128.388C194.086 126.848 197.166 127.503 197.166 127.503L191.634 125.352C191.634 125.352 197.467 119.819 202.389 118.899C205.007 118.354 207.684 118.145 210.355 118.279C210.355 118.279 229.404 104.116 246.311 102.913C263.218 101.709 277.044 110.295 281.037 119.2C285.029 128.105 285.038 142.869 285.038 145.33V147.782C285.038 147.782 278.841 147.782 277.354 151.473C275.867 155.165 277.965 160.077 275.504 161.308C273.043 162.538 268.75 159.776 266.9 157.006C265.05 154.235 266.599 150.553 264.44 149.039C262.28 147.525 254.605 149.924 250.002 146.888C245.399 143.852 246.621 133.672 249.117 129.99C251.613 126.308 266.024 120.156 265.103 118.005C264.183 115.854 249.737 125.688 247.276 128.76C244.815 131.831 235.902 138.284 229.758 140.435C225.987 141.709 222.045 142.405 218.065 142.498Z" fill="#263238" stroke="#263238" stroke-width="0.988167" stroke-linecap="round" stroke-linejoin="round"/>
<path d="M275.531 161.246C277.992 160.015 275.841 155.103 277.381 151.411C278.921 147.72 285.064 147.72 285.064 147.72V145.268C285.101 138.99 284.529 132.723 283.356 126.556C278.045 126.556 273.061 127.379 269.193 129.326C264.086 131.876 267.919 131.238 271.743 133.159C275.566 135.08 264.723 135.708 257.075 139.532C249.427 143.356 250.056 146.8 250.056 146.8C254.659 149.88 262.342 147.419 264.493 148.951C266.644 150.482 265.113 154.182 266.954 156.917C268.795 159.652 273.079 162.476 275.531 161.246Z" fill="white" stroke="#8C8C8C" stroke-width="0.988167" stroke-linecap="round" stroke-linejoin="round"/>
<path d="M277.717 150.526C277.535 150.454 277.334 150.44 277.144 150.488C276.953 150.536 276.782 150.642 276.655 150.792L263.74 165.84C263.623 165.98 263.548 166.15 263.524 166.331C263.499 166.511 263.527 166.695 263.603 166.861C263.679 167.027 263.8 167.168 263.953 167.268C264.106 167.367 264.284 167.422 264.466 167.424C264.605 167.425 264.741 167.395 264.867 167.337C264.992 167.279 265.103 167.194 265.192 167.088L276.779 153.58C276.828 152.499 277.151 151.448 277.717 150.526Z" fill="#263238"/>
<path d="M262.368 197.148C255.871 195.05 241.832 196.52 238.894 198.618C238.894 198.618 231.095 204.424 227.165 207.177C227.794 209.741 228.041 212.384 227.9 215.02C227.28 222.402 227.28 231.316 232.202 235.618C237.123 239.92 250.64 239.61 260.784 231.927C270.928 224.243 271.583 208.266 271.583 208.266C271.583 208.266 268.874 199.255 262.368 197.148Z" fill="#263238" stroke="#263238" stroke-width="0.988167" stroke-linecap="round" stroke-linejoin="round"/>
<path d="M234.069 207.222C234.069 207.222 236.017 211.568 244.302 211.568C252.587 211.568 255.137 201.371 255.137 201.371C255.137 201.371 248.126 198.184 242.39 199.459C236.654 200.733 234.069 207.222 234.069 207.222Z" fill="white" stroke="#263238" stroke-width="0.988167" stroke-linecap="round" stroke-linejoin="round"/>
<path d="M222.899 172.815C223.492 174.506 223.27 176.125 222.394 176.435C221.518 176.745 220.332 175.612 219.739 173.921C219.145 172.231 219.367 170.602 220.243 170.301C221.119 170 222.27 171.115 222.899 172.815Z" fill="#263238"/>
<path d="M244.249 167.991C244.842 169.681 244.612 171.301 243.744 171.611C242.877 171.921 241.682 170.797 241.089 169.097C240.496 167.398 240.726 165.787 241.602 165.477C242.478 165.167 243.656 166.3 244.249 167.991Z" fill="#263238"/>
<path d="M204.23 178.153L264.422 166.468C264.422 166.468 266.272 177.232 262.891 179.684C259.509 182.136 245.984 183.995 242.302 183.685C238.619 183.375 234.335 174.833 234.335 174.833L230.325 175.718C230.332 177.567 230.435 179.413 230.635 181.251C230.819 182.678 230.923 184.114 230.945 185.553V185.862C228.154 187.619 225.017 188.751 221.748 189.182C215.915 190.138 208.532 192.289 204.23 178.153Z" stroke="#263238" stroke-width="1.97633" stroke-linecap="round" stroke-linejoin="round"/>
<path d="M230.352 175.692L229.944 173.691" stroke="#263238" stroke-width="1.97633" stroke-linecap="round" stroke-linejoin="round"/>
<path d="M234.361 174.833L233.653 172.833" stroke="#263238" stroke-width="1.97633" stroke-linecap="round" stroke-linejoin="round"/>
<path d="M209.258 169C209.103 169.067 208.971 169.178 208.877 169.318L203.425 177.674C203.331 177.818 203.277 177.985 203.27 178.157C203.263 178.328 203.302 178.499 203.384 178.65C203.465 178.802 203.586 178.928 203.733 179.017C203.881 179.105 204.049 179.152 204.221 179.153C204.381 179.153 204.538 179.113 204.679 179.037C204.819 178.962 204.939 178.852 205.027 178.719L210.338 170.549L209.258 169Z" fill="#263238"/>
<path d="M230.909 177.143C230.909 177.143 231.865 191.164 233.458 194.351C235.052 197.538 248.126 194.351 249.082 192.12C250.038 189.89 248.126 187.341 248.126 187.341H244.939" stroke="#263238" stroke-width="0.988167" stroke-linecap="round" stroke-linejoin="round"/>
<path d="M222.544 165.716C221.711 165.177 220.755 164.856 219.766 164.782C218.776 164.708 217.784 164.883 216.879 165.291C213.949 166.76 212.267 169.903 211.426 169.903C210.585 169.903 211.01 164.459 214.365 162.361C217.72 160.263 222.119 162.99 222.96 164.034C223.801 165.079 223.376 166.167 222.544 165.716Z" fill="#263238" stroke="#263238" stroke-width="0.988167" stroke-linecap="round" stroke-linejoin="round"/>
<path d="M246.356 158.466C245.751 157.68 244.958 157.059 244.05 156.662C243.141 156.264 242.147 156.102 241.16 156.191C237.902 156.598 235.282 159.006 234.485 158.723C233.689 158.44 235.902 153.412 239.796 152.58C243.691 151.748 246.878 155.758 247.347 157.006C247.816 158.254 247.011 159.139 246.356 158.466Z" fill="#263238" stroke="#263238" stroke-width="0.988167" stroke-linecap="round" stroke-linejoin="round"/>
<path d="M220.022 179.763C220.022 179.763 225.058 178.294 227.988 174.727" stroke="#263238" stroke-width="0.988167" stroke-linecap="round" stroke-linejoin="round"/>
<path d="M238.894 172.425C238.894 172.425 242.036 174.311 248.533 173.682" stroke="#263238" stroke-width="0.988167" stroke-linecap="round" stroke-linejoin="round"/>
<path d="M233.459 194.351C231.433 196.758 229.18 198.963 226.731 200.937C223.801 203.026 220.447 203.238 220.659 204.708C220.871 206.177 228.413 209.134 234.069 207.222C239.726 205.31 242.036 202.398 242.036 202.398C243.748 203.807 245.731 204.849 247.864 205.458C249.996 206.067 252.23 206.231 254.428 205.938C261.767 204.894 268.901 196.715 269.733 194.829C270.565 192.944 268.06 196.086 261.767 195.033C257.497 194.281 253.272 193.3 249.109 192.094C249.109 192.094 246.887 193.776 241.859 195.033C236.831 196.29 234.317 194.493 233.459 194.351Z" fill="#263238" stroke="#263238" stroke-width="0.988167" stroke-linecap="round" stroke-linejoin="round"/>
<path d="M228.519 149.809C228.519 149.809 234.494 141.683 241.912 145.985" stroke="#263238" stroke-width="0.988167" stroke-linecap="round" stroke-linejoin="round"/>
<path d="M184.836 326.304C184.836 326.304 179.932 326.614 176.568 324.162C173.205 321.71 169.823 323.542 169.487 325.994C169.151 328.446 172.24 333.076 175.913 334.572C179.587 336.068 188.784 335.802 190.961 336.112C193.139 336.422 196.476 341.626 202.902 344.078C209.329 346.53 219.455 345.92 219.455 345.92C219.455 345.92 219.145 335.811 215.773 330.872C212.4 325.932 201.07 320.763 195.856 322.905C192.278 324.326 188.593 325.463 184.836 326.304Z" fill="white" stroke="#263238" stroke-width="0.988167" stroke-linecap="round" stroke-linejoin="round"/>
<path d="M191.032 319.559C191.032 319.559 187.049 319.869 185.208 322.321C183.366 324.773 177.241 338.254 177.241 342.237C177.241 346.221 179.383 350.815 180.914 348.673C182.446 346.531 182.72 339.476 183.951 336.121C185.181 332.766 191.306 322.64 192.227 322.02C193.148 321.4 191.917 319.303 191.032 319.559Z" fill="white" stroke="#263238" stroke-width="0.988167" stroke-linecap="round" stroke-linejoin="round"/>
<path d="M199.884 318.028C199.884 318.028 194.98 315.275 192.537 316.496C190.094 317.718 186.713 331.208 186.403 335.191C186.093 339.175 187.288 353.877 191.006 353.568C194.723 353.258 192.803 344.087 192.803 337.944C192.803 331.801 198.928 322.896 198.928 322.896L199.884 318.028Z" fill="white" stroke="#263238" stroke-width="0.988167" stroke-linecap="round" stroke-linejoin="round"/>
<path d="M319.984 324.773C319.984 324.773 318.754 328.145 299.147 329.978C279.541 331.81 235.725 334.572 234.804 334.572C233.883 334.572 214.587 321.71 209.072 318.028C203.557 314.345 200.22 314.664 197.733 317.143C195.246 319.621 189.766 335.519 190.076 337.971C190.386 340.423 191.607 351.452 193.75 352.373C195.892 353.293 196.511 351.487 196.511 348.389C196.511 345.291 195.892 334.908 195.892 334.908L204.168 327.552C204.168 327.552 215.507 348.079 224.084 349.921C229.037 351.051 234.18 351.051 239.132 349.921C239.132 349.921 282.94 364.969 309.601 365.243C336.263 365.517 354.329 368.306 358.011 358.162C361.694 348.018 333.802 325.41 330.429 324.153C327.057 322.896 319.984 324.773 319.984 324.773Z" fill="white" stroke="#263238" stroke-width="0.988167" stroke-linecap="round" stroke-linejoin="round"/>
<path d="M215.197 328.756C215.197 328.756 208.116 322.932 206.009 323.242C203.903 323.551 197.158 328.145 194.36 329.677C191.563 331.208 186.704 334.572 183.641 338.865C180.578 343.158 183.331 345.3 184.862 343.769C186.394 342.237 191.944 337.334 193.139 336.413C194.334 335.492 203.557 331.208 203.557 331.208L218.26 342.237" fill="white"/>
<path d="M215.197 328.756C215.197 328.756 208.116 322.932 206.009 323.242C203.903 323.551 197.158 328.145 194.36 329.677C191.563 331.208 186.704 334.572 183.641 338.865C180.578 343.158 183.331 345.3 184.862 343.769C186.394 342.237 191.944 337.334 193.139 336.413C194.334 335.492 203.557 331.208 203.557 331.208L218.26 342.237" stroke="#263238" stroke-width="0.988167" stroke-linecap="round" stroke-linejoin="round"/>
<path d="M332.846 243.177C332.846 243.177 321.206 249.436 320.896 261.385C320.586 273.335 323.047 313.469 323.047 313.469C323.047 313.469 319.064 319.595 324.269 323.277C329.473 326.959 359.507 344.725 363.491 338.9C367.474 333.076 372.068 293.863 372.068 265.98C372.068 238.097 366.854 238.893 363.491 233.989C360.127 229.085 353.993 227.554 353.993 227.554" fill="#FF725E"/>
<path d="M332.846 243.177C332.846 243.177 321.206 249.436 320.896 261.385C320.586 273.335 323.047 313.469 323.047 313.469C323.047 313.469 319.064 319.595 324.269 323.277C329.473 326.959 359.507 344.725 363.491 338.9C367.474 333.076 372.068 293.863 372.068 265.98C372.068 238.097 366.854 238.893 363.491 233.989C360.127 229.085 353.993 227.554 353.993 227.554" stroke="#263238" stroke-width="0.988167" stroke-linecap="round" stroke-linejoin="round"/>
<path d="M347.557 316.806C347.557 316.806 327.331 310.061 324.268 310.371C321.206 310.681 320.896 315.275 317.187 319.559C313.478 323.843 313.806 327.614 315.027 328.234C316.249 328.853 331.695 331.836 341.804 342.255C351.912 352.673 351.806 363.986 355.489 363.685C359.171 363.384 359.472 357.861 362.57 348.973C365.668 340.086 369.306 333.35 366.854 326.915C364.402 320.48 347.557 316.806 347.557 316.806Z" fill="#FF725E" stroke="#263238" stroke-width="0.988167" stroke-linecap="round" stroke-linejoin="round"/>
<path d="M316.612 321.4C316.612 321.4 336.829 319.559 349.7 329.677" stroke="#263238" stroke-width="0.988167" stroke-linecap="round" stroke-linejoin="round"/>
<path d="M330.093 318.647C330.093 318.647 348.168 321.4 355.214 329.978" stroke="#263238" stroke-width="0.988167" stroke-linecap="round" stroke-linejoin="round"/>
<path d="M272.167 384.973H281.532C320.737 372.767 376.644 383.203 377.211 383.345C378.283 383.614 379.399 383.662 380.49 383.486C381.581 383.309 382.624 382.912 383.557 382.318C384.489 381.724 385.29 380.947 385.912 380.033C386.533 379.119 386.962 378.087 387.171 377.002C387.38 375.917 387.366 374.8 387.128 373.721C386.891 372.641 386.437 371.621 385.792 370.724C385.147 369.826 384.326 369.069 383.379 368.5C382.431 367.93 381.378 367.56 380.282 367.412C377.724 366.916 317.205 355.55 273.805 370.412C272.347 370.907 271.059 371.807 270.094 373.006C269.128 374.206 268.524 375.656 268.353 377.186C268.181 378.716 268.448 380.264 269.124 381.648C269.799 383.031 270.855 384.194 272.167 385V384.973Z" fill="white" stroke="#263238" stroke-width="0.988167" stroke-linecap="round" stroke-linejoin="round"/>
<path d="M278.762 384.973H288.118C327.322 372.767 383.23 383.203 383.805 383.345C384.878 383.616 385.995 383.665 387.088 383.489C388.18 383.313 389.225 382.916 390.159 382.322C391.092 381.728 391.895 380.95 392.517 380.035C393.139 379.12 393.567 378.087 393.776 377C393.985 375.914 393.97 374.796 393.731 373.715C393.493 372.635 393.036 371.614 392.389 370.717C391.743 369.819 390.919 369.063 389.97 368.494C389.02 367.926 387.965 367.558 386.868 367.412C384.319 366.916 323.791 355.55 280.39 370.412C278.933 370.908 277.646 371.809 276.682 373.009C275.717 374.209 275.114 375.659 274.943 377.189C274.773 378.719 275.041 380.266 275.717 381.65C276.393 383.033 277.449 384.195 278.762 385V384.973Z" fill="#263238" stroke="#263238" stroke-width="0.988167" stroke-linecap="round" stroke-linejoin="round"/>
<path d="M315.718 368.757C315.718 368.757 323.472 366.73 322.959 355.559C322.445 344.388 321.95 336.253 330.04 333.208C338.131 330.163 356.454 327.109 356.958 316.443C357.065 312.933 356.583 309.429 355.533 306.078" stroke="#263238" stroke-width="0.988167" stroke-linecap="round" stroke-linejoin="round"/>
<path d="M330.341 345.725C330.421 338.351 331.74 333.04 337.688 330.677C345.823 327.41 364.102 324.144 364.615 312.708C365.128 301.271 359.021 296.925 363.597 285.489" stroke="#263238" stroke-width="0.988167" stroke-linecap="round" stroke-linejoin="round"/>
<path d="M317.373 368.757C317.373 368.757 331.085 366.579 330.58 354.594C330.527 353.417 330.483 352.275 330.438 351.16" stroke="#263238" stroke-width="0.988167" stroke-linecap="round" stroke-linejoin="round"/>
<path d="M364.783 282.948C366.364 281.232 368.197 279.767 370.218 278.602" stroke="#263238" stroke-width="0.988167" stroke-linecap="round" stroke-linejoin="round"/>
<path d="M311.699 352.939L315.656 356.736C315.563 358.239 315.563 359.747 315.656 361.251C315.842 362.242 317.727 364.791 317.727 364.791C317.727 364.791 318.347 367.137 316.639 367.854C314.93 368.571 312.841 369.562 312.717 368.252C312.593 366.942 312.045 366.225 311.372 364.189C310.699 362.153 310.204 361.127 310.655 360.224L311.115 359.339L307.875 357.179C307.875 357.179 308.902 352.177 311.699 352.939Z" fill="white" stroke="#263238" stroke-width="0.988167" stroke-linecap="round" stroke-linejoin="round"/>
<path d="M307.875 357.179L310.814 359.064C313.195 356.347 315.674 356.701 315.674 356.701L311.699 352.939C308.902 352.177 307.875 357.179 307.875 357.179Z" fill="#8F8F8F" stroke="#263238" stroke-width="0.988167" stroke-linecap="round" stroke-linejoin="round"/>
<path d="M288.924 369.987L291.473 367.119C291.473 367.119 295.297 367.119 296.253 365.845C298.03 363.751 300.194 362.019 302.626 360.746C304.857 359.79 308.044 362.339 309.956 362.658C311.868 362.977 314.381 363.295 314.381 363.295C314.654 363.896 314.796 364.548 314.796 365.207C314.796 365.867 314.654 366.519 314.381 367.119L313.425 369.031L305.22 366.482C305.22 366.482 301.396 366.482 299.484 367.757C297.572 369.031 297.253 371.297 295.058 371.297C292.968 371.11 290.908 370.671 288.924 369.987Z" fill="white" stroke="#263238" stroke-width="0.988167" stroke-linecap="round" stroke-linejoin="round"/>
<path d="M309.955 362.676C308.539 362.437 306.415 360.967 304.494 360.622C305.209 362.044 305.448 363.657 305.175 365.225C305.096 365.668 304.998 366.11 304.892 366.508H305.22L313.514 369.058L314.426 367.102C314.698 366.501 314.84 365.849 314.84 365.19C314.84 364.53 314.698 363.878 314.426 363.278C314.426 363.278 311.867 362.977 309.955 362.676Z" fill="#8F8F8F" stroke="#263238" stroke-width="0.988167" stroke-linecap="round" stroke-linejoin="round"/>
<path d="M310.885 370.386L308.336 367.518C308.336 367.518 304.512 367.518 303.556 366.243C301.779 364.149 299.615 362.418 297.183 361.144C294.943 360.188 291.756 362.738 289.844 363.056C287.932 363.375 285.419 363.694 285.419 363.694C285.146 364.294 285.004 364.946 285.004 365.606C285.004 366.265 285.146 366.917 285.419 367.518L286.375 369.43L294.66 366.88C294.66 366.88 298.493 366.88 300.405 368.155C302.317 369.43 302.635 371.696 304.83 371.696C306.894 371.503 308.926 371.063 310.885 370.386Z" fill="white" stroke="#263238" stroke-width="0.988167" stroke-linecap="round" stroke-linejoin="round"/>
<path d="M289.844 363.056C291.269 362.817 293.385 361.357 295.306 361.003C294.596 362.426 294.357 364.038 294.624 365.606C294.713 366.057 294.81 366.491 294.916 366.889H294.598L286.312 369.438L285.356 367.526C285.083 366.926 284.942 366.274 284.942 365.614C284.942 364.955 285.083 364.303 285.356 363.702C285.356 363.702 287.932 363.375 289.844 363.056Z" fill="#8F8F8F" stroke="#263238" stroke-width="0.988167" stroke-linecap="round" stroke-linejoin="round"/>
<path d="M314.426 367.102L317.612 362.676C319.099 362.554 320.577 362.341 322.038 362.038C322.994 361.72 325.225 359.489 325.225 359.489C325.225 359.489 327.456 358.533 328.412 360.126C329.368 361.72 330.642 363.667 329.368 363.95C328.093 364.234 327.456 364.906 325.544 365.862C323.632 366.818 322.676 367.456 321.72 367.137L320.764 366.818L319.17 370.359C319.17 370.359 314.072 369.987 314.426 367.102Z" fill="white" stroke="#263238" stroke-width="0.988167" stroke-linecap="round" stroke-linejoin="round"/>
<path d="M319.206 370.306L320.648 367.128C317.612 365.154 317.612 362.702 317.612 362.702L314.426 367.128C314.072 369.987 319.206 370.306 319.206 370.306Z" fill="#8F8F8F" stroke="#263238" stroke-width="0.988167" stroke-linecap="round" stroke-linejoin="round"/>
<path d="M328.287 363.508L333.528 361.906C334.791 362.721 336.103 363.457 337.458 364.11C338.414 364.437 341.538 364.03 341.538 364.03C341.538 364.03 343.893 364.623 343.681 366.473C343.468 368.323 343.318 370.616 342.114 370.094C340.91 369.571 340.016 369.686 337.918 369.279C335.82 368.872 334.67 368.801 334.103 367.969L333.545 367.102L330.146 368.872C330.146 368.872 326.287 365.588 328.287 363.508Z" fill="white" stroke="#263238" stroke-width="0.988167" stroke-linecap="round" stroke-linejoin="round"/>
<path d="M330.137 368.943L333.218 367.305C332.005 363.888 333.528 361.906 333.528 361.906L328.287 363.508C326.287 365.588 330.137 368.943 330.137 368.943Z" fill="#8F8F8F" stroke="#263238" stroke-width="0.988167" stroke-linecap="round" stroke-linejoin="round"/>
<path d="M346.08 367.757H281.48C279.954 367.757 278.718 368.993 278.718 370.518V382.212C278.718 383.737 279.954 384.973 281.48 384.973H346.08C347.605 384.973 348.841 383.737 348.841 382.212V370.518C348.841 368.993 347.605 367.757 346.08 367.757Z" fill="white" stroke="#263238" stroke-width="0.988167" stroke-linecap="round" stroke-linejoin="round"/>
<path d="M334.085 367.703H341.981V374.121C341.981 374.987 341.637 375.818 341.025 376.431C340.412 377.043 339.581 377.387 338.715 377.387H337.352C336.485 377.387 335.655 377.043 335.042 376.431C334.43 375.818 334.085 374.987 334.085 374.121V367.703Z" fill="white" stroke="#263238" stroke-width="0.988167" stroke-linecap="round" stroke-linejoin="round"/>
<path d="M284.02 367.703H291.942V374.121C291.942 374.987 291.598 375.818 290.986 376.431C290.373 377.043 289.542 377.387 288.676 377.387H287.304C286.438 377.387 285.607 377.043 284.994 376.431C284.382 375.818 284.038 374.987 284.038 374.121V367.703H284.02Z" fill="white" stroke="#263238" stroke-width="0.988167" stroke-linecap="round" stroke-linejoin="round"/>
<path d="M114.562 318.585H137.922C141.037 323.704 142.905 329.483 143.375 335.457H118.979L114.562 318.585Z" fill="#D6D6D6" stroke="#263238" stroke-width="0.988167" stroke-linecap="round" stroke-linejoin="round"/>
<path d="M124.529 334.2C124.529 334.2 118.333 313.275 108.596 312.504C92.9108 311.239 65.9573 313.274 65.9573 313.274C65.9573 313.274 87.7149 322.578 88.8833 339.246H126.857L124.529 334.2Z" fill="#D6D6D6" stroke="#263238" stroke-width="0.988167" stroke-linecap="round" stroke-linejoin="round"/>
<path d="M108.64 312.504C106.174 311.853 103.554 312.127 101.276 313.274C97.7882 315.213 90.0429 326.065 90.0429 326.065H47.4041C47.4041 326.065 57.4773 317.151 65.9927 313.274C74.5081 309.397 97.0535 310.141 108.64 312.504Z" fill="white" stroke="#263238" stroke-width="0.988167" stroke-linecap="round" stroke-linejoin="round"/>
<path d="M71.4363 332.261H133.965C135.985 332.259 137.978 332.726 139.786 333.626C141.594 334.526 143.168 335.835 144.384 337.448C149.403 344.114 159.334 355.285 171.824 359.002C183.207 362.393 191.112 362.455 195.44 362.021C195.94 361.977 196.443 362.039 196.916 362.204C197.39 362.369 197.823 362.632 198.187 362.977C198.551 363.322 198.838 363.74 199.028 364.204C199.218 364.668 199.308 365.167 199.291 365.668C199.105 370.094 198.45 376.591 196.237 379.547C194.023 382.374 190.859 384.302 187.332 384.974H67.5681C67.5681 384.974 55.9369 380.317 58.6544 366.757C61.3719 353.196 71.4363 332.261 71.4363 332.261Z" fill="#263238" stroke="#263238" stroke-width="0.988167" stroke-linecap="round" stroke-linejoin="round"/>
<path d="M95.4334 332.261H157.962C159.981 332.259 161.972 332.727 163.779 333.627C165.585 334.527 167.158 335.836 168.372 337.448C173.391 344.114 183.322 355.285 195.812 359.002C207.196 362.393 215.091 362.455 219.42 362.021C219.919 361.977 220.422 362.039 220.896 362.204C221.369 362.369 221.802 362.632 222.166 362.977C222.53 363.322 222.817 363.74 223.007 364.204C223.198 364.668 223.287 365.167 223.27 365.668C223.093 370.094 222.438 376.591 220.225 379.547C218.009 382.375 214.842 384.303 211.312 384.973H91.5918C91.5918 384.973 79.9694 380.317 82.6781 366.757C85.3867 353.196 95.4334 332.261 95.4334 332.261Z" fill="white" stroke="#263238" stroke-width="0.988167" stroke-linecap="round" stroke-linejoin="round"/>
<path d="M133.98 357.604C137.913 353.67 137.913 347.292 133.98 343.359C130.046 339.425 123.668 339.425 119.734 343.359C115.8 347.292 115.8 353.67 119.734 357.604C123.668 361.538 130.046 361.538 133.98 357.604Z" fill="white" stroke="#263238" stroke-width="0.988167" stroke-linecap="round" stroke-linejoin="round"/>
<path d="M137.082 357.6C141.016 353.666 141.016 347.288 137.082 343.354C133.148 339.42 126.77 339.42 122.836 343.354C118.902 347.288 118.902 353.666 122.836 357.6C126.77 361.534 133.148 361.534 137.082 357.6Z" fill="#263238" stroke="#263238" stroke-width="0.988167" stroke-linecap="round" stroke-linejoin="round"/>
</g>
<defs>
<clipPath id="clip0">
<rect width="462" height="432" fill="white"/>
</clipPath>
</defs>
</svg>
