<svg width="583" height="409" viewBox="0 0 583 409" fill="none" xmlns="http://www.w3.org/2000/svg">
<path d="M556.996 237.291C556.282 237.291 485.77 236.017 483.873 236.017C481.975 236.017 475.951 236.017 473.165 233.241C470.38 230.465 464.46 222.121 464.251 221.754C464.182 221.65 464.134 221.533 464.11 221.41C464.086 221.288 464.087 221.161 464.112 221.038L482.393 144.575C482.447 144.351 482.587 144.157 482.782 144.036C482.978 143.915 483.214 143.877 483.437 143.929C483.549 143.954 483.655 144.001 483.749 144.067C483.842 144.134 483.921 144.218 483.981 144.316C484.041 144.414 484.081 144.523 484.098 144.636C484.116 144.75 484.11 144.866 484.082 144.977L465.923 221.056C467.072 222.662 472.243 229.785 474.419 232.002C476.595 234.219 482.097 234.271 483.89 234.271C485.683 234.271 548.152 235.388 556.248 235.528L570.176 142.76C570.208 142.528 570.331 142.319 570.517 142.178C570.703 142.038 570.937 141.977 571.168 142.009C571.399 142.041 571.608 142.165 571.748 142.351C571.889 142.538 571.949 142.773 571.917 143.004L557.902 236.541C557.871 236.756 557.762 236.953 557.594 237.092C557.427 237.231 557.213 237.302 556.996 237.291Z" fill="#263238"/>
<path d="M498.515 131.22L492.717 131.116C492.485 131.111 492.263 131.015 492.101 130.849C491.938 130.682 491.847 130.458 491.847 130.225C491.867 130 491.968 129.789 492.132 129.632C492.295 129.474 492.509 129.382 492.735 129.37L498.55 129.475C498.78 129.475 499.002 129.567 499.165 129.73C499.328 129.894 499.42 130.116 499.42 130.348C499.42 130.579 499.328 130.801 499.165 130.965C499.002 131.128 498.78 131.22 498.55 131.22H498.515Z" fill="#263238"/>
<path d="M468.761 223.378C468.53 223.378 468.308 223.286 468.145 223.122C467.982 222.958 467.89 222.736 467.89 222.505C467.89 222.273 467.982 222.051 468.145 221.888C468.308 221.724 468.53 221.632 468.761 221.632L544.931 221.388L561.001 132.355L505.618 131.343C505.391 131.338 505.174 131.244 505.014 131.081C504.855 130.918 504.765 130.698 504.765 130.47C504.789 130.243 504.89 130.032 505.053 129.873C505.215 129.714 505.427 129.616 505.653 129.597L562.046 130.627C562.173 130.63 562.299 130.661 562.413 130.719C562.528 130.776 562.628 130.858 562.707 130.959C562.785 131.056 562.842 131.168 562.875 131.288C562.908 131.408 562.916 131.533 562.899 131.657L546.515 222.435C546.482 222.637 546.378 222.82 546.221 222.951C546.065 223.083 545.866 223.154 545.662 223.151L468.761 223.413V223.378Z" fill="#263238"/>
<path d="M553.201 232.857L479.468 230.972C479.23 230.953 479.007 230.848 478.841 230.675L472.539 223.692C472.378 223.526 472.288 223.304 472.288 223.072C472.288 222.841 472.378 222.619 472.539 222.453C472.618 222.371 472.713 222.307 472.817 222.263C472.922 222.218 473.034 222.196 473.148 222.196C473.261 222.196 473.374 222.218 473.478 222.263C473.583 222.307 473.678 222.371 473.757 222.453L479.816 229.121L552.417 230.989L565.58 151.017L560.165 143.388C560.095 143.296 560.044 143.191 560.016 143.079C559.988 142.967 559.982 142.85 560 142.736C560.018 142.622 560.059 142.513 560.12 142.415C560.181 142.317 560.262 142.232 560.356 142.166C560.45 142.099 560.556 142.051 560.668 142.026C560.78 142 560.896 141.997 561.009 142.016C561.123 142.036 561.231 142.078 561.328 142.139C561.425 142.201 561.509 142.281 561.575 142.376L567.356 150.389C567.487 150.583 567.537 150.821 567.495 151.052L554.158 232.124C554.124 232.346 554.005 232.547 553.827 232.683C553.648 232.82 553.424 232.882 553.201 232.857Z" fill="#263238"/>
<path d="M486.066 227.148H496.739C496.739 227.148 494.998 235.633 494.075 243.646C493.152 251.659 492.735 261.941 492.735 261.941L486.519 250.332L478.946 260.16L486.066 227.148Z" fill="#263238"/>
<path d="M36.2692 244.78C36.0968 244.782 35.928 244.731 35.7851 244.634C35.6421 244.538 35.5317 244.4 35.4683 244.239C35.381 244.024 35.3813 243.782 35.4692 243.567C35.557 243.352 35.7255 243.179 35.9384 243.087L81.0139 224.879C81.963 222.224 82.7709 219.52 83.4339 216.779C83.6429 215.557 82.8942 213.724 81.2228 211.367C80.5786 210.459 59.2509 179.228 55.8037 174.2L3.92074 200.561C3.82048 200.615 3.71038 200.649 3.59696 200.66C3.48353 200.671 3.36907 200.659 3.26034 200.624C3.15161 200.59 3.05081 200.535 2.96389 200.461C2.87696 200.387 2.80567 200.296 2.75424 200.194C2.70038 200.091 2.66756 199.979 2.6577 199.863C2.64784 199.747 2.66114 199.631 2.69682 199.52C2.73249 199.409 2.78982 199.307 2.86546 199.219C2.94109 199.131 3.0335 199.059 3.13727 199.007L55.6992 172.298C55.8878 172.204 56.1034 172.181 56.3074 172.232C56.5115 172.283 56.6908 172.406 56.8135 172.577C57.0746 172.943 81.9715 209.412 82.6331 210.355C83.904 212.1 85.5406 214.771 85.1576 217.058C84.7745 219.345 82.6331 225.56 82.546 225.787C82.5045 225.908 82.4381 226.018 82.3512 226.111C82.2641 226.205 82.1585 226.278 82.0411 226.328L36.6 244.676C36.4987 244.734 36.3858 244.77 36.2692 244.78Z" fill="#263238"/>
<path d="M25.4571 245.217C25.316 245.216 25.1773 245.18 25.053 245.113C24.9286 245.046 24.8223 244.95 24.7433 244.833L22.6889 241.83C22.5573 241.638 22.5072 241.401 22.5496 241.172C22.5921 240.943 22.7236 240.74 22.9152 240.608C23.1069 240.476 23.3429 240.426 23.5715 240.469C23.8 240.511 24.0024 240.643 24.134 240.835L26.1884 243.855C26.3117 244.047 26.357 244.279 26.3149 244.503C26.2727 244.727 26.1465 244.926 25.962 245.06C25.8131 245.161 25.6373 245.216 25.4571 245.217Z" fill="#263238"/>
<path d="M20.8958 238.531C20.7547 238.53 20.616 238.494 20.4917 238.427C20.3673 238.36 20.261 238.264 20.182 238.147L0.281954 208.975C0.211599 208.872 0.164308 208.754 0.143279 208.631C0.12225 208.507 0.127975 208.381 0.160082 208.26C0.194552 208.139 0.254277 208.026 0.335312 207.93C0.416347 207.833 0.516854 207.756 0.63017 207.701L52.635 183.261C52.8184 183.17 53.0283 183.148 53.2265 183.199C53.4246 183.25 53.5978 183.371 53.7144 183.54L81.6929 222.697C81.8251 222.886 81.8791 223.119 81.8433 223.347C81.8076 223.575 81.685 223.78 81.5014 223.919C81.4078 223.986 81.3019 224.034 81.1899 224.059C81.0778 224.085 80.9618 224.088 80.8485 224.069C80.7352 224.049 80.6268 224.008 80.5297 223.946C80.4326 223.884 80.3486 223.804 80.2826 223.709L52.722 185.094L2.23192 208.836L21.5574 237.169C21.6834 237.362 21.7285 237.596 21.6829 237.822C21.6372 238.047 21.5045 238.246 21.3137 238.374C21.1916 238.464 21.047 238.518 20.8958 238.531Z" fill="#263238"/>
<path d="M79.6385 221.545H79.4644C79.2404 221.494 79.0445 221.359 78.9179 221.167C78.7913 220.975 78.7438 220.741 78.7854 220.515L79.9693 215.138L54.9157 177.727L9.99694 199.775L8.13403 205.292C8.05512 205.51 7.89457 205.688 7.68648 205.789C7.4784 205.89 7.23921 205.906 7.01977 205.833C6.80373 205.758 6.62599 205.6 6.52498 205.394C6.42398 205.188 6.40784 204.951 6.48005 204.733L8.46483 198.868C8.53884 198.649 8.69494 198.467 8.90009 198.361L54.8983 175.824C55.0882 175.729 55.3063 175.706 55.5115 175.761C55.7167 175.815 55.8949 175.943 56.0126 176.121L81.7451 214.527C81.8141 214.621 81.8623 214.729 81.8863 214.843C81.9103 214.958 81.9097 215.076 81.8844 215.19L80.6309 220.934C80.5699 221.14 80.4348 221.317 80.2516 221.43C80.0683 221.543 79.8499 221.584 79.6385 221.545Z" fill="#263238"/>
<path d="M77.0792 212.642L73.2141 207.195C73.2141 207.195 78.1587 205.03 82.5635 202.569C86.9683 200.107 92.3307 196.633 92.3307 196.633L88.6919 204.018L96.4048 204.314L77.0792 212.642Z" fill="#263238"/>
<path d="M63.4122 379.272H63.3078C63.169 379.249 63.0372 379.195 62.9225 379.113C62.8079 379.031 62.7133 378.924 62.6462 378.801L30.7852 317.7C30.6989 317.481 30.6989 317.238 30.7852 317.019C30.8592 316.8 31.0153 316.618 31.2204 316.513L34.8244 314.767C35.0273 314.682 35.2547 314.678 35.4608 314.754C35.667 314.83 35.8367 314.982 35.9359 315.179C36.0351 315.376 36.0564 315.603 35.9955 315.814C35.9347 316.026 35.7962 316.207 35.6079 316.321L32.8048 317.735L63.6734 376.968L116.201 320.86C116.299 320.752 116.426 320.673 116.566 320.633L180.584 300.819L148.915 250.192L146.582 250.367C146.467 250.379 146.351 250.367 146.24 250.333C146.13 250.299 146.028 250.242 145.94 250.167C145.852 250.092 145.78 250 145.729 249.896C145.678 249.792 145.648 249.679 145.641 249.564C145.627 249.335 145.703 249.11 145.853 248.937C146.003 248.764 146.214 248.656 146.442 248.639L149.315 248.412C149.473 248.395 149.632 248.425 149.774 248.496C149.915 248.567 150.034 248.677 150.116 248.813L182.656 300.888C182.714 301.008 182.745 301.139 182.745 301.272C182.745 301.406 182.714 301.537 182.656 301.657C182.609 301.782 182.534 301.896 182.438 301.99C182.342 302.084 182.226 302.155 182.099 302.198L117.21 322.256L64.0564 379.027C63.8822 379.191 63.6507 379.279 63.4122 379.272Z" fill="#263238"/>
<path d="M64.1083 370.945H63.969C63.8394 370.921 63.7169 370.868 63.6112 370.789C63.5055 370.711 63.4194 370.608 63.3596 370.491L32.8915 312.166C32.7953 311.988 32.7653 311.781 32.8067 311.583C32.8482 311.385 32.9584 311.208 33.1178 311.083C33.2571 310.961 47.5684 299.212 54.3236 282.942C60.5566 267.929 71.2814 260.475 83.016 262.988C83.1377 263.015 83.2522 263.067 83.3514 263.143C83.4507 263.218 83.5323 263.315 83.5905 263.425L111.987 314.802C112.069 314.95 112.106 315.118 112.094 315.286C112.083 315.455 112.023 315.616 111.921 315.751C111.82 315.886 111.682 315.989 111.523 316.046C111.365 316.104 111.193 316.114 111.029 316.076C110.559 315.972 99.3643 313.65 96.8398 324.456C94.1238 336.013 82.2325 350.886 76.5219 358.026L75.8951 358.829C72.4796 363.085 68.7365 367.066 64.7002 370.735C64.5349 370.875 64.3245 370.949 64.1083 370.945ZM34.737 311.956L64.3346 368.658C67.982 365.259 71.3801 361.601 74.5023 357.712L75.1291 356.909C80.77 349.926 92.5394 335.209 95.0988 324.037C97.3795 314.331 105.858 313.842 109.584 314.121L82.2499 264.595C71.5599 262.517 61.7405 269.587 55.908 283.606C49.7447 298.444 37.4704 309.6 34.737 311.956Z" fill="#263238"/>
<path d="M111.203 316.024C111.049 316.026 110.896 315.987 110.761 315.91C110.627 315.833 110.515 315.722 110.437 315.588L82.041 264.193C81.9808 264 81.9808 263.793 82.041 263.6C84.0954 253.998 94.6113 249.634 116.131 249.634C134.916 249.634 142.525 243.646 142.594 243.593C142.691 243.515 142.803 243.458 142.923 243.425C143.042 243.392 143.168 243.384 143.291 243.401C143.412 243.424 143.527 243.471 143.629 243.54C143.731 243.609 143.817 243.699 143.883 243.803L175.744 295.878C175.858 296.072 175.895 296.303 175.847 296.523C175.798 296.744 175.668 296.937 175.483 297.065C175.395 297.065 173.15 298.567 160.022 302.722C150.916 305.619 140.871 305.218 132.775 304.904C129.562 304.722 126.342 304.722 123.13 304.904C115.504 305.532 112.144 315.378 112.109 315.378C112.055 315.539 111.956 315.681 111.823 315.787C111.69 315.892 111.529 315.957 111.36 315.972L111.203 316.024ZM83.7298 263.652L111.082 313.161C112.509 310.019 116.2 303.751 122.903 303.193C126.185 303.011 129.475 303.011 132.757 303.193C140.697 303.507 150.586 303.891 159.413 301.098C164.255 299.675 169.016 297.985 173.672 296.035L142.803 245.549C140.366 247.137 132.27 251.414 116.043 251.414C95.743 251.432 85.7494 255.272 83.7298 263.652Z" fill="#263238"/>
<path d="M86.2716 350.101C86.0773 350.104 85.8874 350.043 85.7319 349.926C85.5514 349.779 85.4357 349.567 85.4096 349.335C85.3836 349.103 85.4493 348.87 85.5926 348.687C88.9528 344.462 91.6166 340.726 93.967 337.427C96.5596 333.407 99.5966 329.694 103.02 326.359C106.017 323.777 109.357 321.627 112.944 319.969C113.048 319.923 113.16 319.899 113.274 319.897C113.387 319.895 113.5 319.916 113.605 319.958C113.711 320 113.807 320.063 113.887 320.143C113.968 320.223 114.032 320.318 114.076 320.423C114.164 320.637 114.167 320.876 114.082 321.091C113.998 321.306 113.833 321.48 113.623 321.575C110.203 323.169 107.016 325.225 104.152 327.685C100.854 330.935 97.9335 334.548 95.4469 338.457C93.0791 341.774 90.3979 345.44 87.0029 349.786C86.9147 349.893 86.8023 349.978 86.6752 350.032C86.548 350.087 86.4097 350.11 86.2716 350.101Z" fill="#263238"/>
<path d="M118.812 317.473C118.62 317.475 118.434 317.407 118.29 317.281C118.108 317.139 117.989 316.931 117.96 316.702C117.93 316.473 117.992 316.242 118.133 316.059C121.421 312.067 126.091 309.467 131.208 308.779L134.325 308.535C147.681 307.8 160.824 304.85 173.219 299.806C173.436 299.723 173.677 299.729 173.89 299.824C174.102 299.919 174.268 300.095 174.351 300.312C174.434 300.53 174.428 300.772 174.333 300.985C174.238 301.197 174.063 301.364 173.846 301.447C161.29 306.535 147.985 309.519 134.464 310.281L131.365 310.525C126.73 311.175 122.502 313.534 119.508 317.141C119.423 317.244 119.316 317.326 119.196 317.384C119.076 317.441 118.945 317.471 118.812 317.473Z" fill="#263238"/>
<path d="M44.0344 320.249C43.8645 320.25 43.698 320.201 43.5554 320.108C43.4128 320.016 43.3003 319.884 43.2318 319.728C43.1633 319.572 43.1418 319.399 43.17 319.231C43.1981 319.063 43.2747 318.907 43.3902 318.782C49.3088 311.96 54.8312 304.802 59.9301 297.345C69.7669 283.274 76.9923 277.53 84.8792 277.53C85.11 277.53 85.3315 277.622 85.4947 277.786C85.658 277.95 85.7497 278.172 85.7497 278.403C85.7497 278.635 85.658 278.857 85.4947 279.021C85.3315 279.184 85.11 279.276 84.8792 279.276C77.6364 279.276 70.8116 284.81 61.3577 298.357C56.2066 305.869 50.6381 313.085 44.6786 319.969C44.5964 320.058 44.4967 320.129 44.3858 320.177C44.2749 320.225 44.1552 320.249 44.0344 320.249Z" fill="#263238"/>
<path d="M49.5707 329.274C49.3519 329.276 49.1406 329.195 48.9787 329.047C48.8976 328.967 48.8332 328.872 48.7893 328.768C48.7453 328.663 48.7227 328.55 48.7227 328.436C48.7227 328.322 48.7453 328.21 48.7893 328.105C48.8332 328 48.8976 327.905 48.9787 327.825C54.8918 320.988 60.4195 313.825 65.536 306.37C75.3554 292.299 82.5807 286.556 90.485 286.556C90.7145 286.56 90.9334 286.654 91.0957 286.817C91.258 286.979 91.3511 287.199 91.3556 287.429C91.3556 287.66 91.2639 287.882 91.1006 288.046C90.9374 288.21 90.7159 288.302 90.485 288.302C83.2249 288.302 76.4175 293.836 66.9462 307.383C61.7951 314.895 56.2265 322.11 50.2671 328.995C50.1791 329.09 50.0709 329.165 49.9504 329.213C49.8299 329.262 49.7002 329.283 49.5707 329.274Z" fill="#263238"/>
<path d="M55.1073 338.299C54.9408 338.298 54.7783 338.248 54.6391 338.156C54.4999 338.064 54.3898 337.935 54.322 337.782C54.2542 337.629 54.2314 337.461 54.2565 337.296C54.2815 337.13 54.3532 336.976 54.4632 336.85C60.374 330.018 65.9016 322.861 71.0204 315.413C80.8399 301.325 88.0652 295.581 95.9695 295.581C96.199 295.586 96.4178 295.679 96.5801 295.842C96.7424 296.005 96.8355 296.224 96.84 296.454C96.84 296.686 96.7483 296.908 96.585 297.071C96.4218 297.235 96.2004 297.327 95.9695 297.327C88.7094 297.327 81.9019 302.861 72.4481 316.408C67.2882 323.918 61.714 331.133 55.7515 338.02C55.67 338.11 55.5705 338.181 55.4594 338.229C55.3483 338.277 55.2283 338.301 55.1073 338.299Z" fill="#263238"/>
<path d="M60.6438 347.325C60.5378 347.327 60.4325 347.308 60.3339 347.269C60.2352 347.23 60.1453 347.172 60.0693 347.098C59.9882 347.018 59.9238 346.923 59.8798 346.818C59.8359 346.714 59.8132 346.601 59.8132 346.487C59.8132 346.373 59.8359 346.261 59.8798 346.156C59.9238 346.051 59.9882 345.956 60.0693 345.876C65.9867 339.049 71.5146 331.891 76.6266 324.438C86.446 310.35 93.6713 304.624 101.576 304.624C101.807 304.624 102.028 304.716 102.191 304.88C102.354 305.044 102.446 305.266 102.446 305.497C102.446 305.729 102.354 305.951 102.191 306.114C102.028 306.278 101.807 306.37 101.576 306.37C94.3155 306.37 87.5081 311.887 78.0542 325.433C72.9069 332.953 67.3322 340.169 61.3577 347.046C61.2686 347.145 61.1577 347.222 61.0338 347.27C60.9098 347.319 60.7763 347.337 60.6438 347.325Z" fill="#263238"/>
<path d="M94.5766 275.121H94.2806C94.0665 275.039 93.8925 274.876 93.7951 274.668C93.6978 274.46 93.6846 274.222 93.7583 274.004C93.7583 273.917 96.8748 265.782 107.687 265.782C127.97 265.782 141.132 262.639 142.873 257.35C142.947 257.118 143.109 256.926 143.325 256.814C143.432 256.759 143.548 256.726 143.668 256.716C143.787 256.706 143.908 256.72 144.022 256.756C144.136 256.793 144.242 256.852 144.334 256.93C144.426 257.007 144.501 257.102 144.556 257.209C144.611 257.316 144.644 257.433 144.654 257.553C144.664 257.673 144.651 257.794 144.614 257.908C141.846 266.288 120.344 267.527 107.774 267.527C98.1631 267.527 95.5864 274.301 95.4297 274.598C95.3585 274.762 95.2383 274.901 95.0857 274.995C94.933 275.088 94.7552 275.133 94.5766 275.121Z" fill="#263238"/>
<path d="M100.809 285.526C100.616 285.527 100.426 285.466 100.27 285.351C100.09 285.207 99.9751 284.998 99.949 284.769C99.9229 284.54 99.9882 284.31 100.13 284.129C100.339 283.85 105.354 277.531 118.812 277.531C133.28 277.531 144.022 274.126 150.76 267.37C150.923 267.21 151.141 267.121 151.369 267.121C151.597 267.121 151.816 267.21 151.979 267.37C152.06 267.452 152.125 267.548 152.169 267.654C152.213 267.761 152.236 267.875 152.236 267.99C152.236 268.105 152.213 268.219 152.169 268.326C152.125 268.432 152.06 268.529 151.979 268.61C144.927 275.697 133.767 279.364 118.812 279.364C106.311 279.364 101.541 285.229 101.506 285.282C101.415 285.371 101.305 285.439 101.185 285.481C101.064 285.524 100.936 285.539 100.809 285.526Z" fill="#263238"/>
<path d="M104.971 295.948C104.844 295.944 104.72 295.914 104.605 295.861C104.501 295.814 104.408 295.747 104.33 295.663C104.253 295.579 104.193 295.48 104.154 295.373C104.115 295.266 104.098 295.152 104.103 295.037C104.109 294.923 104.138 294.811 104.187 294.709C105.798 291.705 108.22 289.218 111.177 287.532C114.133 285.846 117.503 285.03 120.901 285.177C135.456 285.177 148.201 282.122 155.008 277.024C155.099 276.953 155.203 276.901 155.314 276.871C155.425 276.842 155.541 276.835 155.655 276.851C155.768 276.867 155.878 276.907 155.976 276.966C156.075 277.026 156.16 277.105 156.227 277.199C156.361 277.386 156.418 277.617 156.385 277.845C156.353 278.073 156.234 278.279 156.053 278.421C145.833 286.085 128.057 286.923 120.901 286.923C117.834 286.779 114.789 287.501 112.111 289.007C109.433 290.513 107.231 292.742 105.754 295.442C105.687 295.593 105.577 295.722 105.438 295.812C105.298 295.902 105.136 295.949 104.971 295.948Z" fill="#263238"/>
<path d="M109.81 303.577C109.73 303.593 109.647 303.593 109.567 303.577C109.348 303.508 109.164 303.357 109.053 303.155C108.943 302.953 108.915 302.717 108.975 302.494C109.079 302.18 111.377 294.953 123.617 294.237C136.354 293.562 148.892 290.771 160.718 285.98C160.824 285.919 160.942 285.88 161.064 285.868C161.185 285.855 161.308 285.868 161.425 285.906C161.541 285.945 161.648 286.007 161.738 286.089C161.829 286.172 161.901 286.272 161.95 286.385C162 286.497 162.025 286.618 162.024 286.741C162.023 286.864 161.997 286.985 161.946 287.096C161.896 287.208 161.822 287.308 161.731 287.389C161.639 287.471 161.531 287.532 161.415 287.568C149.406 292.462 136.666 295.306 123.721 295.983C112.77 296.629 110.733 302.739 110.646 302.966C110.59 303.144 110.479 303.299 110.329 303.409C110.178 303.519 109.997 303.578 109.81 303.577Z" fill="#263238"/>
<path d="M446.997 99.6925C446.867 99.6774 446.742 99.6335 446.63 99.5641C446.519 99.4947 446.424 99.4014 446.353 99.2909L421.839 59.5405L374.97 33.9306C374.846 33.8669 374.739 33.7728 374.66 33.6569C374.581 33.541 374.532 33.407 374.518 33.2672C374.501 33.1289 374.518 32.9885 374.566 32.8579C374.615 32.7274 374.694 32.6103 374.796 32.5165L409.826 0.691801C409.913 0.612394 410.014 0.551355 410.125 0.512355C410.236 0.473356 410.353 0.457191 410.47 0.464847C410.584 0.472284 410.694 0.502374 410.796 0.553338C410.898 0.604301 410.988 0.675122 411.062 0.761632L412.89 2.85651C413.009 3.03333 413.059 3.24746 413.03 3.45858C413.002 3.66969 412.898 3.86322 412.738 4.00271C412.577 4.1422 412.371 4.21803 412.159 4.21592C411.947 4.2138 411.742 4.13389 411.585 3.99124L410.348 2.57718L376.868 32.9879L422.814 58.109C422.944 58.1906 423.057 58.2974 423.145 58.4233L447.189 97.4055L474.958 67.8677L474.488 66.506C474.451 66.3971 474.435 66.2818 474.441 66.1668C474.448 66.0517 474.477 65.9391 474.527 65.8353C474.577 65.7316 474.647 65.6387 474.733 65.5621C474.819 65.4855 474.919 65.4266 475.028 65.3887C475.137 65.3509 475.252 65.3349 475.366 65.3416C475.481 65.3484 475.593 65.3777 475.697 65.4279C475.8 65.4782 475.893 65.5484 475.969 65.6345C476.046 65.7206 476.104 65.821 476.142 65.9299L476.786 67.7979C476.839 67.9496 476.849 68.113 476.816 68.2701C476.782 68.4271 476.705 68.5718 476.595 68.6882L447.676 99.4306C447.588 99.5198 447.482 99.5893 447.365 99.6344C447.248 99.6796 447.122 99.6993 446.997 99.6925Z" fill="#263238"/>
<path d="M425.582 54.9841C425.479 55.0005 425.373 55.0005 425.269 54.9841C425.111 54.9206 424.974 54.8128 424.875 54.6735C424.776 54.5342 424.72 54.3693 424.712 54.1985C424.712 53.8843 424.311 46.2205 416.982 46.4475C408.729 46.6221 396.803 41.2103 391.058 38.679L390.431 38.3997C387 36.854 383.694 35.0447 380.542 32.9879C380.432 32.9138 380.34 32.8156 380.274 32.7006C380.207 32.5856 380.168 32.457 380.159 32.3245C380.15 32.1904 380.172 32.056 380.223 31.9319C380.274 31.8077 380.354 31.6971 380.455 31.6087L413.917 1.11075C414.075 0.98322 414.272 0.913681 414.475 0.913681C414.677 0.913681 414.874 0.98322 415.032 1.11075C421.687 5.7541 429.266 8.89853 437.247 10.3282C448.425 11.9168 455.319 17.8873 455.685 26.2842C455.69 26.407 455.67 26.5296 455.625 26.6439C455.58 26.7582 455.511 26.8617 455.424 26.9476L426.244 54.8794C426.045 54.9978 425.808 55.0353 425.582 54.9841ZM417.243 44.6319C419.414 44.5905 421.525 45.3498 423.174 46.7658C424.824 48.1818 425.898 50.1558 426.192 52.3132L453.961 25.9002C453.439 18.5157 447.293 13.4705 437.038 11.9343C428.992 10.5557 421.341 7.44046 414.614 2.80411L382.457 32.0801C385.247 33.8356 388.155 35.3931 391.162 36.7412L391.789 37.0205C397.43 39.5518 409.199 44.8414 416.964 44.6319H417.243Z" fill="#263238"/>
<path d="M449.069 94.3156C448.854 94.3158 448.645 94.2418 448.477 94.1061C448.338 93.9664 446.963 92.6397 442.001 84.714C438.519 79.0928 436.986 72.2844 435.803 66.8202C435.376 64.6574 434.836 62.5188 434.183 60.4134C432.442 55.5952 425.6 55.0714 425.478 55.054C425.31 55.045 425.149 54.9874 425.013 54.8883C424.877 54.7892 424.772 54.6527 424.712 54.4954C424.657 54.3328 424.649 54.158 424.689 53.9912C424.729 53.8243 424.816 53.6723 424.938 53.5527L454.118 25.7082C454.269 25.5658 454.468 25.4849 454.675 25.4812C461.518 25.1495 466.306 31.504 470.066 46.0285C473.304 58.5105 478.51 62.4384 478.562 62.4734C478.663 62.5472 478.748 62.6411 478.811 62.7493C478.874 62.8574 478.914 62.9775 478.928 63.1018C478.937 63.2261 478.92 63.3509 478.878 63.4682C478.836 63.5855 478.77 63.6926 478.684 63.7827L449.696 93.9664C449.621 94.0651 449.527 94.1471 449.419 94.2072C449.311 94.2674 449.192 94.3043 449.069 94.3156ZM427.48 53.5876C429.987 54.1287 434.357 55.6301 435.82 59.8373C436.531 62 437.113 64.2036 437.561 66.4362C438.727 71.7781 440.19 78.4119 443.55 83.7888C445.283 86.6694 447.16 89.4604 449.174 92.1509L476.908 63.224C475.254 61.6354 471.215 56.8695 468.499 46.465C465.104 33.3545 460.873 27.2619 455.215 27.2619L427.48 53.5876Z" fill="#263238"/>
<path d="M422.257 57.3234C422.127 57.3216 421.998 57.2909 421.881 57.2336C421.764 57.1763 421.66 57.0937 421.578 56.9917C419.949 54.993 418.05 53.2305 415.937 51.7545C413.224 50.1215 410.34 48.7926 407.337 47.7917C404.725 46.7966 401.765 45.6619 398.336 44.1257C398.126 44.0304 397.962 43.8557 397.881 43.6397C397.799 43.4238 397.806 43.1842 397.9 42.9735C397.946 42.8677 398.012 42.7722 398.094 42.6927C398.177 42.6131 398.275 42.5511 398.382 42.5103C398.49 42.4696 398.604 42.451 398.719 42.4555C398.833 42.4601 398.946 42.4879 399.049 42.537C402.427 44.0384 405.369 45.1731 407.946 46.1682C411.088 47.2063 414.103 48.6002 416.93 50.323C419.177 51.8947 421.203 53.7619 422.954 55.8745C423.095 56.0603 423.158 56.2945 423.129 56.5264C423.099 56.7583 422.98 56.9693 422.797 57.1139C422.646 57.2434 422.456 57.3174 422.257 57.3234Z" fill="#263238"/>
<path d="M446.057 94.0363C445.918 94.0356 445.781 94.0021 445.657 93.9384C445.533 93.8747 445.426 93.7826 445.344 93.6697C439.779 86.1553 435.486 77.7745 432.634 68.8628C432.39 68.1295 432.147 67.4487 431.938 66.8377C430.715 63.9334 428.473 61.5793 425.635 60.2214C425.518 60.1846 425.411 60.1235 425.319 60.0422C425.228 59.9608 425.154 59.8611 425.104 59.7494C425.053 59.6377 425.027 59.5165 425.026 59.3939C425.025 59.2712 425.05 59.1498 425.099 59.0375C425.149 58.9252 425.221 58.8246 425.312 58.7422C425.402 58.6598 425.509 58.5975 425.625 58.5593C425.742 58.5211 425.865 58.5079 425.986 58.5205C426.108 58.5332 426.226 58.5714 426.332 58.6327C429.622 60.1562 432.211 62.8772 433.574 66.2442C433.801 66.8726 434.027 67.5534 434.271 68.2867C437.073 77.0656 441.296 85.3225 446.771 92.727C446.838 92.8194 446.885 92.9242 446.91 93.0351C446.936 93.1461 446.939 93.2611 446.919 93.3733C446.9 93.4855 446.858 93.5927 446.797 93.6885C446.736 93.7844 446.656 93.867 446.562 93.9315C446.411 94.0225 446.233 94.0595 446.057 94.0363Z" fill="#263238"/>
<path d="M445.448 31.0501C445.255 31.0481 445.068 30.9818 444.917 30.8617C444.766 30.7416 444.659 30.5746 444.612 30.3868C443.376 25.6558 438.588 22.112 428.055 18.1666C422.163 16.0293 416.397 13.558 410.784 10.7647C410.675 10.7157 410.577 10.6448 410.497 10.5563C410.417 10.4679 410.355 10.3638 410.317 10.2505C410.278 10.1373 410.263 10.0173 410.273 9.89802C410.282 9.77875 410.316 9.66272 410.373 9.55717C410.429 9.45161 410.506 9.35877 410.6 9.28442C410.693 9.21007 410.801 9.15581 410.916 9.12498C411.032 9.09415 411.152 9.08743 411.27 9.10523C411.388 9.12303 411.501 9.16498 411.602 9.22846C417.146 11.9778 422.836 14.4197 428.647 16.5431C439.79 20.6805 444.908 24.5735 446.301 29.9329C446.33 30.0441 446.337 30.1599 446.321 30.2736C446.305 30.3874 446.267 30.4969 446.208 30.5958C446.15 30.6947 446.073 30.7812 445.981 30.8501C445.89 30.9191 445.785 30.9693 445.674 30.9978L445.448 31.0501Z" fill="#263238"/>
<path d="M440.416 36.3048C440.226 36.3037 440.041 36.2399 439.89 36.1233C439.739 36.0066 439.63 35.8434 439.581 35.6589C438.345 30.9105 433.557 27.3841 423.023 23.4387C417.132 21.2919 411.366 18.8148 405.752 16.0194C405.643 15.9703 405.546 15.8994 405.465 15.811C405.385 15.7225 405.324 15.6184 405.285 15.5052C405.246 15.392 405.231 15.272 405.241 15.1527C405.251 15.0334 405.285 14.9174 405.341 14.8118C405.397 14.7063 405.474 14.6134 405.568 14.5391C405.661 14.4647 405.769 14.4105 405.885 14.3796C406 14.3488 406.12 14.3421 406.238 14.3599C406.356 14.3777 406.469 14.4196 406.571 14.4831C412.115 17.2433 417.812 19.6854 423.633 21.7977C434.758 25.9526 439.877 29.8281 441.27 35.1875C441.301 35.2987 441.309 35.4152 441.294 35.5298C441.28 35.6444 441.242 35.7548 441.183 35.8543C441.125 35.9538 441.046 36.0404 440.954 36.1088C440.861 36.1772 440.755 36.2261 440.643 36.2524C440.572 36.2867 440.495 36.3046 440.416 36.3048Z" fill="#263238"/>
<path d="M435.385 41.5595C435.194 41.5584 435.009 41.4946 434.858 41.3779C434.708 41.2612 434.599 41.0981 434.549 40.9136C433.313 36.1651 428.525 32.6388 417.992 28.6934C412.1 26.5561 406.334 24.0848 400.721 21.2915C400.619 21.2376 400.529 21.1642 400.456 21.0753C400.382 20.9865 400.327 20.8841 400.293 20.7738C400.259 20.6636 400.247 20.5478 400.258 20.4329C400.268 20.318 400.302 20.2064 400.355 20.1044C400.409 20.0024 400.482 19.912 400.571 19.8383C400.659 19.7647 400.762 19.7093 400.872 19.6752C400.981 19.6412 401.097 19.6292 401.212 19.6399C401.326 19.6507 401.438 19.6839 401.539 19.7378C407.084 22.498 412.78 24.9401 418.601 27.0524C429.727 31.2073 434.845 35.0828 436.238 40.4597C436.267 40.5708 436.274 40.6866 436.258 40.8004C436.242 40.9142 436.203 41.0236 436.145 41.1226C436.087 41.2215 436.01 41.3079 435.918 41.3769C435.827 41.4459 435.722 41.4961 435.611 41.5246L435.385 41.5595Z" fill="#263238"/>
<path d="M430.353 46.8316C430.16 46.8295 429.973 46.7632 429.822 46.6431C429.671 46.523 429.564 46.356 429.517 46.1682C428.281 41.4372 423.493 37.8934 412.96 33.948C407.068 31.8108 401.302 29.3395 395.689 26.5461C395.486 26.4351 395.334 26.2488 395.266 26.0271C395.197 25.8054 395.218 25.5657 395.323 25.359C395.437 25.1585 395.623 25.0089 395.843 24.9408C396.063 24.8727 396.301 24.8912 396.507 24.9924C402.048 27.7617 407.745 30.2041 413.569 32.3071C424.695 36.4619 429.813 40.3549 431.206 45.7143C431.235 45.8255 431.242 45.9413 431.226 46.055C431.21 46.1688 431.172 46.2783 431.113 46.3772C431.055 46.4762 430.978 46.5626 430.886 46.6316C430.795 46.7005 430.69 46.7507 430.579 46.7792L430.353 46.8316Z" fill="#263238"/>
<path d="M469.474 66.7155C463.572 66.314 459.132 53.9192 456.451 43.6019C454.832 37.3871 450.062 36.8111 449.853 36.7936C449.625 36.7673 449.416 36.6516 449.273 36.4717C449.129 36.2919 449.062 36.0624 449.087 35.8334C449.113 35.6066 449.225 35.3985 449.4 35.2523C449.575 35.1061 449.8 35.0329 450.027 35.0479C450.288 35.0479 456.208 35.7112 458.14 43.1481C461.622 56.5728 465.905 64.7253 469.579 64.9697C469.693 64.9764 469.805 65.0057 469.908 65.0558C470.011 65.106 470.103 65.176 470.179 65.262C470.255 65.348 470.314 65.4481 470.351 65.5568C470.389 65.6654 470.404 65.7803 470.397 65.895C470.379 66.125 470.273 66.339 470.101 66.4921C469.929 66.6451 469.704 66.7252 469.474 66.7155Z" fill="#263238"/>
<path d="M463.886 73.5937C463.726 73.5971 463.569 73.5547 463.433 73.4715C457.444 69.98 453.091 62.9971 450.479 53.0289C448.355 44.8414 443.759 42.6942 443.707 42.6767C443.521 42.5692 443.382 42.3968 443.315 42.1925C443.248 41.9882 443.259 41.7663 443.345 41.5695C443.431 41.3727 443.587 41.2147 443.782 41.1258C443.978 41.037 444.199 41.0236 444.403 41.0881C444.63 41.0881 449.818 43.4972 452.168 52.5925C454.658 62.1766 458.749 68.6882 464.356 71.9701C464.553 72.0867 464.697 72.2768 464.756 72.4991C464.814 72.7214 464.783 72.9579 464.669 73.1572C464.589 73.2931 464.474 73.4052 464.336 73.4819C464.198 73.5585 464.043 73.5971 463.886 73.5937Z" fill="#263238"/>
<path d="M458.14 78.0453C457.943 78.0519 457.75 77.9833 457.6 77.8533C450.636 72.3193 447.032 60.5531 445.779 55.7348C445.346 53.7204 444.363 51.8664 442.939 50.3803C441.516 48.8942 439.708 47.8347 437.718 47.3204C437.492 47.2779 437.292 47.1477 437.161 46.958C437.031 46.7683 436.981 46.5346 437.021 46.3078C437.064 46.0803 437.193 45.8784 437.382 45.7447C437.57 45.6111 437.803 45.5564 438.031 45.5921C440.351 46.1654 442.464 47.3784 444.132 49.0938C445.8 50.8092 446.955 52.9585 447.468 55.2984C449.975 64.9523 454.171 72.8779 458.68 76.4916C458.771 76.5631 458.847 76.6521 458.904 76.7535C458.961 76.8549 458.996 76.9666 459.009 77.082C459.022 77.1974 459.012 77.3143 458.98 77.4258C458.947 77.5372 458.892 77.641 458.819 77.7311C458.738 77.8327 458.635 77.9141 458.517 77.9686C458.399 78.0231 458.27 78.0494 458.14 78.0453Z" fill="#263238"/>
<path d="M453.108 83.3174C452.978 83.3144 452.85 83.2832 452.733 83.226C452.616 83.1688 452.512 83.0868 452.429 82.9858C447.078 75.7937 442.96 67.7581 440.242 59.2088C437.979 52.2259 433.748 51.8942 433.574 51.8942C433.342 51.8807 433.124 51.7761 432.967 51.6031C432.811 51.43 432.729 51.2023 432.738 50.969C432.735 50.8526 432.757 50.7369 432.802 50.6299C432.847 50.5228 432.916 50.4269 433.002 50.3489C433.088 50.2708 433.19 50.2125 433.301 50.1779C433.412 50.1433 433.529 50.1332 433.644 50.1485C433.87 50.1485 439.25 50.4453 441.896 58.6677C444.567 67.009 448.578 74.8573 453.77 81.9034C453.91 82.0864 453.973 82.3178 453.943 82.5469C453.914 82.7759 453.795 82.9839 453.613 83.1254C453.469 83.2404 453.293 83.3075 453.108 83.3174Z" fill="#263238"/>
<path d="M136.153 120.694H135.944L129.641 119.122C129.508 119.088 129.385 119.023 129.282 118.933C129.179 118.842 129.099 118.728 129.048 118.601C128.997 118.473 128.977 118.335 128.989 118.199C129.002 118.062 129.046 117.93 129.119 117.813L158.212 72.0749C158.336 71.8781 158.534 71.739 158.761 71.6883C158.988 71.6376 159.225 71.6793 159.422 71.8043C159.618 71.9293 159.756 72.1273 159.807 72.3549C159.858 72.5824 159.816 72.8208 159.691 73.0176L131.243 117.726L135.77 118.861L164.514 76.0028C164.638 75.8184 164.827 75.6875 165.043 75.6358C165.259 75.5841 165.487 75.6154 165.681 75.7235L211.487 102.206L216.467 97.2135L166.412 71.0274C166.206 70.921 166.051 70.737 165.981 70.516C165.911 70.295 165.931 70.0551 166.037 69.8491C166.144 69.643 166.327 69.4877 166.548 69.4173C166.768 69.347 167.007 69.3672 167.213 69.4737L218.33 96.2882C218.452 96.3503 218.558 96.4417 218.637 96.5544C218.716 96.667 218.766 96.7975 218.782 96.9341C218.803 97.067 218.792 97.203 218.75 97.3306C218.707 97.4582 218.635 97.5737 218.539 97.6673L212.253 103.987C212.118 104.121 211.943 104.208 211.755 104.233C211.566 104.258 211.374 104.221 211.209 104.127L165.506 77.7136L136.866 120.414C136.777 120.513 136.666 120.59 136.542 120.639C136.419 120.687 136.285 120.706 136.153 120.694Z" fill="#263238"/>
<path d="M216.345 175.091C216.199 175.091 216.055 175.055 215.927 174.986L177.398 152.902C177.285 152.839 177.188 152.751 177.113 152.645C177.037 152.54 176.986 152.419 176.962 152.291L164.375 76.5964C164.339 76.3651 164.396 76.1293 164.533 75.9398C164.67 75.7503 164.876 75.6224 165.106 75.5838C165.219 75.5665 165.335 75.5717 165.446 75.5992C165.557 75.6267 165.662 75.6759 165.754 75.744C165.846 75.8121 165.924 75.8978 165.983 75.9961C166.042 76.0944 166.081 76.2035 166.098 76.3171L178.616 151.593L215.439 172.647L210.06 107.269C210.049 107.039 210.126 106.814 210.275 106.639C210.423 106.464 210.633 106.353 210.86 106.326C210.975 106.317 211.09 106.33 211.199 106.365C211.308 106.4 211.41 106.457 211.497 106.532C211.584 106.606 211.656 106.697 211.708 106.8C211.76 106.903 211.792 107.015 211.801 107.129L217.18 174.148C217.196 174.306 217.167 174.466 217.096 174.608C217.026 174.75 216.916 174.869 216.78 174.951C216.653 175.042 216.501 175.091 216.345 175.091Z" fill="#263238"/>
<path d="M216.345 175.091C216.196 175.09 216.05 175.05 215.921 174.976C215.791 174.902 215.683 174.796 215.606 174.668C215.529 174.541 215.486 174.395 215.482 174.246C215.477 174.097 215.51 173.949 215.579 173.816L221.759 162.207L217.059 97.0214C217.051 96.9068 217.065 96.7917 217.102 96.6828C217.138 96.5738 217.195 96.4731 217.271 96.3863C217.422 96.2112 217.637 96.1037 217.868 96.0875C218.099 96.0713 218.327 96.1477 218.502 96.2999C218.676 96.4522 218.784 96.6677 218.8 96.8992L223.518 162.399C223.52 162.562 223.484 162.724 223.413 162.871L217.181 174.619C217.103 174.771 216.982 174.897 216.833 174.981C216.685 175.065 216.515 175.103 216.345 175.091Z" fill="#263238"/>
<path d="M151.874 188.585H151.7C151.534 188.554 151.381 188.475 151.26 188.357C151.139 188.239 151.056 188.087 151.021 187.922L137.65 126.42C137.603 126.191 137.648 125.952 137.775 125.756C137.902 125.56 138.101 125.422 138.329 125.372C138.441 125.349 138.556 125.349 138.668 125.37C138.781 125.392 138.888 125.436 138.983 125.499C139.078 125.562 139.16 125.644 139.224 125.739C139.288 125.834 139.333 125.941 139.356 126.053L152.309 185.652L177.137 151.628C177.273 151.441 177.478 151.315 177.706 151.279C177.935 151.243 178.168 151.299 178.355 151.436C178.542 151.573 178.668 151.778 178.703 152.007C178.739 152.236 178.683 152.471 178.547 152.658L152.588 188.149C152.518 188.278 152.415 188.386 152.289 188.463C152.164 188.54 152.021 188.582 151.874 188.585Z" fill="#263238"/>
<path d="M151.874 188.585H151.77L144.701 187.8C144.521 187.778 144.352 187.701 144.218 187.579C144.084 187.457 143.991 187.296 143.952 187.119L129.014 118.511C128.99 118.397 128.989 118.279 129.011 118.163C129.032 118.048 129.076 117.939 129.14 117.841C129.204 117.742 129.286 117.658 129.383 117.592C129.479 117.526 129.588 117.479 129.702 117.455C129.816 117.431 129.934 117.43 130.049 117.452C130.164 117.473 130.273 117.517 130.371 117.581C130.469 117.645 130.553 117.728 130.619 117.825C130.685 117.921 130.731 118.03 130.755 118.145L145.572 186.124L152.013 186.84C152.244 186.84 152.466 186.931 152.629 187.095C152.792 187.259 152.884 187.481 152.884 187.712C152.884 187.944 152.792 188.166 152.629 188.33C152.466 188.493 152.244 188.585 152.013 188.585H151.874Z" fill="#263238"/>
<path d="M146.372 131.727C146.212 131.728 146.055 131.684 145.918 131.601C145.78 131.518 145.669 131.399 145.595 131.256C145.521 131.113 145.488 130.953 145.499 130.793C145.51 130.633 145.566 130.478 145.658 130.348L166.116 101.962C166.18 101.867 166.262 101.787 166.359 101.726C166.455 101.665 166.562 101.624 166.675 101.606C166.788 101.588 166.902 101.593 167.013 101.621C167.123 101.65 167.227 101.7 167.317 101.77C167.411 101.836 167.491 101.92 167.553 102.018C167.614 102.115 167.656 102.224 167.675 102.337C167.695 102.451 167.692 102.567 167.666 102.68C167.64 102.792 167.593 102.898 167.526 102.992L147.069 131.378C146.989 131.487 146.884 131.576 146.763 131.636C146.641 131.697 146.508 131.728 146.372 131.727Z" fill="#263238"/>
<path d="M147.939 145.134C147.759 145.133 147.584 145.078 147.435 144.977C147.251 144.838 147.128 144.633 147.093 144.405C147.057 144.177 147.111 143.944 147.243 143.755L167.683 115.369C167.749 115.274 167.833 115.194 167.931 115.132C168.028 115.071 168.137 115.03 168.251 115.012C168.365 114.994 168.481 114.999 168.593 115.028C168.705 115.056 168.81 115.107 168.902 115.177C169.084 115.313 169.206 115.515 169.242 115.74C169.278 115.965 169.224 116.196 169.093 116.382L148.653 144.767C148.573 144.882 148.466 144.976 148.342 145.04C148.218 145.104 148.079 145.136 147.939 145.134Z" fill="#263238"/>
<path d="M149.506 158.541C149.323 158.543 149.145 158.481 149.001 158.367C148.819 158.231 148.697 158.029 148.661 157.803C148.625 157.578 148.678 157.348 148.81 157.162L169.249 128.776C169.315 128.682 169.399 128.602 169.497 128.54C169.594 128.478 169.702 128.436 169.815 128.417C169.929 128.397 170.045 128.401 170.157 128.426C170.269 128.452 170.375 128.5 170.468 128.567C170.652 128.706 170.774 128.911 170.81 129.139C170.846 129.367 170.792 129.6 170.66 129.789L150.22 158.175C150.14 158.29 150.033 158.383 149.909 158.447C149.784 158.511 149.646 158.543 149.506 158.541Z" fill="#263238"/>
<path d="M151.021 171.948C150.838 171.951 150.659 171.89 150.516 171.774C150.422 171.708 150.342 171.624 150.28 171.526C150.219 171.429 150.177 171.32 150.158 171.207C150.138 171.093 150.142 170.977 150.167 170.864C150.193 170.752 150.24 170.646 150.307 170.552L170.765 142.166C170.9 141.983 171.102 141.861 171.326 141.825C171.551 141.789 171.78 141.843 171.966 141.974C172.06 142.04 172.14 142.125 172.202 142.222C172.263 142.319 172.305 142.428 172.324 142.542C172.344 142.655 172.34 142.772 172.315 142.884C172.289 142.996 172.242 143.102 172.175 143.196L151.718 171.582C151.638 171.693 151.534 171.785 151.413 171.848C151.292 171.912 151.158 171.946 151.021 171.948Z" fill="#263238"/>
<path d="M202.991 119.908C202.837 119.911 202.686 119.869 202.556 119.786L175.03 104.074C174.829 103.958 174.682 103.767 174.622 103.543C174.562 103.319 174.593 103.08 174.708 102.878C174.823 102.677 175.014 102.53 175.238 102.469C175.461 102.409 175.7 102.44 175.901 102.555L203.426 118.267C203.625 118.387 203.769 118.58 203.828 118.805C203.886 119.03 203.855 119.27 203.74 119.472C203.664 119.604 203.555 119.713 203.423 119.79C203.292 119.866 203.143 119.907 202.991 119.908Z" fill="#263238"/>
<path d="M202.991 132.512C202.84 132.513 202.69 132.477 202.556 132.408L175.03 116.696C174.919 116.646 174.82 116.573 174.739 116.481C174.658 116.39 174.597 116.283 174.56 116.167C174.522 116.05 174.51 115.928 174.523 115.806C174.536 115.685 174.575 115.567 174.636 115.462C174.697 115.356 174.78 115.265 174.879 115.193C174.977 115.122 175.09 115.072 175.209 115.046C175.328 115.021 175.451 115.021 175.571 115.047C175.69 115.072 175.802 115.123 175.901 115.195L203.426 130.906C203.624 131.023 203.768 131.213 203.826 131.435C203.885 131.657 203.854 131.894 203.74 132.093C203.662 132.222 203.552 132.328 203.42 132.402C203.289 132.475 203.141 132.513 202.991 132.512Z" fill="#263238"/>
<path d="M206.908 145.92C206.763 145.918 206.62 145.882 206.49 145.815L178.965 130.103C178.764 129.989 178.617 129.801 178.555 129.578C178.493 129.356 178.521 129.118 178.634 128.916C178.751 128.714 178.942 128.565 179.167 128.503C179.392 128.441 179.632 128.47 179.835 128.584L207.344 144.296C207.445 144.351 207.534 144.425 207.605 144.515C207.677 144.605 207.73 144.708 207.761 144.819C207.792 144.93 207.8 145.046 207.785 145.16C207.77 145.274 207.733 145.384 207.674 145.483C207.597 145.618 207.485 145.729 207.35 145.806C207.216 145.882 207.063 145.922 206.908 145.92Z" fill="#263238"/>
<path d="M207.709 159.327C207.555 159.33 207.404 159.287 207.274 159.205L179.748 143.493C179.649 143.436 179.561 143.359 179.491 143.268C179.421 143.177 179.37 143.073 179.34 142.962C179.31 142.851 179.302 142.735 179.317 142.621C179.332 142.507 179.369 142.397 179.426 142.297C179.483 142.197 179.559 142.11 179.65 142.04C179.741 141.97 179.845 141.918 179.956 141.888C180.066 141.858 180.182 141.85 180.296 141.865C180.409 141.88 180.519 141.917 180.619 141.974L208.144 157.686C208.308 157.783 208.435 157.931 208.507 158.108C208.578 158.284 208.59 158.479 208.541 158.663C208.492 158.847 208.384 159.01 208.233 159.126C208.083 159.243 207.899 159.307 207.709 159.309V159.327Z" fill="#263238"/>
<path d="M549.719 408.548C549.616 408.572 549.508 408.572 549.405 408.548L495.851 387.04C495.723 386.991 495.608 386.911 495.517 386.808C495.426 386.705 495.361 386.581 495.329 386.447C495.297 386.314 495.296 386.176 495.326 386.042C495.356 385.909 495.417 385.785 495.503 385.679L501.126 378.696C501.249 378.55 501.415 378.448 501.6 378.404C501.785 378.36 501.979 378.377 502.153 378.451L550.276 400.116L574.476 354.727C574.565 354.574 574.696 354.45 574.854 354.369C575.011 354.289 575.188 354.256 575.364 354.273L581.789 355.216C581.925 355.233 582.055 355.283 582.167 355.362C582.28 355.441 582.371 355.547 582.433 355.67C582.497 355.794 582.53 355.931 582.53 356.071C582.53 356.211 582.497 356.349 582.433 356.473L558.058 404.899C557.954 405.108 557.772 405.266 557.552 405.34C557.331 405.413 557.091 405.396 556.883 405.292C556.675 405.188 556.517 405.005 556.444 404.784C556.37 404.563 556.387 404.322 556.491 404.114L580.309 356.769L575.695 356.089L551.46 401.565C551.352 401.759 551.177 401.905 550.968 401.976C550.759 402.047 550.53 402.038 550.328 401.949L502.084 380.232L497.627 385.853L550.084 406.802C550.296 406.891 550.465 407.059 550.556 407.271C550.647 407.483 550.653 407.721 550.572 407.937C550.513 408.116 550.398 408.272 550.245 408.382C550.091 408.492 549.907 408.55 549.719 408.548Z" fill="#263238"/>
<path d="M550.694 402.071C550.503 402.075 550.315 402.016 550.161 401.902C550.007 401.788 549.894 401.627 549.841 401.443L529.836 327.79L491.168 310.56L503.076 375.065C503.117 375.291 503.067 375.525 502.936 375.715C502.806 375.905 502.606 376.035 502.38 376.077C502.154 376.118 501.921 376.068 501.732 375.937C501.542 375.806 501.413 375.605 501.37 375.379L489.183 309.251C489.149 309.095 489.16 308.934 489.216 308.785C489.271 308.636 489.369 308.507 489.496 308.413C489.619 308.313 489.767 308.25 489.923 308.228C490.08 308.207 490.239 308.228 490.384 308.29L530.933 326.376C531.05 326.428 531.155 326.504 531.239 326.601C531.323 326.697 531.385 326.811 531.421 326.935L551.46 400.971C551.515 401.196 551.482 401.432 551.369 401.634C551.256 401.835 551.07 401.985 550.851 402.054L550.694 402.071Z" fill="#263238"/>
<path d="M496.216 387.005C496.01 387.008 495.809 386.934 495.652 386.8C495.495 386.665 495.393 386.477 495.363 386.272L484.081 321.68C484.046 321.525 484.046 321.364 484.081 321.209L489.165 308.797C489.267 308.605 489.436 308.458 489.639 308.384C489.843 308.311 490.066 308.316 490.266 308.399C490.466 308.482 490.629 308.636 490.721 308.832C490.814 309.029 490.83 309.252 490.767 309.46L485.787 321.68L497.017 386.063C497.037 386.176 497.034 386.293 497.009 386.405C496.984 386.518 496.937 386.624 496.871 386.718C496.804 386.812 496.72 386.892 496.623 386.954C496.525 387.015 496.417 387.056 496.303 387.075L496.216 387.005Z" fill="#263238"/>
<path d="M572.352 349.961C572.167 349.959 571.986 349.9 571.837 349.79C571.687 349.68 571.575 349.527 571.517 349.35L552.644 291.357L531.368 327.616C531.248 327.81 531.057 327.95 530.836 328.005C530.614 328.06 530.38 328.025 530.183 327.908C529.987 327.791 529.844 327.602 529.786 327.381C529.727 327.159 529.758 326.924 529.871 326.725L552.121 288.808C552.206 288.661 552.333 288.543 552.484 288.468C552.636 288.394 552.807 288.366 552.975 288.389C553.14 288.407 553.297 288.473 553.427 288.578C553.557 288.683 553.653 288.824 553.706 288.982L573.171 348.809C573.208 348.918 573.224 349.033 573.216 349.148C573.208 349.263 573.178 349.375 573.126 349.478C573.074 349.58 573.001 349.671 572.913 349.746C572.825 349.82 572.723 349.875 572.613 349.909L572.352 349.961Z" fill="#263238"/>
<path d="M581.702 356.927C581.518 356.929 581.338 356.873 581.188 356.766C581.037 356.659 580.925 356.508 580.866 356.333L559.312 290.187H552.818C552.587 290.187 552.366 290.095 552.202 289.931C552.039 289.768 551.947 289.546 551.947 289.314C551.956 289.083 552.053 288.863 552.218 288.701C552.383 288.538 552.604 288.446 552.835 288.441H559.956C560.139 288.444 560.317 288.504 560.464 288.614C560.611 288.724 560.719 288.877 560.774 289.052L582.52 355.792C582.558 355.901 582.573 356.016 582.566 356.131C582.558 356.246 582.527 356.358 582.475 356.461C582.423 356.563 582.351 356.655 582.263 356.729C582.175 356.803 582.073 356.858 581.963 356.892L581.702 356.927Z" fill="#263238"/>
<path d="M546.515 376.357C546.361 376.36 546.21 376.317 546.08 376.234C545.882 376.117 545.738 375.929 545.676 375.708C545.615 375.486 545.641 375.25 545.749 375.047L563.159 344.741C563.276 344.544 563.464 344.399 563.685 344.337C563.905 344.275 564.141 344.301 564.343 344.41C564.542 344.53 564.687 344.722 564.748 344.946C564.81 345.17 564.783 345.409 564.674 345.614L547.177 375.92C547.109 376.04 547.013 376.142 546.898 376.218C546.783 376.294 546.652 376.341 546.515 376.357Z" fill="#263238"/>
<path d="M543.608 363.159C543.453 363.164 543.301 363.121 543.172 363.037C542.972 362.923 542.824 362.734 542.762 362.512C542.7 362.289 542.729 362.051 542.842 361.85L560.339 331.561C560.389 331.45 560.462 331.35 560.553 331.269C560.644 331.188 560.751 331.126 560.867 331.089C560.983 331.052 561.105 331.04 561.226 331.053C561.348 331.066 561.465 331.105 561.57 331.166C561.675 331.227 561.766 331.31 561.838 331.409C561.909 331.508 561.959 331.621 561.984 331.74C562.009 331.86 562.009 331.983 561.984 332.103C561.958 332.222 561.908 332.335 561.836 332.434L544.426 362.74C544.342 362.879 544.221 362.992 544.076 363.066C543.932 363.14 543.769 363.172 543.608 363.159Z" fill="#263238"/>
<path d="M540.683 349.996C540.529 349.997 540.378 349.955 540.247 349.874C540.148 349.818 540.06 349.742 539.99 349.652C539.92 349.561 539.869 349.457 539.84 349.347C539.811 349.236 539.804 349.121 539.82 349.007C539.836 348.894 539.875 348.785 539.934 348.687L557.431 318.381C557.558 318.206 557.745 318.085 557.956 318.04C558.167 317.995 558.387 318.031 558.573 318.139C558.759 318.248 558.899 318.422 558.964 318.628C559.03 318.834 559.017 319.057 558.929 319.254L541.518 349.56C541.434 349.704 541.311 349.821 541.163 349.898C541.015 349.975 540.849 350.009 540.683 349.996Z" fill="#263238"/>
<path d="M537.775 336.816C537.622 336.817 537.471 336.774 537.34 336.693C537.241 336.637 537.153 336.562 537.083 336.471C537.013 336.381 536.962 336.277 536.933 336.166C536.904 336.056 536.897 335.94 536.913 335.827C536.929 335.713 536.968 335.604 537.027 335.506L554.437 305.2C554.557 305.001 554.749 304.856 554.974 304.798C555.198 304.739 555.437 304.771 555.638 304.886C555.738 304.942 555.825 305.018 555.895 305.108C555.965 305.199 556.016 305.303 556.046 305.413C556.075 305.524 556.082 305.639 556.066 305.753C556.049 305.866 556.011 305.975 555.952 306.073L538.454 336.379C538.385 336.501 538.287 336.605 538.168 336.681C538.05 336.757 537.915 336.803 537.775 336.816Z" fill="#263238"/>
<path d="M537.828 376.444C537.706 376.441 537.587 376.412 537.479 376.356L508.508 363.455C508.403 363.41 508.308 363.344 508.228 363.261C508.149 363.178 508.087 363.08 508.047 362.972C508.006 362.865 507.987 362.75 507.992 362.635C507.996 362.52 508.024 362.407 508.073 362.303C508.119 362.198 508.184 362.102 508.267 362.022C508.349 361.942 508.447 361.879 508.553 361.837C508.66 361.794 508.774 361.774 508.889 361.776C509.004 361.778 509.117 361.803 509.222 361.849L538.176 374.768C538.407 374.814 538.61 374.95 538.74 375.147C538.871 375.343 538.918 375.584 538.872 375.815C538.826 376.047 538.69 376.25 538.494 376.381C538.298 376.512 538.058 376.56 537.828 376.514V376.444Z" fill="#263238"/>
<path d="M536.556 363.892C536.441 363.91 536.324 363.91 536.208 363.892L507.237 350.939C507.126 350.897 507.025 350.832 506.94 350.749C506.854 350.666 506.787 350.567 506.741 350.456C506.696 350.346 506.673 350.228 506.675 350.109C506.677 349.99 506.703 349.872 506.752 349.764C506.8 349.655 506.871 349.558 506.959 349.477C507.047 349.397 507.15 349.336 507.262 349.297C507.375 349.258 507.494 349.243 507.612 349.252C507.731 349.261 507.846 349.294 507.951 349.35L536.905 362.251C537.136 362.297 537.339 362.434 537.469 362.63C537.6 362.827 537.647 363.067 537.601 363.298C537.555 363.53 537.419 363.734 537.223 363.865C537.027 363.996 536.787 364.043 536.556 363.997V363.892Z" fill="#263238"/>
<path d="M531.299 350.939C531.178 350.936 531.058 350.907 530.95 350.851L501.98 337.95C501.874 337.905 501.779 337.839 501.7 337.756C501.62 337.673 501.558 337.575 501.518 337.467C501.477 337.359 501.459 337.245 501.463 337.13C501.468 337.015 501.495 336.902 501.544 336.798C501.59 336.692 501.656 336.597 501.738 336.517C501.82 336.437 501.918 336.374 502.025 336.331C502.131 336.289 502.246 336.269 502.36 336.271C502.475 336.273 502.588 336.298 502.693 336.344L531.647 349.263C531.752 349.308 531.848 349.374 531.928 349.457C532.007 349.54 532.07 349.637 532.112 349.744C532.154 349.852 532.175 349.966 532.173 350.081C532.171 350.196 532.146 350.31 532.1 350.415C532.03 350.57 531.917 350.701 531.775 350.794C531.633 350.887 531.468 350.937 531.299 350.939Z" fill="#263238"/>
<path d="M529.174 337.688C529.06 337.715 528.941 337.715 528.826 337.688L499.855 324.753C499.739 324.716 499.631 324.655 499.539 324.573C499.448 324.492 499.374 324.392 499.324 324.281C499.273 324.169 499.247 324.048 499.246 323.925C499.245 323.802 499.27 323.681 499.32 323.569C499.369 323.456 499.441 323.356 499.532 323.273C499.622 323.191 499.729 323.129 499.846 323.09C499.962 323.052 500.085 323.039 500.206 323.052C500.328 323.064 500.446 323.103 500.552 323.164L529.523 336.082C529.628 336.128 529.723 336.194 529.803 336.277C529.883 336.359 529.946 336.457 529.988 336.564C530.03 336.671 530.051 336.785 530.048 336.901C530.046 337.016 530.021 337.129 529.975 337.235C529.894 337.375 529.777 337.491 529.637 337.571C529.496 337.651 529.336 337.691 529.174 337.688Z" fill="#263238"/>
</svg>
