<svg xmlns="http://www.w3.org/2000/svg" width="583" height="409" fill="none"><path fill="#263238" d="M556.996 237.291c-.714 0-71.226-1.274-73.123-1.274-1.898 0-7.922 0-10.708-2.776-2.785-2.776-8.705-11.12-8.914-11.487a.952.952 0 01-.139-.716l18.281-76.463a.871.871 0 011.044-.646.861.861 0 01.645 1.048l-18.159 76.079c1.149 1.606 6.32 8.729 8.496 10.946 2.176 2.217 7.678 2.269 9.471 2.269 1.793 0 64.262 1.117 72.358 1.257l13.928-92.768a.881.881 0 01.992-.751.878.878 0 01.749.995l-14.015 93.537a.877.877 0 01-.308.551.867.867 0 01-.598.199zM498.515 131.22l-5.798-.104a.889.889 0 01-.87-.891.936.936 0 01.285-.593.936.936 0 01.603-.262l5.815.105a.871.871 0 010 1.745h-.035z"/><path fill="#263238" d="M468.761 223.378a.869.869 0 01-.871-.873.873.873 0 01.871-.873l76.17-.244 16.07-89.033-55.383-1.012a.874.874 0 01-.853-.873.975.975 0 01.888-.873l56.393 1.03a.855.855 0 01.367.092.91.91 0 01.486.938l-16.384 90.778a.85.85 0 01-.294.516.847.847 0 01-.559.2l-76.901.262v-.035z"/><path fill="#263238" d="M553.201 232.857l-73.733-1.885a.976.976 0 01-.627-.297l-6.302-6.983a.89.89 0 010-1.239.84.84 0 01.609-.257c.113 0 .226.022.33.067.105.044.2.108.279.19l6.059 6.668 72.601 1.868 13.163-79.972-5.415-7.629a.852.852 0 01-.045-.973.862.862 0 01.236-.249.862.862 0 01.653-.15.871.871 0 01.566.36l5.781 8.013a.898.898 0 01.139.663l-13.337 81.072a.87.87 0 01-.957.733z"/><path fill="#263238" d="M486.066 227.148h10.673s-1.741 8.485-2.664 16.498c-.923 8.013-1.34 18.295-1.34 18.295l-6.216-11.609-7.573 9.828 7.12-33.012zM36.27 244.78a.85.85 0 01-.8-.541.892.892 0 01.468-1.152l45.076-18.208a79.797 79.797 0 002.42-8.1c.209-1.222-.54-3.055-2.211-5.412-.644-.908-21.972-32.139-25.42-37.167L3.922 200.561a.858.858 0 01-.66.063.846.846 0 01-.507-.43.872.872 0 01.383-1.187L55.7 172.298a.883.883 0 011.114.279c.262.366 25.159 36.835 25.82 37.778 1.271 1.745 2.908 4.416 2.525 6.703s-2.525 8.502-2.612 8.729a.903.903 0 01-.505.541L36.6 244.676a.805.805 0 01-.33.104zM25.457 245.217a.865.865 0 01-.714-.384l-2.054-3.003a.881.881 0 01.226-1.222.872.872 0 011.219.227l2.054 3.02a.894.894 0 01-.226 1.205.909.909 0 01-.505.157z"/><path fill="#263238" d="M20.896 238.531a.865.865 0 01-.714-.384l-19.9-29.172a.872.872 0 01-.122-.715.89.89 0 01.47-.559l52.005-24.44a.853.853 0 011.08.279l27.978 39.157a.893.893 0 01-.192 1.222.872.872 0 01-.972.027.87.87 0 01-.246-.237l-27.561-38.615-50.49 23.742 19.325 28.333a.876.876 0 01-.243 1.205.822.822 0 01-.418.157z"/><path fill="#263238" d="M79.638 221.545h-.174a.891.891 0 01-.679-1.03l1.184-5.377-25.053-37.411-44.92 22.048-1.862 5.517a.888.888 0 01-1.114.541.87.87 0 01-.54-1.1l1.985-5.865a.892.892 0 01.435-.507l45.998-22.537a.868.868 0 011.115.297l25.732 38.406a.82.82 0 01.14.663l-1.254 5.744a.875.875 0 01-.993.611z"/><path fill="#263238" d="M77.08 212.642l-3.866-5.447s4.945-2.165 9.35-4.626c4.404-2.462 9.767-5.936 9.767-5.936l-3.64 7.385 7.714.296-19.326 8.328zM63.412 379.272h-.104a.92.92 0 01-.662-.471L30.786 317.7a.928.928 0 010-.681.887.887 0 01.434-.506l3.604-1.746a.869.869 0 011.112.412.874.874 0 01-.328 1.142l-2.803 1.414 30.868 59.233 52.528-56.108a.786.786 0 01.365-.227l64.018-19.814-31.669-50.627-2.333.175a.861.861 0 01-.642-.2.845.845 0 01-.299-.603.875.875 0 01.801-.925l2.873-.227a.828.828 0 01.801.401l32.54 52.075a.883.883 0 010 .769.922.922 0 01-.557.541l-64.889 20.058-53.154 56.771a.901.901 0 01-.644.245z"/><path fill="#263238" d="M64.108 370.945h-.139a.858.858 0 01-.61-.454l-30.468-58.325a.858.858 0 01.227-1.083c.14-.122 14.45-11.871 21.206-28.141 6.233-15.013 16.957-22.467 28.692-19.954a.854.854 0 01.575.437l28.396 51.377a.87.87 0 01-.066.949.867.867 0 01-.892.325c-.47-.104-11.665-2.426-14.19 8.38-2.715 11.557-14.606 26.43-20.317 33.57l-.627.803A104.36 104.36 0 0164.7 370.735a.89.89 0 01-.592.21zm-29.371-58.989l29.598 56.702a103.713 103.713 0 0010.167-10.946l.627-.803c5.641-6.983 17.41-21.7 19.97-32.872 2.28-9.706 10.759-10.195 14.485-9.916L82.25 264.595c-10.69-2.078-20.51 4.992-26.342 19.011-6.163 14.838-18.438 25.994-21.171 28.35z"/><path fill="#263238" d="M111.203 316.024a.87.87 0 01-.766-.436l-28.396-51.395a.996.996 0 010-.593c2.054-9.602 12.57-13.966 34.09-13.966 18.785 0 26.394-5.988 26.463-6.041a.91.91 0 01.697-.192.904.904 0 01.592.402l31.861 52.075a.893.893 0 01-.261 1.187c-.088 0-2.333 1.502-15.461 5.657-9.106 2.897-19.151 2.496-27.247 2.182a85.257 85.257 0 00-9.645 0c-7.626.628-10.986 10.474-11.021 10.474a.873.873 0 01-.749.594l-.157.052zM83.73 263.652l27.352 49.509c1.427-3.142 5.118-9.41 11.821-9.968a88.989 88.989 0 019.854 0c7.94.314 17.829.698 26.656-2.095a136.664 136.664 0 0014.259-5.063l-30.869-50.486c-2.437 1.588-10.533 5.865-26.76 5.865-20.3.018-30.294 3.858-32.313 12.238zM86.272 350.101a.874.874 0 01-.54-.175.89.89 0 01-.14-1.239c3.36-4.225 6.025-7.961 8.375-11.26a63.495 63.495 0 019.053-11.068 42.566 42.566 0 019.924-6.39.851.851 0 011.132.454.892.892 0 01-.453 1.152 41.339 41.339 0 00-9.471 6.11 61.364 61.364 0 00-8.705 10.772 317.117 317.117 0 01-8.444 11.329.864.864 0 01-.731.315z"/><path fill="#263238" d="M118.812 317.473a.78.78 0 01-.522-.192.874.874 0 01-.157-1.222 20.476 20.476 0 0113.075-7.28l3.117-.244a120.797 120.797 0 0038.894-8.729.877.877 0 011.114 1.179.88.88 0 01-.487.462 123.339 123.339 0 01-39.382 8.834l-3.099.244a18.806 18.806 0 00-11.857 6.616.925.925 0 01-.696.332zM44.034 320.249a.867.867 0 01-.802-.521.876.876 0 01.158-.946 235.873 235.873 0 0016.54-21.437c9.837-14.071 17.062-19.815 24.95-19.815a.868.868 0 01.87.873.872.872 0 01-.87.873c-7.244 0-14.068 5.534-23.522 19.081a242.873 242.873 0 01-16.68 21.612.869.869 0 01-.644.28zM49.57 329.274a.865.865 0 01-.591-.227.865.865 0 01-.256-.611.855.855 0 01.256-.611c5.913-6.837 11.44-14 16.557-21.455 9.82-14.071 17.045-19.814 24.949-19.814a.89.89 0 01.87.873.875.875 0 01-.87.873c-7.26 0-14.067 5.534-23.539 19.081a243.037 243.037 0 01-16.679 21.612.873.873 0 01-.696.279zM55.107 338.299a.871.871 0 01-.85-1.003.875.875 0 01.206-.446 243.934 243.934 0 0016.557-21.437c9.82-14.088 17.045-19.832 24.95-19.832a.888.888 0 01.87.873.871.871 0 01-.87.873c-7.26 0-14.068 5.534-23.522 19.081a244.89 244.89 0 01-16.696 21.612.847.847 0 01-.645.279zM60.644 347.325a.801.801 0 01-.575-.227.86.86 0 010-1.222 239.957 239.957 0 0016.558-21.438c9.819-14.088 17.044-19.814 24.949-19.814a.876.876 0 01.615 1.49.866.866 0 01-.615.256c-7.26 0-14.068 5.517-23.522 19.063a237.506 237.506 0 01-16.696 21.613.849.849 0 01-.714.279zM94.577 275.121h-.296a.888.888 0 01-.523-1.117c0-.087 3.117-8.222 13.929-8.222 20.283 0 33.445-3.143 35.186-8.432a.916.916 0 011.149-.594.923.923 0 01.632.797.907.907 0 01-.04.355c-2.768 8.38-24.27 9.619-36.84 9.619-9.61 0-12.188 6.774-12.344 7.071a.868.868 0 01-.853.523zM100.809 285.526a.902.902 0 01-.539-.175.87.87 0 01-.14-1.222c.209-.279 5.224-6.598 18.682-6.598 14.468 0 25.21-3.405 31.948-10.161a.868.868 0 011.409.956.88.88 0 01-.19.284c-7.052 7.087-18.212 10.754-33.167 10.754-12.501 0-17.271 5.865-17.306 5.918a.871.871 0 01-.697.244zM104.971 295.948a.945.945 0 01-.366-.087.855.855 0 01-.418-1.152 18.113 18.113 0 016.99-7.177 18.05 18.05 0 019.724-2.355c14.555 0 27.3-3.055 34.107-8.153a.864.864 0 01.647-.173.86.86 0 01.572.348.89.89 0 01-.174 1.222c-10.22 7.664-27.996 8.502-35.152 8.502a16.364 16.364 0 00-8.79 2.084 16.422 16.422 0 00-6.357 6.435.854.854 0 01-.783.506zM109.81 303.577a.621.621 0 01-.243 0 .893.893 0 01-.592-1.083c.104-.314 2.402-7.541 14.642-8.257a115.022 115.022 0 0037.101-8.257.865.865 0 01.707-.074.882.882 0 01.525.479.866.866 0 01-.219 1.004.858.858 0 01-.316.179 115.916 115.916 0 01-37.694 8.415c-10.951.646-12.988 6.756-13.075 6.983a.874.874 0 01-.836.611zM446.997 99.692a.892.892 0 01-.644-.401l-24.514-39.75-46.869-25.61a.84.84 0 01-.452-.664.877.877 0 01.278-.75L409.826.692a.871.871 0 01.97-.139.85.85 0 01.266.209l1.828 2.095a.875.875 0 01-.731 1.36.868.868 0 01-.574-.226l-1.237-1.414-33.48 30.41 45.946 25.122c.13.082.243.188.331.314l24.044 38.983 27.769-29.538-.47-1.362a.888.888 0 01.245-.944.875.875 0 011.409.368l.644 1.868a.882.882 0 01.03.472.881.881 0 01-.221.418l-28.919 30.743a.883.883 0 01-.679.261z"/><path fill="#263238" d="M425.582 54.984a1.002 1.002 0 01-.313 0 .892.892 0 01-.557-.785c0-.315-.401-7.978-7.73-7.752-8.253.175-20.179-5.237-25.924-7.768l-.627-.28a72.856 72.856 0 01-9.889-5.411.868.868 0 01-.383-.663.879.879 0 01.296-.716L413.917 1.11a.889.889 0 011.115 0 56.117 56.117 0 0022.215 9.217c11.178 1.589 18.072 7.56 18.438 15.956a.884.884 0 01-.261.664l-29.18 27.931a.904.904 0 01-.662.105zm-8.339-10.352a8.845 8.845 0 015.931 2.134 8.892 8.892 0 013.018 5.547L453.961 25.9c-.522-7.384-6.668-12.43-16.923-13.966a56.255 56.255 0 01-22.424-9.13L382.457 32.08a70.498 70.498 0 008.705 4.661l.627.28c5.641 2.53 17.41 7.82 25.175 7.61h.279z"/><path fill="#263238" d="M449.069 94.316a.941.941 0 01-.592-.21c-.139-.14-1.514-1.466-6.476-9.392-3.482-5.621-5.015-12.43-6.198-17.894a62.474 62.474 0 00-1.62-6.407c-1.741-4.818-8.583-5.342-8.705-5.359a.867.867 0 01-.766-.559.91.91 0 01.226-.942l29.18-27.845a.834.834 0 01.557-.227c6.843-.332 11.631 6.023 15.391 20.547 3.238 12.483 8.444 16.41 8.496 16.445a.908.908 0 01.366.629.895.895 0 01-.244.68l-28.988 30.184a.894.894 0 01-.627.35zM427.48 53.588c2.507.54 6.877 2.042 8.34 6.25a57.103 57.103 0 011.741 6.598c1.166 5.342 2.629 11.976 5.989 17.353a99.843 99.843 0 005.624 8.362l27.734-28.927c-1.654-1.589-5.693-6.354-8.409-16.759-3.395-13.11-7.626-19.203-13.284-19.203L427.48 53.588zM422.257 57.323a.885.885 0 01-.679-.331 27.858 27.858 0 00-5.641-5.237 43.107 43.107 0 00-8.6-3.963c-2.612-.995-5.572-2.13-9.001-3.666a.874.874 0 01-.436-1.152.858.858 0 01.819-.518.849.849 0 01.33.081c3.378 1.501 6.32 2.636 8.897 3.631a43.473 43.473 0 018.984 4.155 30.618 30.618 0 016.024 5.551.895.895 0 01-.157 1.24.869.869 0 01-.54.21z"/><path fill="#263238" d="M446.057 94.036a.885.885 0 01-.713-.366 85.435 85.435 0 01-12.71-24.807c-.244-.734-.487-1.414-.696-2.025a12.868 12.868 0 00-6.303-6.617.871.871 0 01-.323-1.479.864.864 0 011.02-.11 14.297 14.297 0 017.242 7.612c.227.629.453 1.31.697 2.043a84.137 84.137 0 0012.5 24.44.838.838 0 01.139.308.853.853 0 01-.348.896.78.78 0 01-.505.105zM445.448 31.05a.868.868 0 01-.836-.663c-1.236-4.731-6.024-8.275-16.557-12.22a165.231 165.231 0 01-17.271-7.402.865.865 0 01-.467-.514.861.861 0 01.056-.694.863.863 0 01.543-.432.87.87 0 01.686.103 168.647 168.647 0 0017.045 7.315c11.143 4.137 16.261 8.03 17.654 13.39a.87.87 0 01-.627 1.065l-.226.052zM440.416 36.305a.87.87 0 01-.835-.646c-1.236-4.748-6.024-8.275-16.558-12.22a167.129 167.129 0 01-17.271-7.42.878.878 0 01-.467-.514.861.861 0 01.056-.693.863.863 0 01.544-.432.865.865 0 01.686.103 163.156 163.156 0 0017.062 7.315c11.125 4.155 16.244 8.03 17.637 13.39a.86.86 0 01-.627 1.064.523.523 0 01-.227.053zM435.385 41.56a.87.87 0 01-.836-.646c-1.236-4.749-6.024-8.275-16.557-12.22a165.231 165.231 0 01-17.271-7.402.866.866 0 01-.428-.518.874.874 0 01.062-.67.878.878 0 011.184-.366 163.248 163.248 0 0017.062 7.314c11.126 4.155 16.244 8.03 17.637 13.408a.87.87 0 01-.627 1.065l-.226.035zM430.353 46.832a.868.868 0 01-.836-.664c-1.236-4.73-6.024-8.275-16.557-12.22a165.189 165.189 0 01-17.271-7.402.89.89 0 01-.366-1.187.907.907 0 011.184-.367 158.82 158.82 0 0017.062 7.315c11.126 4.155 16.244 8.048 17.637 13.407a.87.87 0 01-.627 1.065l-.226.053zM469.474 66.716c-5.902-.402-10.342-12.797-13.023-23.114-1.619-6.215-6.389-6.79-6.598-6.808a.87.87 0 01-.453-1.541c.175-.147.4-.22.627-.205.261 0 6.181.663 8.113 8.1 3.482 13.425 7.765 21.577 11.439 21.822a.87.87 0 01.522 1.522.887.887 0 01-.627.224zM463.886 73.594a.833.833 0 01-.453-.122c-5.989-3.492-10.342-10.475-12.954-20.443-2.124-8.188-6.72-10.335-6.772-10.352a.872.872 0 01-.362-1.108.872.872 0 011.058-.48c.227 0 5.415 2.408 7.765 11.504 2.49 9.584 6.581 16.095 12.188 19.377a.876.876 0 01.313 1.187.886.886 0 01-.783.437zM458.14 78.045a.785.785 0 01-.54-.192c-6.964-5.534-10.568-17.3-11.821-22.118a11.115 11.115 0 00-2.84-5.355 11.06 11.06 0 00-5.221-3.06.873.873 0 01-.336-1.575.884.884 0 01.649-.153 12.79 12.79 0 016.101 3.502 12.845 12.845 0 013.336 6.204c2.507 9.654 6.703 17.58 11.212 21.194a.883.883 0 01.329.59.887.887 0 01-.029.344.885.885 0 01-.463.543.836.836 0 01-.377.076zM453.108 83.317a.901.901 0 01-.679-.331 80.886 80.886 0 01-12.187-23.777c-2.263-6.983-6.494-7.315-6.668-7.315a.89.89 0 01-.836-.925.798.798 0 01.906-.82c.226 0 5.606.296 8.252 8.519a80.61 80.61 0 0011.874 23.235.873.873 0 01-.157 1.222.884.884 0 01-.505.192zM136.153 120.694h-.209l-6.303-1.572a.876.876 0 01-.593-.521.879.879 0 01.071-.788l29.093-45.738a.874.874 0 011.595.28.878.878 0 01-.116.663l-28.448 44.708 4.527 1.135 28.744-42.858a.886.886 0 011.167-.28l45.806 26.483 4.98-4.993-50.055-26.186a.872.872 0 01-.375-1.178.875.875 0 011.176-.375l51.117 26.814a.841.841 0 01.452.646.846.846 0 01-.243.733l-6.286 6.32a.871.871 0 01-1.044.14l-45.703-26.413-28.64 42.7a.861.861 0 01-.713.28z"/><path fill="#263238" d="M216.345 175.091a.882.882 0 01-.418-.105l-38.529-22.084a.866.866 0 01-.285-.257.88.88 0 01-.151-.354l-12.587-75.695a.888.888 0 01.731-1.012.87.87 0 01.992.733l12.518 75.276 36.823 21.054-5.379-65.378a.905.905 0 01.8-.943.883.883 0 01.637.206.862.862 0 01.304.597l5.379 67.019a.84.84 0 01-.4.803.747.747 0 01-.435.14z"/><path fill="#263238" d="M216.345 175.091a.864.864 0 01-.739-.423.87.87 0 01-.027-.852l6.18-11.609-4.7-65.186a.865.865 0 01.212-.635.868.868 0 011.231-.086.878.878 0 01.298.6l4.718 65.499c.002.163-.034.325-.105.472l-6.232 11.748a.873.873 0 01-.836.472zM151.874 188.585h-.174a.854.854 0 01-.679-.663L137.65 126.42a.892.892 0 01.679-1.048.879.879 0 01.654.127.874.874 0 01.373.554l12.953 59.599 24.828-34.024a.873.873 0 011.218-.192.877.877 0 01.192 1.222l-25.959 35.491a.834.834 0 01-.714.436z"/><path fill="#263238" d="M151.874 188.585h-.104l-7.069-.785a.875.875 0 01-.749-.681l-14.938-68.608a.886.886 0 01.126-.67.888.888 0 011.615.304l14.817 67.979 6.441.716a.868.868 0 01.871.872.872.872 0 01-.871.873h-.139zM146.372 131.727a.866.866 0 01-.777-.471.876.876 0 01.063-.908l20.458-28.386a.832.832 0 011.201-.192.872.872 0 01.209 1.222l-20.457 28.386a.848.848 0 01-.697.349zM147.939 145.134a.907.907 0 01-.504-.157.892.892 0 01-.192-1.222l20.44-28.386a.862.862 0 01.568-.357.852.852 0 01.651.165.875.875 0 01.191 1.205l-20.44 28.385a.86.86 0 01-.714.367zM149.506 158.541a.8.8 0 01-.505-.174.875.875 0 01-.191-1.205l20.439-28.386a.872.872 0 011.219-.209.89.89 0 01.192 1.222l-20.44 28.386a.857.857 0 01-.714.366zM151.021 171.948a.781.781 0 01-.505-.174.872.872 0 01-.209-1.222l20.458-28.386a.868.868 0 011.437.056.871.871 0 01.113.662.879.879 0 01-.14.312l-20.457 28.386a.877.877 0 01-.697.366zM202.991 119.908a.779.779 0 01-.435-.122l-27.526-15.712a.875.875 0 01-.322-1.196.875.875 0 011.193-.323l27.525 15.712a.892.892 0 01.314 1.205.87.87 0 01-.749.436zM202.991 132.512a.94.94 0 01-.435-.104l-27.526-15.712a.87.87 0 01-.394-1.234.869.869 0 011.265-.267l27.525 15.711a.874.874 0 01.314 1.187.87.87 0 01-.749.419zM206.908 145.92a.94.94 0 01-.418-.105l-27.525-15.712a.87.87 0 01.202-1.6.884.884 0 01.668.081l27.509 15.712a.848.848 0 01.417.523.854.854 0 01-.087.664.866.866 0 01-.766.437zM207.709 159.327a.787.787 0 01-.435-.122l-27.526-15.712a.879.879 0 01-.322-1.196.863.863 0 01.53-.409.865.865 0 01.663.086l27.525 15.712a.87.87 0 01.397.977.864.864 0 01-.308.463.866.866 0 01-.524.183v.018zM549.719 408.548a.694.694 0 01-.314 0l-53.554-21.508a.854.854 0 01-.525-.998.886.886 0 01.177-.363l5.623-6.983a.888.888 0 011.027-.245l48.123 21.665 24.2-45.389a.925.925 0 01.888-.454l6.425.943a.836.836 0 01.644.454.872.872 0 010 .803l-24.375 48.426a.877.877 0 01-1.175.393.876.876 0 01-.392-1.178l23.818-47.345-4.614-.68-24.235 45.476a.89.89 0 01-1.132.384l-48.244-21.717-4.457 5.621 52.457 20.949a.892.892 0 01.488 1.135.894.894 0 01-.853.611z"/><path fill="#263238" d="M550.694 402.071a.866.866 0 01-.853-.628l-20.005-73.653-38.668-17.23 11.908 64.505a.872.872 0 01-.696 1.012.866.866 0 01-.648-.14.875.875 0 01-.362-.558l-12.187-66.128a.823.823 0 01.313-.838.868.868 0 01.888-.123l40.549 18.086a.872.872 0 01.488.559l20.039 74.036a.912.912 0 01-.609 1.083l-.157.017z"/><path fill="#263238" d="M496.216 387.005a.852.852 0 01-.853-.733l-11.282-64.592a1.07 1.07 0 010-.471l5.084-12.412a.87.87 0 011.556.035c.093.197.109.42.046.628l-4.98 12.22 11.23 64.383a.875.875 0 01-.714 1.012l-.087-.07zM572.352 349.961a.884.884 0 01-.835-.611l-18.873-57.993-21.276 36.259a.868.868 0 01-1.582-.235.873.873 0 01.085-.656l22.25-37.917a.857.857 0 01.854-.419.87.87 0 01.731.593l19.465 59.827a.867.867 0 01-.045.669.86.86 0 01-.513.431l-.261.052z"/><path fill="#263238" d="M581.702 356.927a.868.868 0 01-.836-.594l-21.554-66.146h-6.494a.87.87 0 01-.871-.873.91.91 0 01.888-.873h7.121a.872.872 0 01.818.611l21.746 66.74a.868.868 0 01-.045.669.862.862 0 01-.512.431l-.261.035zM546.515 376.357a.78.78 0 01-.435-.123.889.889 0 01-.331-1.187l17.41-30.306a.892.892 0 01.526-.404.882.882 0 01.658.073.907.907 0 01.331 1.204l-17.497 30.306a.875.875 0 01-.662.437zM543.608 363.159a.754.754 0 01-.436-.122.877.877 0 01-.33-1.187l17.497-30.289a.87.87 0 011.645.179.883.883 0 01-.148.694l-17.41 30.306a.872.872 0 01-.818.419zM540.683 349.996a.818.818 0 01-.436-.122.86.86 0 01-.313-1.187l17.497-30.306a.873.873 0 011.142-.242.878.878 0 01.356 1.115l-17.411 30.306a.882.882 0 01-.835.436zM537.775 336.816a.818.818 0 01-.435-.123.854.854 0 01-.313-1.187l17.41-30.306a.886.886 0 011.458-.092.866.866 0 01.057.965l-17.498 30.306a.862.862 0 01-.679.437zM537.828 376.444a.798.798 0 01-.349-.088l-28.971-12.901a.86.86 0 01-.461-.483.849.849 0 01.026-.669.879.879 0 01.816-.527.867.867 0 01.333.073l28.954 12.919a.89.89 0 01-.348 1.746v-.07zM536.556 363.892a1.128 1.128 0 01-.348 0l-28.971-12.953a.866.866 0 01-.562-.83.872.872 0 011.276-.759l28.954 12.901a.891.891 0 01-.349 1.746v-.105zM531.299 350.939a.802.802 0 01-.349-.088l-28.97-12.901a.839.839 0 01-.462-.483.862.862 0 01.026-.669.884.884 0 01.481-.467.872.872 0 01.668.013l28.954 12.919a.863.863 0 01.465.481.886.886 0 01-.012.671.892.892 0 01-.801.524zM529.174 337.688a.758.758 0 01-.348 0l-28.971-12.935a.874.874 0 01.351-1.701c.122.012.24.051.346.112l28.971 12.918a.878.878 0 01.452 1.153.904.904 0 01-.801.453z"/></svg>