<svg viewBox="0 0 462 432" fill="none" xmlns="http://www.w3.org/2000/svg">
<g clip-path="url(#clip0)">
<path opacity="0.5" fill-rule="evenodd" clip-rule="evenodd" d="M436.02 171.891C455.703 216.293 470.996 265.756 457.488 312.402C443.45 360.879 410.624 410.16 362.572 425.523C316.005 440.411 273.539 390.836 224.814 386.791C178.65 382.958 132.639 421.529 90.2131 402.911C44.7978 382.98 2.58524 338.08 0.833879 288.499C-0.917421 238.92 63.3261 214.101 81.9194 168.117C99.9198 123.6 71.2435 63.1707 105.531 29.5679C139.844 -4.06049 197.401 -0.433082 244.565 8.71916C287.785 17.1062 319.92 49.1094 353.437 77.675C386.017 105.442 418.67 132.75 436.02 171.891Z" fill="#FC8181"/>
<path opacity="0.2" d="M410.726 34.8767H284.216C280.443 34.8767 277.384 37.9356 277.384 41.709V45.181C277.384 48.9544 280.443 52.0133 284.216 52.0133H410.726C414.499 52.0133 417.558 48.9544 417.558 45.181V41.709C417.558 37.9356 414.499 34.8767 410.726 34.8767Z" stroke="#1A202C" stroke-linejoin="round"/>
<path opacity="0.2" d="M395.944 38.8326V46.8471" stroke="#1A202C" stroke-width="0.5" stroke-linejoin="round"/>
<path opacity="0.2" d="M389.717 38.9072L382.205 46.419" stroke="#1A202C" stroke-linejoin="round"/>
<path opacity="0.2" d="M382.205 38.9072L389.717 46.419" stroke="#1A202C" stroke-linejoin="round"/>
<path opacity="0.2" d="M409.069 46.6331C409.015 46.7024 408.947 46.7597 408.87 46.8014C408.792 46.8431 408.707 46.8682 408.62 46.8752C408.532 46.8822 408.444 46.871 408.361 46.8421C408.278 46.8132 408.202 46.7674 408.138 46.7075L405.057 43.915L405.643 43.2169L408.948 45.7488C409.081 45.8503 409.168 46.0003 409.191 46.166C409.213 46.3317 409.169 46.4996 409.069 46.6331Z" fill="#1A202C" stroke="#1A202C" stroke-linejoin="round"/>
<path opacity="0.2" d="M401.157 40.0614C400.792 40.5047 400.567 41.046 400.51 41.6171C400.452 42.1882 400.566 42.7635 400.835 43.2702C401.105 43.777 401.518 44.1926 402.024 44.4644C402.529 44.7363 403.104 44.8523 403.675 44.7977C404.247 44.7432 404.789 44.5206 405.234 44.158C405.679 43.7954 406.006 43.3091 406.175 42.7605C406.344 42.2119 406.346 41.6256 406.182 41.0756C406.018 40.5257 405.694 40.0367 405.252 39.6705C404.959 39.4254 404.619 39.241 404.254 39.128C403.888 39.0149 403.504 38.9754 403.123 39.0118C402.742 39.0481 402.372 39.1596 402.035 39.3398C401.697 39.5199 401.399 39.7652 401.157 40.0614V40.0614ZM405.318 43.4962C405.005 43.8752 404.586 44.1528 404.116 44.2941C403.645 44.4354 403.143 44.4339 402.673 44.2899C402.203 44.1459 401.786 43.8657 401.476 43.485C401.165 43.1042 400.974 42.6398 400.927 42.1506C400.88 41.6613 400.98 41.1692 401.212 40.7363C401.445 40.3035 401.801 39.9494 402.235 39.7188C402.669 39.4883 403.162 39.3916 403.651 39.4409C404.14 39.4903 404.603 39.6836 404.982 39.9963C405.234 40.204 405.443 40.4594 405.596 40.7477C405.749 41.0361 405.844 41.3518 405.875 41.6768C405.906 42.0018 405.873 42.3298 405.777 42.642C405.682 42.9542 405.525 43.2444 405.318 43.4962V43.4962Z" stroke="#1A202C" stroke-linejoin="round"/>
<path d="M147.878 65.864C147.594 66.2076 147.243 66.4907 146.848 66.6966C146.453 66.9024 146.02 67.0268 145.575 67.0624C145.131 67.098 144.684 67.044 144.261 66.9037C143.838 66.7634 143.447 66.5397 143.112 66.2457L128.07 52.5625C128.698 52.0191 129.28 51.4244 129.81 50.7846C130.343 50.153 130.817 49.4737 131.225 48.7554L147.356 61.1075C147.709 61.3814 148.002 61.7233 148.22 62.1129C148.438 62.5025 148.575 62.9318 148.624 63.3754C148.672 63.8191 148.631 64.268 148.503 64.6954C148.375 65.1229 148.162 65.5203 147.878 65.864V65.864Z" stroke="#718096" stroke-linejoin="round"/>
<path d="M127.725 29.3103C129.562 30.7752 131.026 32.6539 131.998 34.7929C132.993 37.025 133.439 39.4631 133.298 41.9031C133.157 44.343 132.433 46.7136 131.188 48.8163C129.942 50.919 128.211 52.6925 126.138 53.9883C124.066 55.2841 121.714 56.0644 119.278 56.2639C116.842 56.4633 114.394 56.0761 112.139 55.1346C109.883 54.1931 107.886 52.7249 106.315 50.8528C104.744 48.9807 103.644 46.7594 103.109 44.3749C102.573 41.9904 102.616 39.5122 103.235 37.1479C103.875 34.6605 105.136 32.3762 106.899 30.5083C108.662 28.6405 110.87 27.2501 113.316 26.4672C115.762 25.6844 118.367 25.5345 120.887 26.0317C123.407 26.5289 125.76 27.6569 127.725 29.3103V29.3103ZM128.07 49.379C126.418 51.372 124.213 52.8307 121.733 53.5706C119.252 54.3104 116.608 54.2982 114.135 53.5355C111.662 52.7728 109.47 51.2938 107.837 49.2856C106.204 47.2774 105.204 44.8301 104.962 42.2532C104.72 39.6763 105.247 37.0854 106.477 34.8082C107.708 32.5311 109.585 30.6698 111.873 29.4598C114.162 28.2498 116.757 27.7454 119.332 28.0104C121.906 28.2754 124.345 29.2979 126.338 30.9485C127.663 32.0441 128.759 33.3903 129.564 34.9099C130.368 36.4296 130.865 38.0929 131.026 39.8047C131.186 41.5166 131.008 43.2433 130.501 44.8862C129.994 46.5291 129.167 48.0558 128.07 49.379Z" stroke="#718096" stroke-linejoin="round"/>
<path d="M368.643 403.02C368.398 402.757 368.208 402.448 368.086 402.111C367.963 401.774 367.909 401.415 367.927 401.057C367.945 400.698 368.035 400.347 368.192 400.024C368.348 399.701 368.568 399.412 368.838 399.176L381.339 388.592C381.706 389.151 382.12 389.678 382.577 390.165C383.026 390.658 383.518 391.11 384.048 391.515L372.496 403.113C372.241 403.367 371.937 403.566 371.602 403.699C371.268 403.833 370.91 403.897 370.55 403.888C370.19 403.879 369.835 403.798 369.508 403.649C369.18 403.5 368.886 403.286 368.643 403.02V403.02Z" stroke="#718096" stroke-linejoin="round"/>
<path d="M399.956 390.77C398.585 392.065 396.931 393.021 395.125 393.563C392.16 394.484 388.96 394.28 386.136 392.99C383.312 391.701 381.062 389.415 379.817 386.571C378.572 383.727 378.419 380.524 379.387 377.575C380.355 374.625 382.375 372.135 385.063 370.581C387.751 369.028 390.917 368.519 393.956 369.153C396.995 369.787 399.694 371.518 401.537 374.016C403.38 376.515 404.238 379.605 403.946 382.695C403.654 385.786 402.234 388.661 399.956 390.77ZM383.88 388.965C382.459 387.437 381.523 385.522 381.19 383.462C380.858 381.402 381.144 379.29 382.012 377.393C382.88 375.495 384.292 373.898 386.068 372.803C387.844 371.709 389.905 371.165 391.991 371.242C394.076 371.319 396.091 372.013 397.782 373.235C399.473 374.458 400.763 376.155 401.489 378.111C402.215 380.067 402.345 382.195 401.861 384.224C401.378 386.254 400.303 388.095 398.774 389.514C397.76 390.456 396.57 391.189 395.273 391.671C393.976 392.153 392.596 392.375 391.213 392.324C389.83 392.273 388.471 391.95 387.213 391.374C385.954 390.797 384.822 389.979 383.88 388.965V388.965Z" stroke="#718096" stroke-linejoin="round"/>
<g opacity="0.2">
<path opacity="0.2" d="M87.802 368.337L66.4487 389.7" stroke="#1A202C" stroke-linejoin="round"/>
<path opacity="0.2" d="M66.4487 368.337L87.802 389.7" stroke="#1A202C" stroke-linejoin="round"/>
</g>
<g opacity="0.2">
<path opacity="0.2" d="M444.31 167.278L422.957 188.641" stroke="#1A202C" stroke-linejoin="round"/>
<path opacity="0.2" d="M422.957 167.278L444.31 188.641" stroke="#1A202C" stroke-linejoin="round"/>
</g>
<g opacity="0.2">
<path opacity="0.2" d="M54.292 45.3392L32.9387 66.7018" stroke="#1A202C" stroke-linejoin="round"/>
<path opacity="0.2" d="M32.9387 45.3392L54.292 66.7018" stroke="#1A202C" stroke-linejoin="round"/>
</g>
<path d="M73.6813 180.347C73.7372 180.347 72.8901 176.8 72.8157 176.577C71.8848 174.054 68.6549 169.717 65.6483 169.819C65.15 169.85 64.6637 169.985 64.2214 170.216C63.779 170.448 63.3905 170.77 63.0812 171.162C62.7719 171.554 62.5488 172.006 62.4266 172.49C62.3043 172.974 62.2856 173.479 62.3717 173.971C62.6603 176.074 64.615 177.815 66.3557 178.792C68.4128 179.937 73.672 180.347 73.6813 180.347Z" fill="#1A202C"/>
<path d="M78.7356 156.089C75.9431 157.197 74.7144 162.475 74.8913 165.156C74.8913 165.388 75.5615 168.981 75.608 168.953H75.6639C75.4684 169.782 75.2543 170.676 75.0495 171.662C74.6865 173.524 74.2956 175.525 74.0163 177.796C73.6872 180.231 73.5007 182.684 73.4578 185.141C73.4046 187.894 73.5915 190.648 74.0163 193.369C74.0207 193.403 74.0207 193.438 74.0163 193.472C73.6254 192.68 72.4339 190.521 72.3315 190.363C70.777 188.175 66.5045 184.843 63.6375 185.708C63.1655 185.871 62.733 186.132 62.368 186.473C62.0031 186.814 61.7138 187.228 61.519 187.687C61.3242 188.147 61.2281 188.643 61.2371 189.142C61.2461 189.642 61.3599 190.133 61.5711 190.586C62.3995 192.531 64.7452 193.695 66.6907 194.179C68.8781 194.719 73.6998 193.825 74.0815 193.76C74.5903 196.518 75.2806 199.238 76.1479 201.905C76.6413 203.459 77.1904 205.005 77.7582 206.559C77.3952 205.889 77.0601 205.293 77.0043 205.219C75.4591 203.022 71.1866 199.689 68.3103 200.564C67.8386 200.726 67.4062 200.986 67.0413 201.326C66.6764 201.666 66.3871 202.079 66.1922 202.538C65.9973 202.997 65.9012 203.492 65.9101 203.991C65.919 204.49 66.0327 204.981 66.2439 205.433C67.0816 207.387 69.4273 208.542 71.3727 209.026C73.3182 209.51 77.4697 208.84 78.5588 208.644C78.7822 209.231 78.9963 209.826 79.229 210.422C80.3087 213.214 81.4071 216.081 82.4031 218.883C82.7568 219.87 83.064 220.857 83.3339 221.843C83.0081 221.248 82.7289 220.754 82.6823 220.68C81.1372 218.492 76.8553 215.16 73.9884 216.026C73.5155 216.187 73.082 216.447 72.7162 216.788C72.3504 217.128 72.0605 217.542 71.8656 218.003C71.6706 218.463 71.5748 218.959 71.5845 219.459C71.5942 219.959 71.7092 220.451 71.9219 220.903C72.7504 222.849 75.0961 224.012 77.0415 224.496C78.9869 224.98 82.7382 224.366 84.0321 224.142C84.3206 225.166 84.6185 226.181 84.8512 227.186C84.9908 227.866 85.1863 228.517 85.2887 229.215C85.3911 229.914 85.5307 230.584 85.6424 231.263C85.8286 232.566 86.024 233.916 86.1637 235.201C86.266 236.132 86.3498 236.941 86.4429 237.798C86.1078 236.811 85.4004 234.884 85.3259 234.735C84.1997 232.687 82.5729 230.958 80.5973 229.709C80.4754 229.475 80.3354 229.251 80.1784 229.039C79.8915 228.631 79.5224 228.288 79.0948 228.032C78.6673 227.776 78.1908 227.612 77.6961 227.552C77.2014 227.491 76.6995 227.535 76.2228 227.681C75.7461 227.826 75.3052 228.07 74.9285 228.396C72.7225 230.435 73.4671 235.843 74.5934 238.245C74.6679 238.384 75.5243 239.864 76.1386 240.786L74.8727 239.315C73.9977 238.319 73.1041 237.351 72.1453 236.308L70.6839 234.838C70.2092 234.326 69.6414 233.86 69.1201 233.367C67.8728 232.241 66.5604 231.17 65.22 230.109C66.0856 229.346 69.1294 226.6 69.9765 224.766C70.8236 222.932 71.3728 220.391 70.3675 218.52C70.1462 218.073 69.8334 217.678 69.4495 217.36C69.0655 217.042 68.619 216.808 68.1389 216.674C67.6587 216.54 67.1557 216.508 66.6625 216.581C66.1692 216.653 65.6968 216.829 65.2758 217.096C62.7812 218.772 62.7067 224.198 63.4142 226.777C63.4607 226.935 64.2054 228.722 64.6335 229.699C63.8237 229.066 63.0139 228.443 62.1668 227.838C59.7281 226.088 57.2148 224.384 54.7202 222.672L52.4304 221.099C52.7468 220.829 56.4422 217.636 57.3824 215.579C58.2201 213.717 58.7786 211.213 57.7733 209.342C57.555 208.891 57.2437 208.492 56.86 208.17C56.4762 207.849 56.0287 207.612 55.5468 207.476C55.0649 207.339 54.5596 207.307 54.0642 207.38C53.5687 207.453 53.0944 207.63 52.6724 207.899C50.1777 209.584 50.1033 215.002 50.8107 217.58C50.8666 217.776 51.9463 220.373 52.2535 220.987C50.5687 219.823 48.9118 218.651 47.3201 217.422C45.1667 215.78 43.1208 214.001 41.1952 212.097C41.3348 211.967 45.2071 208.653 46.1659 206.512C47.0036 204.651 47.5714 202.147 46.5661 200.276C46.3409 199.836 46.0268 199.449 45.6438 199.137C45.2608 198.825 44.8171 198.596 44.3411 198.465C43.865 198.334 43.3668 198.303 42.8782 198.374C42.3895 198.446 41.921 198.618 41.5024 198.88C39.0171 200.564 38.9426 205.982 39.6407 208.56C39.6966 208.765 40.8601 211.53 41.1021 212.014C40.9904 211.902 40.8601 211.8 40.7577 211.688C38.8782 209.721 37.1774 207.59 35.6754 205.321C34.8377 204.083 34.093 202.845 33.4042 201.598C34.1861 201.049 37.7418 198.526 38.8216 196.729C39.9014 194.933 40.6833 192.541 39.9014 190.567C39.7306 190.098 39.4627 189.669 39.1152 189.31C38.7677 188.951 38.3484 188.669 37.8847 188.483C37.4209 188.297 36.9232 188.211 36.4238 188.23C35.9245 188.249 35.4347 188.373 34.9866 188.594C32.3244 189.99 31.6635 195.37 32.1196 198.014C32.1196 198.154 32.5571 199.587 32.8736 200.63C32.5757 200.071 32.2499 199.503 31.9428 198.973C30.8816 196.962 30.0811 195.054 29.3085 193.388C28.899 192.457 28.5452 191.526 28.2288 190.707C28.7221 189.776 30.6489 185.978 30.7792 183.931C30.9095 181.883 30.5 179.342 28.9176 177.964C28.551 177.624 28.1168 177.366 27.6434 177.206C27.17 177.046 26.6682 176.988 26.1707 177.035C25.6733 177.083 25.1915 177.235 24.7569 177.481C24.3224 177.728 23.9448 178.064 23.6491 178.467C21.927 180.933 23.8166 186.016 25.4363 188.147C25.5759 188.333 28.1077 190.94 28.1357 190.94V190.884C28.4242 191.684 28.75 192.541 29.1224 193.472C29.8205 195.194 30.621 197.12 31.6356 199.168C32.7097 201.379 33.9094 203.526 35.2286 205.6C36.7045 207.914 38.3802 210.095 40.2365 212.116L40.3016 212.181C39.5383 211.744 37.3602 210.599 37.1833 210.524C34.6794 209.547 29.2806 209.137 27.3817 211.455C27.0757 211.849 26.8559 212.302 26.7365 212.786C26.617 213.27 26.6007 213.774 26.6884 214.264C26.7762 214.755 26.9661 215.221 27.2459 215.634C27.5257 216.046 27.8891 216.396 28.3125 216.659C30.0811 217.822 32.6781 217.496 34.5677 216.826C36.6993 216.072 40.2272 212.675 40.5064 212.395C42.449 214.417 44.5231 216.307 46.715 218.055C47.9903 219.079 49.3028 220.075 50.6338 221.052C49.9543 220.689 49.3493 220.382 49.2655 220.345C46.7616 219.367 41.3628 218.948 39.4639 221.275C39.1579 221.669 38.9381 222.122 38.8186 222.606C38.6992 223.09 38.6828 223.594 38.7706 224.084C38.8584 224.575 39.0483 225.042 39.3281 225.454C39.6079 225.867 39.9713 226.216 40.3947 226.479C42.1633 227.642 44.7603 227.317 46.6499 226.646C48.5395 225.976 51.7415 223.184 52.57 222.439C53.0912 222.811 53.5939 223.184 54.1152 223.547C56.5819 225.315 59.0579 227.065 61.4315 228.852C62.2692 229.485 63.0697 230.137 63.8703 230.789C63.2745 230.472 62.7719 230.211 62.6881 230.184C60.1842 229.206 54.7853 228.787 52.8865 231.114C52.5803 231.509 52.3604 231.963 52.2408 232.447C52.1213 232.932 52.1049 233.436 52.1927 233.928C52.2804 234.419 52.4703 234.887 52.7502 235.3C53.0301 235.713 53.3936 236.063 53.8173 236.327C55.5952 237.491 58.1829 237.165 60.0725 236.495C61.9621 235.824 64.7266 233.246 65.7133 232.343C66.5138 233.032 67.3236 233.721 68.0683 234.428C68.5709 234.921 69.0829 235.359 69.5576 235.89C70.0324 236.42 70.4885 236.895 70.9818 237.397C71.8568 238.384 72.7597 239.408 73.5881 240.395C74.1652 241.074 74.7051 241.735 75.2543 242.405C74.4259 241.763 72.7783 240.544 72.6294 240.469C70.3116 239.119 65.0338 237.891 62.7998 239.911C62.4394 240.256 62.1557 240.673 61.9671 241.135C61.7785 241.597 61.6892 242.093 61.705 242.592C61.7208 243.09 61.8413 243.58 62.0588 244.029C62.2763 244.478 62.5859 244.876 62.9674 245.198C64.5405 246.622 67.1561 246.687 69.1201 246.315C71.289 245.896 75.1426 243.197 75.636 242.861C76.5668 243.96 77.3952 245.049 78.1957 246.082C79.2476 247.432 80.2156 248.716 81.0813 249.908C81.6584 249.815 82.3566 249.684 83.1757 249.535C82.1145 248.139 80.9231 246.613 79.592 244.974C78.6612 243.848 77.7303 242.666 76.6599 241.456C77.6389 240.301 78.5526 239.092 79.3965 237.835C81.5281 238.589 85.9123 238.477 86.4987 238.459C86.6384 239.873 86.7594 241.251 86.8525 242.554C87.02 244.807 87.141 246.864 87.2155 248.698L89.0772 248.251C88.9561 246.492 88.8072 244.528 88.6024 242.405C88.4628 240.963 88.2859 239.427 88.0905 237.854C88.649 237.695 93.1821 236.364 94.8576 234.931C96.3842 233.628 97.9573 231.543 97.8363 229.43C97.8223 228.931 97.7037 228.44 97.4882 227.99C97.2726 227.539 96.9649 227.14 96.585 226.816C96.205 226.492 95.7613 226.252 95.2825 226.11C94.8038 225.969 94.3007 225.929 93.8058 225.995C90.8364 226.479 88.5 231.366 88.0998 234.019C88.0998 234.177 88.0067 235.88 87.9788 236.997C87.895 236.355 87.8298 235.731 87.7368 235.07C87.5599 233.758 87.3458 232.455 87.1131 231.058C86.9828 230.388 86.8525 229.709 86.7128 229.02C86.5732 228.331 86.3871 227.633 86.2195 226.926C85.8006 225.306 85.2887 223.686 84.7581 222.067C85.903 221.908 89.9614 221.294 91.6742 220.205C93.3869 219.116 95.2579 217.329 95.4533 215.216C95.5147 214.721 95.4714 214.218 95.3264 213.741C95.1814 213.264 94.9378 212.822 94.6115 212.445C94.2851 212.068 93.8832 211.763 93.4318 211.551C92.9803 211.339 92.4894 211.224 91.9906 211.213C88.9841 211.213 85.9309 215.718 85.1304 218.278C85.1304 218.436 84.7116 220.345 84.5347 221.396C84.1996 220.466 83.8738 219.451 83.5015 218.474C82.4403 215.681 81.2768 212.889 80.1319 210.05C79.7782 209.193 79.4431 208.328 79.0986 207.471C79.4989 207.415 84.3392 206.792 86.2567 205.61C87.9602 204.548 89.8404 202.733 90.0359 200.62C90.0972 200.125 90.054 199.623 89.909 199.146C89.764 198.668 89.5204 198.227 89.194 197.85C88.8677 197.472 88.4658 197.168 88.0143 196.956C87.5629 196.743 87.0719 196.628 86.5732 196.618C83.5666 196.618 80.5135 201.123 79.713 203.683C79.6571 203.878 79.1266 206.615 79.0335 207.322C78.2702 205.461 77.5349 203.525 76.8833 201.626C75.9906 199.066 75.2661 196.451 74.7144 193.797C74.9099 193.797 79.9643 193.146 81.9191 191.936C83.6225 190.884 85.5028 189.059 85.6982 186.946C85.7611 186.451 85.7189 185.948 85.5744 185.47C85.43 184.992 85.1865 184.55 84.8598 184.173C84.5332 183.795 84.1307 183.491 83.6785 183.279C83.2264 183.067 82.7347 182.953 82.2355 182.944C79.229 182.944 76.1758 187.449 75.3753 190.009C75.3195 190.214 74.7517 193.164 74.6865 193.732C74.6865 193.574 74.612 193.416 74.5841 193.267C74.1018 190.591 73.8589 187.878 73.8581 185.159C73.8581 183.651 73.8581 182.218 73.9977 180.822C74.9285 180.822 79.3127 180.654 81.2023 179.751C83.0919 178.848 85.0746 177.284 85.4935 175.209C85.6114 174.724 85.6257 174.219 85.5354 173.728C85.445 173.238 85.2521 172.771 84.9692 172.36C84.6863 171.949 84.3198 171.602 83.8936 171.342C83.4675 171.082 82.9913 170.916 82.4962 170.852C79.5082 170.545 75.9804 174.669 74.9006 177.126C74.8447 177.256 74.398 178.681 74.0908 179.723C74.1466 179.1 74.1839 178.448 74.249 177.862C74.4817 175.6 74.8261 173.542 75.1798 171.727C75.3753 170.694 75.5708 169.763 75.757 168.935C76.6878 168.423 80.4111 166.319 81.6212 164.681C82.8313 163.043 83.9203 160.706 83.3432 158.668C83.2327 158.183 83.0216 157.726 82.7235 157.327C82.4254 156.929 82.0469 156.597 81.6126 156.354C81.1783 156.111 80.6978 155.962 80.2022 155.916C79.7066 155.871 79.207 155.93 78.7356 156.089Z" fill="#1A202C"/>
<path d="M25.9389 204.213C28.2846 204.037 32.9015 201.467 32.9015 201.467C32.9015 201.467 30.2859 198.945 30.109 198.805C27.9588 197.204 22.8579 195.37 20.4098 197.12C20.0122 197.421 19.6824 197.803 19.4417 198.239C19.201 198.676 19.0549 199.158 19.0127 199.655C18.9706 200.152 19.0334 200.652 19.1971 201.123C19.3608 201.594 19.6218 202.025 19.963 202.389C21.3499 203.99 23.9376 204.353 25.9389 204.213Z" fill="#1A202C"/>
<path d="M227.799 58.6128C227.799 58.6593 230.368 55.3735 230.507 55.1408C232.08 52.5252 233.598 46.5399 231.345 43.9708C230.959 43.5534 230.489 43.2219 229.966 42.9978C229.443 42.7737 228.879 42.6619 228.311 42.6698C227.742 42.6777 227.181 42.8051 226.665 43.0436C226.148 43.2822 225.688 43.6266 225.313 44.0546C223.666 45.8139 223.535 48.7925 223.917 51.0358C224.373 53.6235 227.789 58.6128 227.799 58.6128Z" fill="#1A202C"/>
<path d="M252.848 45.5812C249.86 43.9057 244.312 46.6051 242.069 48.6902C241.873 48.867 239.164 52.0225 239.229 52.0504H239.295C238.364 52.4693 237.433 52.9254 236.456 53.4467C234.594 54.4334 232.49 55.5597 230.284 56.9373C227.893 58.3945 225.589 59.9922 223.387 61.7218C220.901 63.6571 218.596 65.813 216.499 68.1631L216.424 68.2469C216.834 67.3161 217.895 64.7377 217.951 64.5236C218.788 61.5822 218.658 55.4107 215.81 53.5119C215.327 53.2108 214.786 53.0147 214.222 52.9364C213.658 52.8581 213.084 52.8993 212.537 53.0573C211.99 53.2153 211.482 53.4866 211.047 53.8536C210.612 54.2206 210.259 54.675 210.011 55.1874C208.884 57.319 209.545 60.2231 210.513 62.2896C211.602 64.626 215.856 68.2469 216.191 68.5355C214.112 70.9601 212.2 73.5227 210.467 76.2055C209.443 77.76 208.466 79.361 207.507 80.9714C207.833 80.1708 208.121 79.4541 208.149 79.3424C208.977 76.401 208.856 70.2296 206.008 68.3307C205.525 68.0307 204.985 67.8354 204.422 67.7572C203.858 67.679 203.285 67.7197 202.739 67.8767C202.192 68.0337 201.685 68.3035 201.249 68.6687C200.813 69.0338 200.459 69.4863 200.209 69.9969C199.083 72.1378 199.744 75.042 200.712 77.1084C201.68 79.1749 205.254 82.3676 206.204 83.196C205.841 83.8197 205.468 84.4341 205.115 85.0577C203.383 88.0643 201.67 91.0616 199.902 93.9471C199.278 94.9711 198.627 95.9484 197.984 96.9351C198.273 96.2184 198.515 95.6133 198.543 95.5202C199.371 92.5788 199.25 86.4074 196.393 84.5085C195.911 84.2058 195.371 84.0081 194.808 83.9284C194.245 83.8488 193.672 83.8889 193.125 84.0462C192.578 84.2034 192.071 84.4743 191.637 84.8411C191.202 85.2079 190.85 85.6624 190.603 86.1747C189.467 88.3156 190.128 91.2198 191.096 93.2862C192.064 95.3527 195.294 98.2383 196.421 99.2249C195.732 100.212 195.034 101.198 194.317 102.12C193.814 102.743 193.386 103.376 192.837 103.981L191.282 105.769C190.249 106.867 189.197 108.003 188.164 109.045C187.457 109.781 186.768 110.469 186.07 111.158C186.703 110.153 187.931 108.152 187.978 107.975C189.005 105.489 189.374 102.78 189.048 100.109C189.179 99.839 189.279 99.5549 189.346 99.2622C189.504 98.7154 189.544 98.1415 189.465 97.5781C189.386 97.0146 189.189 96.4742 188.886 95.992C188.584 95.5098 188.184 95.0968 187.711 94.7797C187.239 94.4627 186.705 94.2487 186.144 94.1519C182.756 93.6679 178.539 98.1824 177.199 100.928C177.124 101.087 176.454 102.939 176.054 104.121C176.184 103.386 176.324 102.688 176.445 101.934C176.696 100.454 176.91 98.9643 177.143 97.3633C177.236 96.5907 177.32 95.8088 177.404 95.0176C177.487 94.2264 177.525 93.3979 177.581 92.5788C177.683 90.7172 177.692 88.7345 177.664 86.789C178.958 87.0124 183.584 87.7199 185.8 87.1614C188.015 86.6029 190.677 85.2997 191.608 83.0285C191.847 82.5123 191.974 81.9516 191.981 81.383C191.988 80.8143 191.875 80.2506 191.649 79.7287C191.423 79.2068 191.09 78.7384 190.671 78.3543C190.251 77.9701 189.756 77.6788 189.216 77.4994C185.939 76.5034 181.09 80.2918 179.349 82.833C179.237 82.9913 178.195 84.9367 177.636 86.0072C177.636 84.8436 177.581 83.6708 177.515 82.4886C177.32 79.0725 177.022 75.6191 176.734 72.175C176.64 71.1232 176.566 70.0713 176.482 69.0195C176.948 69.1033 182.421 70.0806 184.916 69.4384C187.122 68.8706 189.784 67.5767 190.724 65.3055C190.961 64.7885 191.086 64.2274 191.092 63.6588C191.098 63.0901 190.984 62.5266 190.757 62.005C190.531 61.4833 190.197 61.0153 189.777 60.6313C189.358 60.2473 188.862 59.956 188.322 59.7763C185.055 58.771 180.206 62.5688 178.456 65.11C178.325 65.2962 176.817 68.098 176.473 68.8333C176.296 66.5156 176.147 64.1792 176.091 61.9173C175.994 58.8295 176.1 55.7387 176.408 52.6648C176.622 52.6648 182.328 53.7539 184.878 53.093C187.094 52.5345 189.756 51.2313 190.687 48.9694C190.925 48.4526 191.053 47.8912 191.06 47.3219C191.067 46.7527 190.954 46.1883 190.728 45.6657C190.502 45.143 190.169 44.6739 189.75 44.2888C189.33 43.9037 188.834 43.6114 188.294 43.431C185.018 42.435 180.168 46.2234 178.428 48.7646C178.288 48.9694 176.668 51.976 176.417 52.5438C176.417 52.3669 176.417 52.1808 176.417 52.0039C176.809 48.9284 177.475 45.8941 178.409 42.9376C178.902 41.2994 179.461 39.7635 180.047 38.2835C181.09 38.5906 185.874 39.9217 188.229 39.5866C190.584 39.2515 193.284 38.2369 194.457 36.1239C194.75 35.636 194.937 35.0919 195.006 34.5268C195.076 33.9618 195.025 33.3885 194.858 32.8443C194.691 32.3 194.412 31.7969 194.038 31.3677C193.664 30.9384 193.204 30.5926 192.688 30.3528C189.542 29.0031 184.31 32.2703 182.291 34.5788C182.179 34.6998 181.211 36.096 180.522 37.1292C180.792 36.459 181.062 35.7702 181.332 35.1373C182.356 32.7543 183.435 30.6413 184.413 28.7797C184.981 27.7185 185.502 26.7784 186.014 25.8941C187.187 25.6614 191.925 24.6468 193.833 23.2878C195.741 21.9288 197.696 19.7599 197.761 17.3398C197.8 16.7735 197.72 16.2052 197.526 15.6717C197.333 15.1382 197.029 14.6513 196.635 14.2425C196.241 13.8337 195.766 13.5121 195.24 13.2984C194.714 13.0848 194.149 12.9838 193.582 13.0021C190.165 13.2534 187.066 18.5871 186.302 21.5378C186.237 21.7985 185.725 25.922 185.781 25.9127H185.856C185.353 26.7505 184.822 27.6534 184.264 28.6494C183.249 30.511 182.114 32.5961 181.043 34.9604C179.849 37.5057 178.808 40.1197 177.925 42.7887C176.918 45.761 176.177 48.8168 175.71 51.9201C175.714 51.9572 175.714 51.9947 175.71 52.0318C175.551 51.0452 175.002 48.3085 174.937 48.0851C174.006 45.1716 170.497 40.0893 167.071 40.08C166.504 40.0937 165.945 40.2264 165.432 40.4696C164.918 40.7128 164.462 41.0611 164.091 41.4919C163.721 41.9227 163.445 42.4264 163.282 42.9705C163.119 43.5146 163.072 44.0869 163.143 44.6503C163.385 47.0519 165.536 49.1183 167.481 50.3098C169.678 51.6502 175.226 52.3297 175.663 52.3762C175.27 55.5472 175.09 58.7409 175.123 61.9359C175.123 63.7975 175.188 65.6592 175.281 67.5209C175.114 66.6645 174.956 65.9105 174.918 65.7988C173.988 62.8946 170.478 57.8123 167.053 57.803C166.484 57.8175 165.925 57.9516 165.412 58.1966C164.899 58.4416 164.443 58.792 164.074 59.2249C163.705 59.6579 163.432 60.1637 163.271 60.7093C163.111 61.255 163.067 61.8283 163.143 62.392C163.376 64.7935 165.536 66.8507 167.481 68.0421C169.426 69.2336 174.174 69.9038 175.421 70.09C175.421 70.8067 175.496 71.5234 175.542 72.2495C175.756 75.7029 175.98 79.1469 176.101 82.4886C176.147 83.6801 176.101 84.8622 176.147 86.0351C175.989 85.2811 175.859 84.6481 175.831 84.5457C174.9 81.6322 171.391 76.5592 167.965 76.5499C167.396 76.563 166.836 76.6961 166.322 76.9407C165.808 77.1852 165.352 77.5356 164.983 77.9688C164.613 78.4021 164.34 78.9085 164.18 79.4548C164.021 80.0011 163.978 80.575 164.056 81.1389C164.288 83.5405 166.439 85.5976 168.393 86.789C170.348 87.9805 174.621 88.6507 176.11 88.7996C176.11 90.0097 176.035 91.2198 175.952 92.3833C175.877 93.1839 175.859 93.9471 175.728 94.7477C175.598 95.5482 175.523 96.3208 175.421 97.0933C175.17 98.5734 174.918 100.109 174.639 101.543C174.444 102.548 174.248 103.507 174.053 104.466C174.053 103.274 173.913 100.947 173.885 100.742C173.41 97.7263 170.711 92.1693 167.323 91.648C166.759 91.576 166.186 91.6235 165.642 91.7875C165.098 91.9514 164.594 92.2281 164.164 92.5995C163.734 92.9709 163.387 93.4287 163.145 93.9431C162.903 94.4576 162.773 95.0171 162.762 95.5854C162.631 98.0056 164.447 100.361 166.197 101.831C168.114 103.451 173.271 104.931 173.922 105.108C173.587 106.7 173.252 108.235 172.908 109.687C172.461 111.599 172.024 113.367 171.595 114.993C172.089 115.431 172.703 115.924 173.457 116.566C173.932 114.639 174.388 112.489 174.928 110.134C175.272 108.524 175.607 106.793 175.933 105.015C177.657 105.052 179.382 104.99 181.099 104.829C181.965 107.258 185.223 111.074 185.642 111.558C184.497 112.703 183.361 113.802 182.272 114.816C180.41 116.585 178.67 118.158 177.097 119.545C177.664 119.982 178.241 120.476 178.847 120.895C180.327 119.526 181.946 117.99 183.687 116.241C184.86 115.086 186.088 113.83 187.345 112.517C187.885 112.899 192.306 115.952 194.792 116.408C197.044 116.818 200.014 116.725 201.801 115.086C202.231 114.716 202.58 114.26 202.823 113.747C203.066 113.234 203.199 112.676 203.213 112.108C203.227 111.541 203.122 110.976 202.905 110.452C202.687 109.928 202.362 109.455 201.95 109.064C199.39 106.783 193.386 108.226 190.78 109.771C190.622 109.864 189.048 111.046 188.062 111.81C188.574 111.27 189.076 110.758 189.588 110.199C190.622 109.101 191.617 107.984 192.697 106.774C193.191 106.178 193.703 105.573 194.205 104.912C194.708 104.251 195.201 103.618 195.704 102.976C196.839 101.44 197.91 99.8393 198.962 98.1917C199.893 99.1226 203.374 102.241 205.543 102.995C207.712 103.749 210.662 104.093 212.664 102.753C213.148 102.454 213.564 102.056 213.884 101.585C214.204 101.114 214.421 100.581 214.521 100.021C214.621 99.4601 214.602 98.8849 214.465 98.3324C214.328 97.7799 214.075 97.2626 213.725 96.8141C211.547 94.1798 205.394 94.6918 202.555 95.8274C202.378 95.8926 200.432 96.9351 199.381 97.5308C199.995 96.5348 200.628 95.5482 201.242 94.5243C202.964 91.5735 204.612 88.5204 206.269 85.4952C206.781 84.5644 207.302 83.6335 207.814 82.7027C208.149 83.0285 212.18 86.8635 214.609 87.7013C216.769 88.4552 219.719 88.809 221.73 87.4592C222.213 87.159 222.628 86.7605 222.947 86.2897C223.266 85.8188 223.483 85.2861 223.583 84.7262C223.683 84.1662 223.664 83.5914 223.528 83.0392C223.391 82.487 223.14 81.9696 222.791 81.5206C220.604 78.8863 214.414 79.3983 211.621 80.5339C211.407 80.6176 208.605 82.1163 207.898 82.5351C209.033 80.5059 210.178 78.4953 211.388 76.5499C213.018 73.9262 214.812 71.408 216.759 69.0102C216.917 69.1684 221.106 73.1803 223.592 74.046C225.751 74.8 228.702 75.1537 230.712 73.804C231.197 73.5047 231.612 73.1067 231.932 72.6359C232.252 72.1651 232.47 71.6321 232.57 71.0717C232.67 70.5113 232.651 69.9361 232.514 69.3836C232.376 68.8311 232.124 68.3137 231.774 67.8653C229.595 65.231 223.396 65.743 220.604 66.8786C220.38 66.9624 217.374 68.582 216.88 68.9171C217.001 68.7775 217.104 68.6192 217.215 68.4889C219.237 66.1421 221.465 63.9802 223.871 62.029C225.193 60.9306 226.505 59.9532 227.808 59.041C228.516 59.8694 231.774 63.6207 233.924 64.626C236.074 65.6313 238.885 66.2829 241.026 65.1659C241.502 64.9037 241.921 64.5486 242.257 64.1216C242.594 63.6945 242.841 63.2043 242.984 62.6799C243.127 62.1555 243.164 61.6077 243.091 61.0689C243.019 60.5302 242.839 60.0115 242.562 59.5436C240.7 56.686 234.51 56.5184 231.569 57.3376C231.401 57.3376 229.828 58.0078 228.683 58.4825C229.279 58.0822 229.884 57.6447 230.461 57.2724C232.621 55.8482 234.696 54.6847 236.539 53.6608C237.591 53.093 238.55 52.5996 239.453 52.1435C240.57 52.5996 245.084 54.3682 247.421 54.2844C249.757 54.2007 252.587 53.4653 253.937 51.492C254.28 51.0419 254.525 50.525 254.657 49.9745C254.788 49.424 254.803 48.8521 254.701 48.2954C254.598 47.7388 254.38 47.2097 254.061 46.7423C253.742 46.2749 253.329 45.8794 252.848 45.5812Z" fill="#1A202C"/>
<path d="M172.424 33.4803C174.285 35.4351 179.87 37.6691 179.87 37.6784C179.87 37.6877 180.224 33.5455 180.215 33.2849C180.084 30.2317 178.046 24.4047 174.741 23.4925C174.19 23.3568 173.616 23.3386 173.057 23.4393C172.497 23.5399 171.966 23.7571 171.496 24.0766C171.026 24.3962 170.629 24.811 170.33 25.2941C170.032 25.7772 169.838 26.3178 169.761 26.8807C169.324 29.2451 170.888 31.8048 172.424 33.4803Z" fill="#1A202C"/>
<path d="M442.048 267.305C442.048 267.305 443.91 264.913 444.049 264.745C445.204 262.818 446.321 258.406 444.664 256.507C444.38 256.199 444.035 255.953 443.65 255.787C443.266 255.62 442.85 255.537 442.431 255.542C442.012 255.548 441.599 255.641 441.218 255.817C440.838 255.993 440.499 256.247 440.224 256.563C439.004 257.866 438.902 260.054 439.19 261.711C439.525 263.656 442.048 267.305 442.048 267.305Z" fill="#1A202C"/>
<path d="M460.507 257.745C458.31 256.507 454.214 258.499 452.567 260.035C452.418 260.166 450.426 262.493 450.472 262.511H450.519C449.867 262.818 449.178 263.163 448.434 263.544C447.056 264.271 445.511 265.099 443.882 266.114C442.117 267.184 440.42 268.363 438.8 269.641C436.97 271.056 435.272 272.632 433.727 274.351L433.671 274.417C433.978 273.737 434.76 271.829 434.806 271.671C435.411 269.502 435.328 264.959 433.224 263.563C432.869 263.34 432.471 263.195 432.056 263.136C431.642 263.077 431.219 263.106 430.816 263.221C430.413 263.336 430.039 263.534 429.718 263.803C429.396 264.072 429.135 264.406 428.951 264.782C428.123 266.365 428.607 268.506 429.324 270.023C430.124 271.745 433.252 274.417 433.503 274.621C431.977 276.411 430.568 278.299 429.287 280.271C428.529 281.426 427.8 282.599 427.099 283.79L427.583 282.589C428.188 280.42 428.095 275.878 426.001 274.472C425.645 274.25 425.247 274.105 424.832 274.047C424.416 273.988 423.993 274.018 423.59 274.134C423.187 274.25 422.813 274.449 422.493 274.719C422.172 274.989 421.911 275.324 421.728 275.701C420.9 277.284 421.384 279.424 422.091 280.942C422.799 282.459 425.442 284.823 426.15 285.428L425.34 286.806C424.065 289.012 422.808 291.218 421.505 293.322C421.039 294.076 420.574 294.792 420.09 295.518C420.304 294.997 420.481 294.588 420.499 294.485C421.114 292.316 421.021 287.765 418.917 286.368C418.562 286.146 418.163 286.001 417.748 285.943C417.333 285.884 416.91 285.914 416.507 286.03C416.104 286.146 415.73 286.345 415.409 286.615C415.088 286.885 414.828 287.22 414.645 287.597C413.816 289.17 414.3 291.32 415.017 292.838C415.734 294.355 418.107 296.477 418.936 297.203C418.424 297.939 417.921 298.665 417.391 299.344C417.018 299.8 416.692 300.275 416.292 300.713L415.147 302.025C414.393 302.835 413.611 303.673 412.857 304.445C412.336 304.985 411.824 305.488 411.312 306C411.778 305.255 412.662 303.784 412.718 303.654C413.473 301.82 413.746 299.824 413.509 297.855C413.602 297.655 413.674 297.446 413.723 297.231C413.833 296.831 413.858 296.413 413.797 296.003C413.736 295.593 413.59 295.2 413.368 294.849C413.147 294.499 412.854 294.198 412.51 293.967C412.165 293.736 411.776 293.58 411.368 293.508C408.864 293.145 405.783 296.468 404.778 298.497C404.713 298.609 404.229 299.977 403.931 300.843C404.024 300.312 404.126 299.791 404.219 299.242C404.405 298.143 404.564 297.054 404.731 295.872C404.799 295.308 404.865 294.73 404.927 294.141C405.001 293.564 405.01 292.94 405.057 292.344C405.131 290.939 405.141 289.552 405.113 288.081C406.044 288.239 409.478 288.77 411.117 288.351C412.755 287.932 414.7 286.955 415.389 285.307C415.565 284.927 415.659 284.514 415.665 284.095C415.67 283.676 415.587 283.26 415.421 282.875C415.255 282.491 415.01 282.145 414.701 281.862C414.392 281.578 414.027 281.363 413.63 281.23C411.219 280.495 407.645 283.315 406.36 285.168C406.276 285.279 405.504 286.713 405.094 287.504C405.094 286.638 405.094 285.782 405.01 284.907C404.862 282.394 404.638 279.853 404.424 277.311C404.359 276.539 404.312 275.757 404.247 274.984C404.592 275.05 408.622 275.766 410.456 275.292C412.085 274.873 414.049 273.895 414.738 272.248C414.912 271.867 415.004 271.453 415.009 271.034C415.013 270.615 414.929 270.2 414.762 269.815C414.595 269.431 414.349 269.085 414.04 268.802C413.732 268.519 413.367 268.304 412.969 268.171C410.558 267.435 406.984 270.256 405.699 272.108C405.606 272.248 404.498 274.305 404.238 274.845C404.108 273.132 403.996 271.429 403.959 269.744C403.885 267.47 403.963 265.194 404.191 262.93C404.35 262.93 408.557 263.731 410.437 263.247C412.066 262.828 414.021 261.841 414.71 260.203C414.886 259.822 414.98 259.409 414.985 258.99C414.991 258.571 414.908 258.156 414.742 257.771C414.576 257.386 414.33 257.041 414.022 256.757C413.713 256.474 413.348 256.258 412.95 256.126C410.54 255.39 406.965 258.211 405.681 260.054C405.578 260.203 404.387 262.418 404.201 262.846C404.201 262.716 404.201 262.576 404.201 262.446C404.489 260.182 404.978 257.949 405.662 255.772C406.025 254.562 406.444 253.426 406.872 252.337C407.635 252.561 411.163 253.538 412.904 253.268C414.645 252.998 416.627 252.272 417.493 250.708C417.709 250.349 417.847 249.948 417.898 249.532C417.948 249.115 417.91 248.693 417.787 248.292C417.663 247.892 417.456 247.522 417.179 247.206C416.902 246.891 416.562 246.638 416.18 246.464C413.863 245.468 410.009 247.879 408.529 249.573C408.445 249.666 407.728 250.699 407.217 251.434C407.421 250.941 407.617 250.429 407.822 249.964C408.576 248.214 409.376 246.659 410.093 245.309C410.502 244.528 410.893 243.839 411.266 243.187C412.131 243.01 415.622 242.256 417.027 241.27C418.433 240.283 419.876 238.663 419.922 236.885C419.949 236.467 419.887 236.048 419.741 235.656C419.595 235.263 419.368 234.905 419.075 234.606C418.782 234.306 418.429 234.072 418.039 233.918C417.65 233.764 417.232 233.694 416.813 233.711C414.291 233.897 411.973 237.816 411.442 240.004C411.442 240.19 411.024 243.234 411.061 243.224H411.117C410.744 243.845 410.353 244.515 409.944 245.235C409.199 246.603 408.361 248.149 407.57 249.889C406.693 251.757 405.925 253.675 405.271 255.632C404.533 257.824 403.988 260.076 403.642 262.362C403.647 262.39 403.647 262.418 403.642 262.446C403.521 261.72 403.121 259.654 403.074 259.533C402.386 257.392 399.798 253.65 397.275 253.64C396.857 253.653 396.446 253.752 396.068 253.933C395.69 254.114 395.355 254.372 395.083 254.69C394.811 255.008 394.609 255.38 394.49 255.781C394.37 256.182 394.336 256.604 394.39 257.019C394.567 258.797 396.158 260.314 397.592 261.189C399.211 262.176 403.298 262.679 403.614 262.716C403.329 265.051 403.196 267.401 403.214 269.753C403.214 271.131 403.27 272.546 403.335 273.895C403.214 273.262 403.093 272.704 403.074 272.629C402.386 270.479 399.798 266.737 397.275 266.737C396.856 266.748 396.444 266.847 396.066 267.027C395.688 267.207 395.352 267.465 395.08 267.784C394.808 268.102 394.605 268.475 394.487 268.877C394.368 269.278 394.335 269.701 394.39 270.116C394.567 271.885 396.149 273.402 397.592 274.277C399.035 275.152 402.516 275.664 403.437 275.785C403.437 276.315 403.493 276.846 403.53 277.377C403.679 279.918 403.847 282.459 403.94 284.954C403.94 285.838 403.94 286.704 403.94 287.569C403.828 287.011 403.735 286.545 403.707 286.471C403.028 284.33 400.44 280.588 397.918 280.579C397.499 280.591 397.088 280.69 396.71 280.871C396.333 281.052 395.997 281.31 395.725 281.628C395.454 281.946 395.251 282.318 395.132 282.719C395.013 283.121 394.978 283.542 395.032 283.958C395.209 285.735 396.791 287.253 398.225 288.128C399.658 289.003 402.823 289.459 403.912 289.608C403.912 290.539 403.866 291.386 403.8 292.251C403.745 292.838 403.726 293.405 403.642 293.992C403.558 294.578 403.484 295.146 403.409 295.714C403.223 296.812 403.037 297.939 402.832 299C402.693 299.735 402.544 300.443 402.404 301.15C402.404 300.275 402.302 298.562 402.283 298.413C401.929 296.189 399.937 292.102 397.443 291.711C397.027 291.659 396.605 291.695 396.205 291.816C395.804 291.937 395.433 292.141 395.116 292.415C394.799 292.689 394.543 293.027 394.365 293.406C394.187 293.785 394.091 294.197 394.082 294.616C393.989 296.393 395.321 298.134 396.614 299.214C397.908 300.294 401.827 301.504 402.302 301.634C402.06 302.798 401.808 303.943 401.557 305.004C401.231 306.409 400.905 307.712 400.626 308.913C400.989 309.23 401.445 309.63 401.976 310.077C402.323 308.649 402.683 307.067 403.056 305.329C403.307 304.147 403.558 302.872 403.791 301.56C405.065 301.591 406.339 301.545 407.607 301.42C408.24 303.216 410.642 306.028 410.949 306.381C410.102 307.228 409.274 308.038 408.473 308.783C407.095 310.086 405.811 311.25 404.657 312.264C405.066 312.59 405.504 312.925 405.951 313.26C407.03 312.255 408.231 311.129 409.506 309.863C410.372 309.016 411.284 308.085 412.206 307.126C412.606 307.405 415.864 309.658 417.688 309.993C419.345 310.291 421.533 310.226 422.845 309.016C423.165 308.744 423.423 308.408 423.604 308.03C423.785 307.652 423.884 307.24 423.894 306.82C423.905 306.401 423.827 305.985 423.665 305.598C423.504 305.211 423.262 304.863 422.957 304.575C421.095 302.9 416.646 303.961 414.71 305.106C414.589 305.171 413.434 306.037 412.708 306.595L413.835 305.413C414.589 304.613 415.324 303.784 416.125 302.891L417.232 301.56C417.614 301.113 417.968 300.629 418.34 300.126C419.168 299 419.96 297.818 420.732 296.608C421.44 297.268 423.99 299.586 425.591 300.145C427.192 300.703 429.361 300.955 430.841 299.968C431.196 299.746 431.501 299.452 431.736 299.105C431.97 298.758 432.129 298.365 432.202 297.952C432.275 297.54 432.26 297.117 432.159 296.71C432.057 296.304 431.872 295.923 431.614 295.593C430.013 293.648 425.47 294.029 423.385 294.858C423.255 294.913 421.812 295.677 421.039 296.114C421.495 295.379 421.97 294.653 422.398 293.899C423.664 291.721 424.884 289.477 426.122 287.243C426.494 286.564 426.876 285.884 427.257 285.205C427.509 285.447 430.478 288.267 432.265 288.928C433.857 289.477 435.988 289.738 437.515 288.751C437.87 288.53 438.175 288.236 438.41 287.888C438.644 287.541 438.803 287.149 438.876 286.736C438.949 286.323 438.934 285.9 438.833 285.494C438.731 285.087 438.546 284.707 438.288 284.376C436.687 282.431 432.153 282.803 430.059 283.641C429.901 283.706 427.834 284.814 427.322 285.121C428.16 283.622 429.007 282.142 429.901 280.709C431.099 278.765 432.421 276.899 433.857 275.124C433.978 275.236 437.059 278.196 438.893 278.847C440.484 279.396 442.616 279.657 444.143 278.67C444.498 278.449 444.803 278.155 445.037 277.807C445.272 277.46 445.43 277.068 445.503 276.655C445.576 276.243 445.561 275.819 445.46 275.413C445.359 275.006 445.173 274.626 444.915 274.296C443.314 272.35 438.781 272.732 436.687 273.56C436.519 273.625 434.304 274.817 433.894 275.059C433.978 274.966 434.052 274.845 434.145 274.742C435.636 273.017 437.274 271.426 439.042 269.986C440.019 269.176 440.987 268.459 441.946 267.789C442.467 268.394 444.859 271.159 446.451 271.913C448.043 272.667 450.109 273.132 451.682 272.313C452.061 272.132 452.397 271.874 452.669 271.555C452.941 271.236 453.142 270.863 453.26 270.46C453.377 270.058 453.409 269.635 453.352 269.22C453.295 268.804 453.151 268.406 452.93 268.05C451.543 265.946 447 265.825 444.822 266.421C444.71 266.421 443.547 266.914 442.7 267.268C443.137 266.97 443.631 266.653 444.012 266.337C445.604 265.294 447.131 264.429 448.49 263.684C449.262 263.256 449.97 262.893 450.64 262.558C451.459 262.893 454.782 264.196 456.513 264.14C458.245 264.084 460.32 263.535 461.344 262.074C461.591 261.741 461.767 261.36 461.859 260.956C461.951 260.551 461.957 260.132 461.879 259.725C461.8 259.318 461.637 258.932 461.401 258.591C461.165 258.25 460.86 257.962 460.507 257.745Z" fill="#1A202C"/>
<path d="M401.24 248.8C402.6 250.243 406.714 251.89 406.714 251.89C406.714 251.89 406.974 248.856 406.965 248.66C406.872 246.408 405.364 242.145 402.935 241.437C402.528 241.337 402.104 241.323 401.692 241.398C401.279 241.472 400.887 241.633 400.541 241.869C400.195 242.105 399.902 242.412 399.683 242.769C399.463 243.126 399.322 243.526 399.267 243.941C398.941 245.71 400.096 247.571 401.24 248.8Z" fill="#1A202C"/>
<path d="M279.051 367.965C279.051 367.965 276.677 370.953 276.547 371.167C275.095 373.578 273.698 379.107 275.774 381.49C276.129 381.882 276.563 382.193 277.047 382.404C277.531 382.615 278.055 382.721 278.583 382.714C279.112 382.707 279.632 382.587 280.111 382.363C280.589 382.14 281.015 381.816 281.359 381.416C282.886 379.787 283.007 377.041 282.644 374.965C282.206 372.526 279.051 367.965 279.051 367.965Z" fill="#1A202C"/>
<path d="M255.938 379.935C258.73 381.481 263.813 379.005 265.889 377.068C266.065 376.901 268.56 373.987 268.504 373.969H268.448C269.258 373.587 270.124 373.159 271.055 372.675C272.786 371.744 274.722 370.739 276.751 369.464C278.958 368.119 281.084 366.646 283.118 365.051C285.402 363.272 287.526 361.298 289.466 359.15L289.532 359.066C289.159 359.913 288.173 362.306 288.117 362.501C287.353 365.219 287.465 370.878 290.099 372.656C290.543 372.937 291.042 373.12 291.561 373.194C292.081 373.268 292.611 373.231 293.115 373.086C293.62 372.941 294.088 372.691 294.489 372.352C294.89 372.013 295.215 371.594 295.442 371.121C296.485 369.147 295.88 366.466 294.986 364.605C293.981 362.454 290.062 359.103 289.746 358.843C291.661 356.603 293.427 354.24 295.033 351.769C295.964 350.335 296.894 348.855 297.76 347.366C297.462 348.11 297.192 348.771 297.164 348.874C296.401 351.582 296.513 357.251 299.147 359.029C299.591 359.309 300.089 359.492 300.609 359.566C301.129 359.64 301.658 359.604 302.163 359.459C302.667 359.314 303.136 359.064 303.537 358.725C303.938 358.386 304.263 357.966 304.49 357.493C305.533 355.52 304.928 352.839 304.034 350.977C303.14 349.116 299.836 346.128 298.961 345.392L299.966 343.67C301.558 340.878 303.14 338.141 304.769 335.47C305.346 334.539 305.951 333.608 306.547 332.724C306.277 333.375 306.054 333.934 306.026 334.027C305.263 336.736 305.374 342.404 308.009 344.182C308.453 344.462 308.951 344.646 309.471 344.72C309.99 344.794 310.52 344.757 311.024 344.612C311.529 344.467 311.997 344.217 312.398 343.878C312.799 343.539 313.124 343.12 313.352 342.646C314.394 340.673 313.789 337.992 312.895 336.084C312.002 334.176 309.023 331.523 307.981 330.611C308.623 329.68 309.265 328.749 309.926 327.93C310.382 327.362 310.792 326.776 311.294 326.227L312.728 324.579C313.659 323.574 314.645 322.522 315.595 321.554C316.256 320.874 316.889 320.251 317.531 319.608C316.945 320.539 315.846 322.401 315.772 322.54C314.832 324.838 314.492 327.336 314.785 329.801C314.669 330.053 314.575 330.314 314.506 330.583C314.359 331.087 314.321 331.617 314.394 332.138C314.467 332.658 314.649 333.157 314.929 333.602C315.209 334.047 315.579 334.427 316.016 334.719C316.454 335.01 316.948 335.206 317.466 335.293C320.593 335.749 324.475 331.57 325.713 329.047C325.787 328.898 326.402 327.185 326.774 326.106C326.653 326.776 326.523 327.427 326.411 328.116C326.178 329.484 325.983 330.853 325.769 332.333C325.685 333.04 325.601 333.766 325.527 334.502C325.452 335.237 325.415 335.991 325.359 336.754C325.266 338.504 325.257 340.291 325.294 342.088C324.093 341.883 319.83 341.213 317.782 341.743C315.734 342.274 313.286 343.493 312.421 345.551C312.198 346.027 312.079 346.545 312.072 347.071C312.064 347.597 312.168 348.118 312.376 348.601C312.585 349.084 312.893 349.517 313.281 349.872C313.669 350.227 314.128 350.496 314.627 350.661C317.652 351.592 322.12 348.055 323.73 345.737C323.833 345.588 324.801 343.801 325.313 342.805C325.313 343.884 325.359 344.964 325.424 346.053C325.601 349.199 325.881 352.392 326.15 355.566C326.234 356.497 326.299 357.512 326.374 358.48C325.946 358.405 320.901 357.502 318.601 358.089C316.563 358.61 314.106 359.848 313.24 361.905C313.019 362.382 312.902 362.9 312.896 363.425C312.889 363.95 312.994 364.471 313.204 364.953C313.413 365.434 313.722 365.866 314.11 366.22C314.498 366.574 314.956 366.842 315.455 367.006C318.471 367.937 322.948 364.4 324.559 362.082C324.68 361.915 326.067 359.29 326.42 358.657C326.588 360.798 326.728 362.929 326.774 365.042C326.866 367.888 326.77 370.736 326.486 373.569C326.29 373.569 321.022 372.573 318.667 373.178C316.628 373.699 314.171 374.928 313.314 376.985C313.092 377.461 312.973 377.979 312.965 378.505C312.958 379.031 313.061 379.552 313.27 380.035C313.478 380.518 313.787 380.951 314.174 381.306C314.562 381.661 315.021 381.93 315.52 382.095C318.536 383.026 323.014 379.489 324.624 377.171C324.745 376.985 326.244 374.211 326.486 373.69C326.486 373.848 326.486 374.025 326.486 374.183C326.113 377.025 325.49 379.828 324.624 382.56C324.168 384.078 323.647 385.493 323.116 386.861C322.185 386.582 317.736 385.353 315.558 385.66C313.38 385.967 310.903 386.917 309.814 388.862C309.542 389.312 309.368 389.813 309.304 390.335C309.24 390.856 309.287 391.385 309.441 391.887C309.596 392.389 309.855 392.853 310.202 393.247C310.549 393.642 310.975 393.959 311.453 394.177C314.357 395.424 319.188 392.409 321.04 390.286C321.143 390.175 322.036 388.881 322.679 387.931C322.427 388.546 322.176 389.188 321.925 389.793C320.994 391.98 319.979 393.935 319.085 395.657C318.564 396.635 318.071 397.519 317.615 398.31C316.526 398.533 312.151 399.464 310.392 400.721C308.632 401.978 306.836 403.979 306.771 406.204C306.736 406.728 306.812 407.253 306.995 407.746C307.178 408.238 307.463 408.686 307.831 409.061C308.2 409.436 308.643 409.728 309.132 409.919C309.622 410.11 310.146 410.195 310.671 410.169C313.817 409.945 316.721 405.04 317.382 402.294C317.447 402.061 317.922 398.254 317.857 398.264H317.792C318.257 397.5 318.722 396.662 319.262 395.75C320.193 394.038 321.245 392.111 322.241 389.923C323.337 387.583 324.294 385.181 325.108 382.728C326.04 380.002 326.726 377.199 327.156 374.35C327.152 374.316 327.152 374.282 327.156 374.248C327.305 375.179 327.807 377.701 327.873 377.897C328.729 380.578 331.968 385.269 335.124 385.278C335.649 385.268 336.167 385.146 336.642 384.92C337.117 384.695 337.539 384.372 337.881 383.972C338.222 383.572 338.474 383.104 338.622 382.599C338.769 382.094 338.808 381.564 338.735 381.043C338.512 378.828 336.529 376.929 334.733 375.821C332.704 374.583 327.593 373.96 327.184 373.913C327.55 370.989 327.718 368.044 327.686 365.098C327.686 363.385 327.621 361.654 327.547 359.923C327.696 360.705 327.845 361.412 327.873 361.505C328.729 364.195 331.968 368.877 335.124 368.886C335.649 368.876 336.167 368.754 336.642 368.529C337.117 368.303 337.539 367.98 337.881 367.58C338.222 367.18 338.474 366.712 338.622 366.207C338.769 365.702 338.808 365.172 338.735 364.651C338.521 362.436 336.529 360.537 334.733 359.439C332.936 358.34 328.561 357.698 327.407 357.577C327.407 356.916 327.342 356.255 327.305 355.585C327.1 352.402 326.895 349.218 326.783 346.1C326.783 345.001 326.783 343.912 326.783 342.823C326.923 343.521 327.044 344.108 327.072 344.192C327.928 346.882 331.168 351.573 334.323 351.573C334.848 351.562 335.365 351.44 335.839 351.216C336.314 350.991 336.735 350.669 337.076 350.27C337.417 349.87 337.67 349.404 337.818 348.9C337.966 348.396 338.006 347.867 337.935 347.347C337.721 345.122 335.729 343.223 333.932 342.125C332.136 341.027 328.189 340.459 326.821 340.263C326.821 339.146 326.877 338.039 326.96 336.959C327.035 336.224 327.044 335.516 327.165 334.781C327.286 334.046 327.351 333.329 327.444 332.621C327.677 331.253 327.91 329.829 328.17 328.507C328.347 327.576 328.533 326.701 328.71 325.817C328.71 326.915 328.831 329.056 328.869 329.233C329.306 332.026 331.791 337.145 334.919 337.611C335.439 337.679 335.968 337.636 336.471 337.486C336.973 337.336 337.439 337.081 337.836 336.738C338.233 336.395 338.553 335.972 338.776 335.497C338.998 335.022 339.118 334.505 339.126 333.98C339.247 331.746 337.572 329.578 335.961 328.219C334.193 326.72 329.446 325.361 328.831 325.193C329.138 323.732 329.455 322.308 329.762 320.967C330.172 319.217 330.581 317.579 330.972 316.08C330.516 315.671 329.948 315.15 329.287 314.619C328.853 316.406 328.4 318.386 327.928 320.558C327.612 322.047 327.305 323.639 326.998 325.286C325.404 325.249 323.809 325.305 322.222 325.454C321.431 323.211 318.425 319.692 318.034 319.245C319.095 318.193 320.137 317.179 321.143 316.239C322.865 314.61 324.466 313.158 325.918 311.882C325.397 311.473 324.857 311.054 324.298 310.635C322.939 311.892 321.44 313.307 319.839 314.889C318.76 315.95 317.624 317.114 316.461 318.314C315.967 317.97 311.881 315.15 309.6 314.731C307.525 314.349 304.788 314.442 303.14 315.941C302.736 316.281 302.408 316.703 302.18 317.18C301.951 317.656 301.826 318.176 301.814 318.704C301.802 319.232 301.902 319.757 302.108 320.244C302.314 320.73 302.622 321.167 303.01 321.526C305.365 323.63 310.903 322.298 313.333 320.865C313.473 320.781 314.934 319.692 315.837 319.003C315.371 319.497 314.906 319.934 314.431 320.483C313.5 321.489 312.57 322.531 311.564 323.639L310.168 325.314C309.693 325.864 309.237 326.506 308.79 327.111C307.748 328.516 306.752 329.996 305.784 331.514C304.853 330.685 301.707 327.79 299.715 327.083C297.723 326.375 294.996 326.068 293.143 327.306C292.698 327.585 292.317 327.955 292.025 328.391C291.733 328.828 291.536 329.321 291.448 329.839C291.36 330.357 291.383 330.887 291.515 331.396C291.646 331.904 291.884 332.379 292.212 332.789C294.223 335.218 299.901 334.744 302.517 333.72C302.684 333.655 304.481 332.696 305.458 332.147C304.881 333.077 304.304 334.008 303.755 334.939C302.163 337.666 300.646 340.468 299.101 343.27C298.635 344.126 298.17 344.973 297.686 345.821C297.369 345.523 293.655 341.986 291.412 341.213C289.42 340.524 286.693 340.198 284.84 341.436C284.397 341.715 284.017 342.084 283.725 342.52C283.434 342.956 283.238 343.448 283.15 343.965C283.063 344.481 283.085 345.011 283.216 345.518C283.346 346.026 283.583 346.5 283.909 346.91C285.92 349.348 291.598 348.874 294.214 347.84C294.409 347.757 297.006 346.37 297.63 345.979C296.587 347.84 295.526 349.702 294.409 351.499C292.906 353.918 291.252 356.24 289.457 358.452C289.308 358.312 285.445 354.608 283.155 353.798C281.163 353.109 278.436 352.783 276.584 354.021C276.139 354.3 275.757 354.67 275.465 355.106C275.173 355.543 274.977 356.036 274.889 356.554C274.801 357.071 274.824 357.602 274.955 358.11C275.087 358.619 275.325 359.094 275.653 359.504C277.664 361.933 283.342 361.458 285.967 360.435C286.171 360.351 288.945 358.861 289.429 358.573C289.327 358.703 289.234 358.843 289.122 358.973C287.254 361.134 285.202 363.127 282.988 364.93C281.768 365.936 280.558 366.839 279.348 367.723C278.706 366.95 275.699 363.497 273.717 362.548C271.734 361.598 269.137 361.021 267.201 362.054C266.726 362.278 266.304 362.6 265.962 362.999C265.62 363.398 265.367 363.865 265.218 364.368C265.07 364.872 265.03 365.401 265.1 365.922C265.171 366.442 265.351 366.942 265.628 367.388C267.359 370.031 273.075 370.18 275.774 369.426C275.923 369.426 277.375 368.812 278.436 368.365C277.887 368.747 277.328 369.138 276.789 369.492C274.797 370.795 272.888 371.874 271.204 372.815C270.273 373.336 269.342 373.801 268.513 374.22C267.48 373.801 263.319 372.163 261.169 372.237C259.019 372.312 256.394 372.991 255.119 374.816C254.563 375.608 254.338 376.586 254.491 377.542C254.644 378.497 255.163 379.356 255.938 379.935Z" fill="#1A202C"/>
<path d="M330.134 391.133C328.44 389.328 323.293 387.261 323.293 387.261C323.293 387.261 322.958 391.068 322.967 391.31C323.088 394.103 324.968 399.502 328.012 400.349C328.521 400.477 329.052 400.495 329.569 400.403C330.086 400.312 330.578 400.111 331.013 399.816C331.447 399.521 331.814 399.137 332.089 398.69C332.365 398.242 332.542 397.742 332.61 397.221C332.992 395.015 331.577 392.66 330.134 391.133Z" fill="#1A202C"/>
<path d="M407.505 83.9785H73.644V352.235H407.505V83.9785Z" fill="white" stroke="#1A202C" stroke-linejoin="round"/>
<path d="M364.063 317.821H322.418C321.331 317.821 320.29 317.39 319.522 316.621C318.754 315.853 318.322 314.812 318.322 313.725V266.002" fill="white"/>
<path d="M364.063 317.821H322.418C321.331 317.821 320.29 317.39 319.522 316.621C318.754 315.853 318.322 314.812 318.322 313.725V266.002" stroke="#1A202C" stroke-linejoin="round"/>
<path d="M390.312 218.985V313.725C390.31 314.813 389.876 315.854 389.107 316.622C388.337 317.39 387.295 317.821 386.208 317.821H368.149" fill="white"/>
<path d="M390.312 218.985V313.725C390.31 314.813 389.876 315.854 389.107 316.622C388.337 317.39 387.295 317.821 386.208 317.821H368.149" stroke="#1A202C" stroke-linejoin="round"/>
<path d="M318.322 262.79V190.483C318.322 189.946 318.428 189.414 318.634 188.918C318.84 188.421 319.142 187.97 319.522 187.591C319.903 187.211 320.354 186.91 320.851 186.705C321.348 186.501 321.88 186.396 322.418 186.397H386.207C386.745 186.396 387.278 186.501 387.776 186.705C388.273 186.91 388.725 187.211 389.106 187.59C389.487 187.97 389.79 188.42 389.997 188.917C390.204 189.413 390.311 189.946 390.312 190.483V216.361" fill="white"/>
<path d="M318.322 262.79V190.483C318.322 189.946 318.428 189.414 318.634 188.918C318.84 188.421 319.142 187.97 319.522 187.591C319.903 187.211 320.354 186.91 320.851 186.705C321.348 186.501 321.88 186.396 322.418 186.397H386.207C386.745 186.396 387.278 186.501 387.776 186.705C388.273 186.91 388.725 187.211 389.106 187.59C389.487 187.97 389.79 188.42 389.997 188.917C390.204 189.413 390.311 189.946 390.312 190.483V216.361" stroke="#1A202C" stroke-linejoin="round"/>
<path d="M390.312 190.483V212.572H318.322V190.483C318.322 189.946 318.428 189.414 318.634 188.918C318.84 188.421 319.142 187.97 319.522 187.591C319.903 187.211 320.354 186.91 320.851 186.705C321.348 186.501 321.88 186.396 322.418 186.397H386.207C386.745 186.396 387.278 186.501 387.776 186.705C388.273 186.91 388.725 187.211 389.106 187.59C389.487 187.97 389.79 188.42 389.997 188.917C390.204 189.413 390.311 189.946 390.312 190.483Z" fill="white" stroke="#1A202C" stroke-linejoin="round"/>
<path d="M407.505 83.9785H73.644V174.809H407.505V83.9785Z" fill="white" stroke="#1A202C" stroke-linejoin="round"/>
<path d="M382.615 153.269C386.833 152.229 389.409 147.967 388.369 143.749C387.329 139.532 383.067 136.956 378.849 137.995C374.632 139.035 372.056 143.297 373.096 147.515C374.135 151.733 378.397 154.309 382.615 153.269Z" fill="#A0AEC0" stroke="#1A202C" stroke-linejoin="round"/>
<path d="M357.073 142.341C357.653 142.341 358.124 141.87 358.124 141.289C358.124 140.708 357.653 140.237 357.073 140.237C356.492 140.237 356.021 140.708 356.021 141.289C356.021 141.87 356.492 142.341 357.073 142.341Z" fill="#1A202C"/>
<path d="M362.239 141.289C362.239 141.081 362.177 140.878 362.061 140.705C361.946 140.532 361.782 140.397 361.589 140.317C361.397 140.238 361.186 140.217 360.982 140.257C360.778 140.298 360.59 140.398 360.443 140.545C360.296 140.692 360.196 140.88 360.155 141.084C360.115 141.288 360.135 141.499 360.215 141.692C360.295 141.884 360.429 142.048 360.602 142.164C360.775 142.279 360.979 142.341 361.187 142.341C361.465 142.338 361.731 142.227 361.928 142.03C362.125 141.833 362.236 141.567 362.239 141.289Z" fill="#1A202C"/>
<path d="M366.362 141.289C366.362 141.081 366.301 140.878 366.185 140.705C366.069 140.532 365.905 140.397 365.713 140.317C365.521 140.238 365.309 140.217 365.105 140.257C364.901 140.298 364.714 140.398 364.567 140.545C364.42 140.692 364.319 140.88 364.279 141.084C364.238 141.288 364.259 141.499 364.339 141.692C364.418 141.884 364.553 142.048 364.726 142.164C364.899 142.279 365.102 142.341 365.31 142.341C365.589 142.338 365.855 142.227 366.051 142.03C366.248 141.833 366.36 141.567 366.362 141.289Z" fill="#1A202C"/>
<path d="M358.115 145.571C358.115 145.363 358.053 145.159 357.937 144.986C357.821 144.812 357.656 144.678 357.464 144.598C357.271 144.519 357.059 144.499 356.855 144.54C356.65 144.581 356.463 144.683 356.316 144.831C356.17 144.979 356.07 145.167 356.031 145.372C355.991 145.576 356.013 145.788 356.094 145.98C356.175 146.172 356.312 146.336 356.486 146.45C356.66 146.565 356.864 146.625 357.073 146.623C357.35 146.62 357.615 146.508 357.81 146.311C358.006 146.114 358.115 145.848 358.115 145.571Z" fill="#1A202C"/>
<path d="M362.239 145.571C362.239 145.363 362.177 145.159 362.061 144.987C361.946 144.814 361.782 144.679 361.589 144.599C361.397 144.52 361.186 144.499 360.982 144.539C360.778 144.58 360.59 144.68 360.443 144.827C360.296 144.974 360.196 145.162 360.155 145.366C360.115 145.57 360.135 145.781 360.215 145.973C360.295 146.166 360.429 146.33 360.602 146.445C360.775 146.561 360.979 146.623 361.187 146.623C361.465 146.62 361.731 146.509 361.928 146.312C362.125 146.115 362.236 145.849 362.239 145.571Z" fill="#1A202C"/>
<path d="M366.362 145.571C366.362 145.363 366.301 145.159 366.185 144.987C366.069 144.814 365.905 144.679 365.713 144.599C365.521 144.52 365.309 144.499 365.105 144.539C364.901 144.58 364.714 144.68 364.567 144.827C364.42 144.974 364.319 145.162 364.279 145.366C364.238 145.57 364.259 145.781 364.339 145.973C364.418 146.166 364.553 146.33 364.726 146.445C364.899 146.561 365.102 146.623 365.31 146.623C365.589 146.62 365.855 146.509 366.051 146.312C366.248 146.115 366.36 145.849 366.362 145.571Z" fill="#1A202C"/>
<path d="M358.115 149.834C358.115 149.626 358.053 149.422 357.937 149.249C357.821 149.076 357.656 148.941 357.464 148.861C357.271 148.782 357.059 148.762 356.855 148.803C356.65 148.844 356.463 148.946 356.316 149.094C356.17 149.242 356.07 149.43 356.031 149.635C355.991 149.839 356.013 150.051 356.094 150.243C356.175 150.435 356.312 150.599 356.486 150.713C356.66 150.828 356.864 150.888 357.073 150.886C357.35 150.883 357.615 150.772 357.81 150.575C358.006 150.378 358.115 150.111 358.115 149.834Z" fill="#1A202C"/>
<path d="M362.239 149.834C362.239 149.626 362.177 149.423 362.061 149.25C361.946 149.077 361.782 148.942 361.589 148.862C361.397 148.783 361.186 148.762 360.982 148.802C360.778 148.843 360.59 148.943 360.443 149.09C360.296 149.237 360.196 149.425 360.155 149.629C360.115 149.833 360.135 150.044 360.215 150.237C360.295 150.429 360.429 150.593 360.602 150.709C360.775 150.824 360.979 150.886 361.187 150.886C361.465 150.883 361.731 150.772 361.928 150.575C362.125 150.378 362.236 150.112 362.239 149.834Z" fill="#1A202C"/>
<path d="M366.362 149.834C366.362 149.626 366.301 149.423 366.185 149.25C366.069 149.077 365.905 148.942 365.713 148.862C365.521 148.783 365.309 148.762 365.105 148.802C364.901 148.843 364.714 148.943 364.567 149.09C364.42 149.237 364.319 149.425 364.279 149.629C364.238 149.833 364.259 150.044 364.339 150.237C364.418 150.429 364.553 150.593 364.726 150.709C364.899 150.824 365.102 150.886 365.31 150.886C365.589 150.883 365.855 150.772 366.051 150.575C366.248 150.378 366.36 150.112 366.362 149.834Z" fill="#1A202C"/>
<path d="M307.608 148.745C306.835 151.139 305.323 153.225 303.289 154.705C301.255 156.185 298.805 156.983 296.289 156.983H187.997" fill="white"/>
<path d="M307.608 148.745C306.835 151.139 305.323 153.225 303.289 154.705C301.255 156.185 298.805 156.983 296.289 156.983H187.997" stroke="#1A202C" stroke-linejoin="round"/>
<path d="M211.844 133.219H296.317C297.878 133.218 299.423 133.524 300.865 134.12C302.308 134.717 303.618 135.591 304.722 136.694C305.826 137.797 306.702 139.107 307.299 140.549C307.897 141.99 308.204 143.536 308.204 145.096" fill="white"/>
<path d="M211.844 133.219H296.317C297.878 133.218 299.423 133.524 300.865 134.12C302.308 134.717 303.618 135.591 304.722 136.694C305.826 137.797 306.702 139.107 307.299 140.549C307.897 141.99 308.204 143.536 308.204 145.096" stroke="#1A202C" stroke-linejoin="round"/>
<path d="M182.058 156.983H125.659C124.098 156.983 122.553 156.675 121.111 156.078C119.67 155.48 118.36 154.605 117.257 153.501C116.154 152.397 115.279 151.086 114.683 149.644C114.087 148.202 113.78 146.657 113.781 145.096C113.781 141.946 115.033 138.925 117.26 136.698C119.488 134.47 122.509 133.219 125.659 133.219H207.693" fill="white"/>
<path d="M182.058 156.983H125.659C124.098 156.983 122.553 156.675 121.111 156.078C119.67 155.48 118.36 154.605 117.257 153.501C116.154 152.397 115.279 151.086 114.683 149.644C114.087 148.202 113.78 146.657 113.781 145.096V145.096C113.781 141.946 115.033 138.925 117.26 136.698C119.488 134.47 122.509 133.219 125.659 133.219H207.693" stroke="#1A202C" stroke-linejoin="round"/>
<path d="M278.203 138.701V149.816" stroke="#1A202C" stroke-width="0.5" stroke-linejoin="round"/>
<path d="M269.565 138.804L259.14 149.229" stroke="#1A202C" stroke-linejoin="round"/>
<path d="M259.14 138.804L269.565 149.229" stroke="#1A202C" stroke-linejoin="round"/>
<path d="M296.41 149.518C296.252 149.689 296.035 149.795 295.802 149.814C295.569 149.833 295.338 149.764 295.154 149.62L290.881 145.729L291.691 144.752L296.271 148.261C296.448 148.414 296.561 148.629 296.587 148.862C296.612 149.095 296.549 149.329 296.41 149.518Z" fill="#1A202C" stroke="#1A202C" stroke-linejoin="round"/>
<path d="M285.436 140.405C284.929 141.019 284.615 141.771 284.535 142.564C284.454 143.356 284.611 144.155 284.984 144.859C285.358 145.563 285.932 146.141 286.633 146.519C287.335 146.897 288.133 147.058 288.926 146.983C289.72 146.907 290.473 146.598 291.091 146.095C291.708 145.591 292.163 144.916 292.397 144.154C292.631 143.393 292.635 142.579 292.406 141.815C292.178 141.052 291.728 140.373 291.114 139.865C290.707 139.526 290.236 139.271 289.729 139.115C289.223 138.958 288.691 138.904 288.163 138.954C287.635 139.004 287.123 139.158 286.655 139.407C286.187 139.656 285.772 139.995 285.436 140.405ZM291.198 145.171C290.763 145.694 290.182 146.077 289.53 146.27C288.877 146.464 288.182 146.46 287.532 146.259C286.882 146.057 286.306 145.668 285.877 145.14C285.448 144.611 285.185 143.968 285.121 143.29C285.057 142.613 285.196 141.931 285.519 141.332C285.842 140.734 286.336 140.244 286.937 139.925C287.539 139.606 288.221 139.473 288.898 139.542C289.575 139.611 290.217 139.879 290.742 140.312C291.093 140.6 291.383 140.956 291.597 141.357C291.81 141.759 291.941 142.198 291.984 142.651C292.026 143.103 291.978 143.56 291.844 143.994C291.709 144.428 291.489 144.831 291.198 145.18V145.171Z" fill="#1A202C" stroke="#1A202C" stroke-linejoin="round"/>
<path d="M407.496 83.9778H397.312V352.234H407.496V83.9778Z" fill="#A0AEC0" stroke="#1A202C" stroke-linejoin="round"/>
<path d="M407.496 137.463H397.312V163.778H407.496V137.463Z" fill="#8F8F8F" stroke="#1A202C" stroke-linejoin="round"/>
<path d="M407.505 83.9785H73.644V115.385H407.505V83.9785Z" fill="#FF725E" stroke="#1A202C" stroke-linejoin="round"/>
<path d="M407.505 83.9778H130.76V95.0174H407.505V83.9778Z" fill="#1A202C" stroke="#1A202C" stroke-linejoin="round"/>
<path d="M401.101 86.7517L395.264 92.5973" stroke="white" stroke-linejoin="round"/>
<path d="M395.264 86.7517L401.101 92.5973" stroke="white" stroke-linejoin="round"/>
<path d="M384.132 87.245H379.832V91.5454H384.132V87.245Z" fill="#1A202C" stroke="white" stroke-linejoin="round"/>
<path d="M382.066 88.2783H377.765V92.5788H382.066V88.2783Z" fill="#1A202C" stroke="white" stroke-linejoin="round"/>
<path d="M364.352 89.8887H356.914" stroke="white" stroke-linejoin="round"/>
<path d="M136.652 86.547V93.221" stroke="white" stroke-linejoin="round"/>
<path d="M139.993 89.8793H133.319" stroke="white" stroke-linejoin="round"/>
<path d="M116.015 193.481H184.72" stroke="#1A202C" stroke-linejoin="round"/>
<path d="M116.015 199.485H203.262" stroke="#1A202C" stroke-linejoin="round"/>
<path d="M116.015 206.568H295.964" stroke="#1A202C" stroke-linejoin="round"/>
<path d="M116.015 213.112H295.964" stroke="#1A202C" stroke-linejoin="round"/>
<path d="M116.015 219.656H295.964" stroke="#1A202C" stroke-linejoin="round"/>
<path d="M116.015 234.931H184.72" stroke="#1A202C" stroke-linejoin="round"/>
<path d="M116.015 240.925H203.262" stroke="#1A202C" stroke-linejoin="round"/>
<path d="M116.015 248.018H295.964" stroke="#1A202C" stroke-linejoin="round"/>
<path d="M116.015 254.562H295.964" stroke="#1A202C" stroke-linejoin="round"/>
<path d="M116.015 261.106H295.964" stroke="#1A202C" stroke-linejoin="round"/>
<path d="M116.015 276.371H184.72" stroke="#1A202C" stroke-linejoin="round"/>
<path d="M116.015 282.375H203.262" stroke="#1A202C" stroke-linejoin="round"/>
<path d="M116.015 289.459H295.964" stroke="#1A202C" stroke-linejoin="round"/>
<path d="M116.015 296.002H295.964" stroke="#1A202C" stroke-linejoin="round"/>
<path d="M116.015 302.546H295.964" stroke="#1A202C" stroke-linejoin="round"/>
<path d="M116.015 317.812H184.72" stroke="#1A202C" stroke-linejoin="round"/>
<path d="M116.015 323.816H203.262" stroke="#1A202C" stroke-linejoin="round"/>
<path d="M116.015 330.899H295.964" stroke="#1A202C" stroke-linejoin="round"/>
<path d="M116.015 337.443H295.964" stroke="#1A202C" stroke-linejoin="round"/>
<path d="M116.015 343.987H295.964" stroke="#1A202C" stroke-linejoin="round"/>
<path d="M323.042 220.27H355.397" stroke="#1A202C" stroke-linejoin="round"/>
<path d="M323.042 224.617H355.397" stroke="#1A202C" stroke-linejoin="round"/>
<path d="M323.042 228.973H386.189" stroke="#1A202C" stroke-linejoin="round"/>
<path d="M323.042 233.33H386.189" stroke="#1A202C" stroke-linejoin="round"/>
<path d="M323.042 237.686H386.189" stroke="#1A202C" stroke-linejoin="round"/>
<path d="M323.042 242.042H386.189" stroke="#1A202C" stroke-linejoin="round"/>
<path d="M323.042 246.398H386.189" stroke="#1A202C" stroke-linejoin="round"/>
<path d="M323.042 250.755H386.189" stroke="#1A202C" stroke-linejoin="round"/>
<path d="M323.042 255.111H386.189" stroke="#1A202C" stroke-linejoin="round"/>
<path d="M323.042 259.467H386.189" stroke="#1A202C" stroke-linejoin="round"/>
<path d="M323.042 269.734H355.397" stroke="#1A202C" stroke-linejoin="round"/>
<path d="M323.042 274.081H355.397" stroke="#1A202C" stroke-linejoin="round"/>
<path d="M323.042 278.438H386.189" stroke="#1A202C" stroke-linejoin="round"/>
<path d="M323.042 282.794H386.189" stroke="#1A202C" stroke-linejoin="round"/>
<path d="M323.042 287.15H386.189" stroke="#1A202C" stroke-linejoin="round"/>
<path d="M323.042 291.507H386.189" stroke="#1A202C" stroke-linejoin="round"/>
<path d="M323.042 295.863H386.189" stroke="#1A202C" stroke-linejoin="round"/>
<path d="M323.042 300.219H386.189" stroke="#1A202C" stroke-linejoin="round"/>
<path d="M323.042 304.575H386.189" stroke="#1A202C" stroke-linejoin="round"/>
<path d="M323.042 308.932H386.189" stroke="#1A202C" stroke-linejoin="round"/>
<path d="M415.026 415.056H426.699" stroke="#1A202C" stroke-linejoin="round"/>
<path d="M111.557 415.056H407.245" stroke="#1A202C" stroke-linejoin="round"/>
<path d="M46.1938 415.056H103.775" stroke="#1A202C" stroke-linejoin="round"/>
<path d="M239.146 396.895C239.146 396.895 249.106 397.482 251.451 396.895C253.797 396.309 258.488 392.502 259.075 395.434C259.661 398.366 256.441 402.471 254.421 404.807C252.401 407.144 244.182 409.21 241.817 410.392C239.453 411.575 235.953 414.497 233.021 414.497C230.089 414.497 228.367 404.817 228.367 404.817C228.367 404.817 237.154 399.548 239.537 395.732" fill="white"/>
<path d="M239.146 396.895C239.146 396.895 249.106 397.482 251.451 396.895C253.797 396.309 258.488 392.502 259.075 395.434C259.661 398.366 256.441 402.471 254.421 404.807C252.401 407.144 244.182 409.21 241.817 410.392C239.453 411.575 235.953 414.497 233.021 414.497C230.089 414.497 228.367 404.817 228.367 404.817C228.367 404.817 237.154 399.548 239.537 395.732" stroke="#1A202C" stroke-linejoin="round"/>
<path d="M258.554 394.55C252.578 405.571 242.729 407.442 242.729 407.442L230.256 411.602C230.982 413.213 231.895 414.488 232.946 414.488C235.879 414.488 239.397 411.556 241.743 410.383C244.088 409.21 252.298 407.153 254.346 404.798C256.394 402.443 259.624 398.357 259 395.425C258.97 395.086 258.81 394.772 258.554 394.55Z" fill="white" stroke="#1A202C" stroke-linejoin="round"/>
<path d="M133.459 389.458C133.459 389.458 125.826 398.105 125.175 400.628C124.57 403.048 130.397 406.567 131.905 407.628C135.874 410.364 140.203 412.538 144.769 414.088C146.388 414.646 154.338 416.517 153.295 412.58C152.523 409.666 146.416 406.306 145.644 404.593C144.871 402.88 143.596 399.539 143.596 399.539L133.459 389.458Z" fill="white" stroke="#1A202C" stroke-linejoin="round"/>
<path d="M131.905 407.674C135.874 410.411 140.203 412.585 144.769 414.134C146.174 414.618 152.355 416.089 153.277 413.892C150.484 413.734 145.122 412.85 138.262 408.931C133.716 406.398 129.391 403.486 125.333 400.228C125.272 400.374 125.219 400.523 125.175 400.674C124.57 403.085 130.397 406.604 131.905 407.674Z" fill="white" stroke="#1A202C" stroke-linejoin="round"/>
<path d="M154.133 280.923L157.307 304.352L159.997 353.788C159.997 353.788 151.787 361.701 147.105 366.978C142.423 372.256 131.737 390.659 131.737 390.659C131.737 390.659 132.584 395.266 137.834 398.403C143.084 401.54 145.932 401.056 145.932 401.056L149.721 394.456L151.08 391.478C151.08 391.478 181.695 361.998 182.281 358.182C182.868 354.366 185.902 313.111 185.902 313.111L209.834 348.222C209.834 348.222 212.775 371.372 215.102 376.957C217.429 382.542 227.129 400.702 227.129 400.702L228.301 404.798C229.546 405.199 230.872 405.275 232.154 405.019C233.436 404.764 234.632 404.184 235.627 403.337C237.652 401.458 239.432 399.331 240.923 397.007L237.675 393.079L237.088 390.435C237.088 390.435 229.176 343.242 227.417 337.676C225.658 332.109 204.212 283.874 204.212 283.874L199.557 270.982C199.557 270.982 195.164 273.905 181.676 278.01C168.188 282.115 154.133 280.923 154.133 280.923Z" fill="#1A202C" stroke="#1A202C" stroke-linejoin="round"/>
<path d="M183.985 285.912C193.814 281.426 198.459 276.948 200.628 274.016L199.52 270.963C199.52 270.963 195.127 273.886 181.639 277.991C169.538 281.658 157.074 281.118 154.552 280.96L154.096 281.025L154.961 287.29C159.649 288.993 164.629 289.748 169.611 289.512C174.593 289.275 179.479 288.052 183.985 285.912Z" fill="#FF725E" stroke="#1A202C" stroke-linejoin="round"/>
<path d="M148.957 212.405L125.873 229.551L152.029 278.577C152.289 280.408 153.234 282.071 154.673 283.232C157.093 285.214 172.917 284.777 178.632 283.017C184.507 280.994 190.177 278.416 195.564 275.319C197.984 273.784 201.279 270.479 200.395 267.622C199.804 265.776 198.995 264.007 197.984 262.353L193.33 248.94C193.33 248.94 211.574 250.038 213.995 250.038C216.415 250.038 224.764 228.936 224.764 228.936C224.764 228.936 222.344 228.713 221.469 227.177C220.92 226.117 220.501 224.995 220.222 223.835C217.668 225.317 215.026 226.642 212.31 227.801C207.656 229.774 202.852 230.211 200.879 229.336C198.906 228.461 187.242 217.906 184.608 214.601C181.974 211.297 181.527 209.947 180.652 209.947C179.777 209.947 163.506 211.055 161.524 211.055C159.541 211.055 148.957 212.405 148.957 212.405Z" fill="#FF725E" stroke="#1A202C" stroke-linejoin="round"/>
<path d="M221.507 227.14C220.952 226.124 220.52 225.046 220.222 223.928L219.533 224.72C219.533 224.72 216.015 227.354 216.899 231.096C217.448 233.432 220.148 234.223 222.53 234.428C223.871 231.273 224.811 228.899 224.811 228.899C224.811 228.899 222.382 228.676 221.507 227.14Z" fill="#FF725E" stroke="#1A202C" stroke-linejoin="round"/>
<path d="M184.217 222.616L183.035 219.218" stroke="#1A202C" stroke-linejoin="round"/>
<path d="M193.367 248.902L185.25 225.594" stroke="#1A202C" stroke-linejoin="round"/>
<path d="M149.172 296.468C147.893 295.41 146.84 294.106 146.074 292.633C145.309 291.16 144.847 289.549 144.716 287.894C144.585 286.24 144.787 284.576 145.311 283.001C145.835 281.426 146.67 279.973 147.766 278.726L237.908 175.302L251.684 186.704L166.867 294.532C165.847 295.841 164.574 296.932 163.125 297.741C161.675 298.55 160.078 299.06 158.428 299.24C156.779 299.421 155.109 299.268 153.519 298.792C151.929 298.316 150.451 297.526 149.172 296.468Z" fill="#1A202C" stroke="#1A202C" stroke-linejoin="round"/>
<path d="M213.929 202.817L147.766 278.726C146.727 279.981 145.945 281.427 145.465 282.983C144.985 284.54 144.816 286.175 144.969 287.797C145.121 289.418 145.591 290.994 146.352 292.434C147.113 293.874 148.15 295.15 149.404 296.189C150.658 297.228 152.105 298.01 153.661 298.49C155.218 298.97 156.853 299.138 158.475 298.986C160.096 298.834 161.672 298.364 163.112 297.603C164.552 296.842 165.828 295.805 166.867 294.55L229.437 214.992L213.929 202.817Z" fill="white" stroke="#1A202C" stroke-linejoin="round"/>
<path d="M313.1 98.5269C304.438 91.352 293.843 86.9071 282.655 85.7541C271.467 84.6012 260.188 86.7922 250.245 92.0499C240.302 97.3076 232.141 105.396 226.795 115.292C221.449 125.188 219.158 136.447 220.212 147.645C221.265 158.843 225.616 169.477 232.713 178.202C239.811 186.928 249.337 193.352 260.086 196.664C270.835 199.975 282.324 200.024 293.101 196.805C303.878 193.586 313.459 187.243 320.631 178.578C330.245 166.963 334.853 152.005 333.441 136.993C332.028 121.982 324.712 108.145 313.1 98.5269ZM245.792 179.807C238.378 173.669 232.951 165.471 230.197 156.248C227.443 147.026 227.485 137.194 230.319 127.996C233.152 118.798 238.65 110.646 246.116 104.573C253.582 98.4988 262.682 94.7754 272.265 93.8732C281.847 92.9711 291.482 94.9307 299.95 99.5043C308.419 104.078 315.341 111.06 319.842 119.568C324.342 128.076 326.219 137.727 325.234 147.301C324.25 156.875 320.448 165.943 314.31 173.356C310.235 178.279 305.23 182.351 299.581 185.339C293.932 188.327 287.75 190.173 281.387 190.772C275.025 191.371 268.606 190.711 262.499 188.83C256.391 186.948 250.714 183.882 245.792 179.807Z" fill="#1A202C" stroke="#1A202C" stroke-linejoin="round"/>
<path d="M224.802 228.899L233.179 215.709C233.179 215.709 236.251 209.77 237.135 208.672C238.019 207.574 241.529 206.252 238.671 206.252C235.813 206.252 234.948 208.011 234.948 208.011V203.357C234.948 202.035 234.948 198.768 233.198 198.991C231.448 199.215 232.071 201.784 231.736 204.297C231.587 205.405 230.331 210.422 230.331 210.422L228.469 203.022C228.385 202.662 228.171 202.346 227.869 202.133C227.567 201.92 227.198 201.826 226.831 201.868C226.468 201.923 226.189 202.091 226.189 202.501C226.454 204.498 226.82 206.48 227.287 208.439L226.607 212.163C226.607 212.163 225.677 206.345 224.327 204.8C223.731 204.12 222.689 205.377 223.126 206.475C223.564 207.574 223.768 213.754 223.768 213.754L223.545 216.389C223.545 216.389 222.009 213.754 221.134 212.433C220.259 211.111 218.928 211.772 219.589 213.754C220.25 215.737 221.786 219.032 221.786 219.032L220.222 223.835C220.222 223.835 217.764 231.31 224.802 228.899Z" fill="white" stroke="#1A202C" stroke-linejoin="round"/>
<path d="M234.911 208.011L233.375 212.405" stroke="#1A202C" stroke-linejoin="round"/>
<path d="M130.024 226.851C130.024 226.851 124.774 228.238 124.774 230.435C124.774 232.632 124.774 278.363 124.551 279.899C124.328 281.435 172.48 274.621 172.48 274.621L173.578 267.175L144.117 261.236L143.894 240.125" fill="#FF725E"/>
<path d="M130.024 226.851C130.024 226.851 124.774 228.238 124.774 230.435C124.774 232.632 124.774 278.363 124.551 279.899C124.328 281.435 172.48 274.621 172.48 274.621L173.578 267.175L144.117 261.236L143.894 240.125" stroke="#1A202C" stroke-linejoin="round"/>
<path d="M168.738 266.188L168.523 275.077L168.672 275.17L172.479 274.64L173.578 267.193L168.738 266.188Z" fill="#FF725E" stroke="#1A202C" stroke-linejoin="round"/>
<path d="M173.578 267.119C173.578 267.119 179.731 259.207 182.374 259.207C185.018 259.207 188.965 259.43 189.821 259.43C190.677 259.43 192.679 258.983 191.58 260.529C190.482 262.074 186.74 261.841 186.74 261.841L191.636 264.513C191.972 264.693 192.261 264.948 192.482 265.259C192.704 265.569 192.85 265.926 192.912 266.302C192.973 266.678 192.947 267.063 192.835 267.428C192.724 267.792 192.53 268.126 192.269 268.403C191.162 269.502 188.304 269.502 188.304 269.502C188.304 269.502 185.232 274.556 183.249 274.994C181.267 275.431 172.917 273.458 172.917 273.458L173.578 267.119Z" fill="white" stroke="#1A202C" stroke-linejoin="round"/>
<path d="M168.421 226.833L168.989 212.423L163.376 210.552L164.307 216.351L168.421 226.833Z" fill="#FF725E" stroke="#1A202C" stroke-linejoin="round"/>
<path d="M168.989 212.423L173.103 220.847L168.793 220.466L168.989 212.423Z" fill="#FF725E" stroke="#1A202C" stroke-linejoin="round"/>
<path d="M171.604 201.393C169.743 201.951 165.238 212.805 165.238 212.805L168.421 226.833L163.376 219.721L161.989 212.889L150.093 207.937L150.279 200.08C149.198 199.495 148.16 198.836 147.17 198.107C145.053 196.639 143.246 194.766 141.855 192.597C139.239 188.11 135.498 181.194 141.297 173.71C146.882 166.487 152.671 166.059 158.982 165.696H159.671C159.671 165.696 166.969 170.191 167.118 172.435C167.267 174.678 168.244 177.862 170.301 179.165C172.358 180.468 175.16 178.979 175.16 181.78C175.112 182.667 174.888 183.535 174.502 184.334C174.115 185.133 173.573 185.847 172.908 186.434C172.908 186.434 174.769 195.045 175.7 197.846C176.631 200.648 173.475 200.825 171.604 201.393Z" fill="white" stroke="#1A202C" stroke-linejoin="round"/>
<path d="M166.057 179.369C166.541 180.105 166.653 180.887 166.299 181.11C165.945 181.334 165.284 180.924 164.81 180.179C164.335 179.435 164.214 178.662 164.558 178.439C164.903 178.215 165.573 178.634 166.057 179.369Z" fill="#1A202C"/>
<path d="M161.691 178.941C161.691 178.941 161.877 175.758 164.865 175.758" stroke="#1A202C" stroke-linejoin="round"/>
<path d="M170.292 190.167C170.292 190.167 165.247 191.284 164.307 188.306" stroke="#1A202C" stroke-linejoin="round"/>
<path d="M157.949 172.398C159.634 174.073 153.453 178.187 152.522 180.068C151.592 181.948 153.276 184.927 153.453 186.239C153.63 187.551 149.162 191.284 149.162 191.284L147.468 192.969L148.78 198.209C148.78 198.209 148.185 198.209 147.17 198.107C145.053 196.639 143.246 194.766 141.855 192.597C139.239 188.11 135.498 181.194 141.297 173.71C146.882 166.487 152.671 166.059 158.982 165.696C157.893 166.431 156.516 166.757 155.734 167.557C154.58 168.646 156.264 170.703 157.949 172.398Z" fill="#A6A6A6" stroke="#1A202C" stroke-linejoin="round"/>
<path d="M151.406 192.038C151.406 192.038 148.613 187.738 145.225 190.176C141.837 192.615 148.017 198.219 149.153 199.15C150.289 200.081 153.807 196.534 153.807 196.534C154.454 197.469 155.282 198.265 156.241 198.876C157.2 199.486 158.271 199.899 159.392 200.09" fill="white"/>
<path d="M151.406 192.038C151.406 192.038 148.613 187.738 145.225 190.176C141.837 192.615 148.017 198.219 149.153 199.15C150.289 200.081 153.807 196.534 153.807 196.534C154.454 197.469 155.282 198.265 156.241 198.876C157.2 199.486 158.271 199.899 159.392 200.09" stroke="#1A202C" stroke-linejoin="round"/>
<path d="M154.766 169.028C154.766 169.028 146.724 178.01 144.666 182.125C143.271 185.028 142.083 188.027 141.111 191.098C141.111 191.098 136.996 190.726 134.595 188.11C132.193 185.494 134.781 175.199 139.454 170.154C142.369 167.048 145.786 164.455 149.563 162.484C149.563 162.484 143.577 162.67 145.839 160.986C148.101 159.301 153.695 158.556 157.437 160.427C157.932 160.619 158.383 160.907 158.764 161.275C159.145 161.644 159.449 162.084 159.658 162.571C159.867 163.059 159.977 163.582 159.981 164.113C159.985 164.643 159.883 165.168 159.681 165.658L154.766 169.028Z" fill="#1A202C" stroke="#1A202C" stroke-linejoin="round"/>
<path d="M148.967 206.81L145.113 214.992L160.193 223.649L162.743 212.33L148.967 206.81Z" fill="#FF725E" stroke="#1A202C" stroke-linejoin="round"/>
</g>
<defs>
<clipPath id="clip0">
<rect width="462" height="432" fill="white"/>
</clipPath>
</defs>
</svg>
