<svg width="164" height="120" viewBox="0 0 164 120" fill="none" xmlns="http://www.w3.org/2000/svg">
<g clip-path="url(#clip0)">
<path d="M3.32089 80.5766L2.41393 84.5612H4.26876C5.10068 84.5612 5.73028 84.3664 6.15761 83.9768C6.58949 83.5828 6.8054 82.974 6.8054 82.1505C6.8054 81.8628 6.75769 81.6192 6.66221 81.42C6.57124 81.2208 6.4303 81.0592 6.23942 80.9352C6.04849 80.8068 5.80755 80.7161 5.5166 80.6629C5.2302 80.6054 4.89154 80.5767 4.50058 80.5767L3.32089 80.5766ZM4.28236 76.3862L3.43 80.1184H4.146C4.67334 80.1184 5.11657 80.0631 5.4757 79.9524C5.83484 79.8373 6.12578 79.6823 6.34853 79.4875C6.57129 79.2927 6.73041 79.0647 6.82588 78.8035C6.92136 78.5423 6.96912 78.2634 6.96912 77.9668C6.96912 77.4222 6.80315 77.0237 6.47129 76.7714C6.13943 76.5146 5.64392 76.3862 4.98475 76.3862L4.28236 76.3862ZM0 85.0526L0.0750864 84.7405L0.893364 84.5612C0.988845 84.539 1.07521 84.4925 1.15249 84.4217C1.23433 84.3509 1.28657 84.2667 1.30922 84.1693L2.98673 76.7846C3.00951 76.6829 3.0004 76.5965 2.95948 76.5256C2.91856 76.4504 2.85266 76.4039 2.76174 76.3861L1.848 76.2135L1.92309 75.9014H5.24398C5.8486 75.9014 6.34862 75.9501 6.74412 76.0475C7.13963 76.1404 7.45332 76.2666 7.68516 76.426C7.91701 76.5854 8.07842 76.7713 8.16934 76.9838C8.26482 77.1919 8.31252 77.4088 8.31252 77.6346C8.31252 77.9622 8.24662 78.2655 8.11478 78.5444C7.9875 78.8189 7.81024 79.0646 7.58293 79.2816C7.35563 79.4985 7.08738 79.6867 6.77825 79.846C6.46912 80.001 6.1373 80.1228 5.78271 80.2113C6.14184 80.2335 6.46688 80.2932 6.75783 80.3906C7.05332 80.4836 7.30561 80.612 7.51473 80.7758C7.72839 80.9352 7.89202 81.1277 8.00567 81.3535C8.12387 81.5793 8.18299 81.8317 8.18299 82.1106C8.18299 82.4825 8.12164 82.8145 7.9989 83.1067C7.8807 83.3945 7.7193 83.6468 7.51473 83.8638C7.31016 84.0807 7.06922 84.2644 6.79191 84.415C6.51915 84.5655 6.22592 84.6895 5.91225 84.7869C5.59857 84.8799 5.27582 84.9485 4.94395 84.9927C4.61209 85.0326 4.28706 85.0525 3.96884 85.0525L0 85.0526Z" fill="#5F6163"/>
<path d="M11.6809 76.8643C11.5718 76.8643 11.4672 76.8443 11.3672 76.8045C11.2717 76.7646 11.1877 76.7115 11.1149 76.645C11.0467 76.5742 10.9921 76.4923 10.9512 76.3993C10.9103 76.302 10.8898 76.198 10.8898 76.0873C10.8898 75.981 10.9103 75.8814 10.9512 75.7884C10.9921 75.691 11.0467 75.6091 11.1149 75.5427C11.1876 75.4718 11.2717 75.4165 11.3672 75.3767C11.4672 75.3368 11.5718 75.3169 11.6809 75.3169C11.7945 75.3169 11.8991 75.3368 11.9946 75.3767C12.0946 75.4165 12.1809 75.4718 12.2537 75.5427C12.3264 75.6091 12.3832 75.691 12.4242 75.7884C12.4696 75.8814 12.4923 75.981 12.4923 76.0873C12.4923 76.1979 12.4696 76.3019 12.4242 76.3993C12.3832 76.4923 12.3264 76.5742 12.2537 76.645C12.181 76.7115 12.0946 76.7646 11.9946 76.8045C11.8991 76.8443 11.7945 76.8643 11.6809 76.8643ZM10.5625 85.1455C10.3989 85.1455 10.2512 85.1189 10.1193 85.0658C9.99204 85.0171 9.88292 84.9529 9.792 84.8732C9.70103 84.7891 9.63057 84.6984 9.58061 84.6009C9.53518 84.4992 9.51245 84.3973 9.51245 84.2954C9.51245 84.1449 9.52613 83.9922 9.55341 83.8372C9.58069 83.6823 9.61251 83.5185 9.64892 83.3458L10.4263 79.8659C10.4536 79.742 10.4445 79.6379 10.3991 79.5538C10.3537 79.4653 10.2604 79.3945 10.1195 79.3413L9.54669 79.1222V78.9428L11.8652 78.4847L10.9856 82.4028C10.9674 82.5002 10.9469 82.602 10.9242 82.7083C10.9014 82.8146 10.8787 82.923 10.856 83.0337C10.8332 83.1443 10.8105 83.2528 10.7879 83.3591C10.7651 83.4609 10.7446 83.556 10.7265 83.6446C10.7128 83.7331 10.7014 83.8128 10.6923 83.8837C10.683 83.9545 10.6784 84.0098 10.6784 84.0497C10.6784 84.0939 10.6921 84.1449 10.7194 84.2024C10.7467 84.2555 10.7876 84.3086 10.8422 84.3618C10.9012 84.4105 10.9716 84.4526 11.0535 84.4879C11.1353 84.5234 11.2308 84.5411 11.3399 84.5411C11.3672 84.5411 11.415 84.5366 11.4832 84.5276C11.5514 84.5143 11.6263 84.4988 11.7082 84.4812C11.79 84.459 11.8719 84.4369 11.9537 84.4148C12.0355 84.3926 12.1037 84.3705 12.1583 84.3484H12.2605V84.6473C12.1514 84.7137 12.0218 84.7779 11.8718 84.8398C11.7264 84.8974 11.5741 84.9505 11.415 84.9993C11.2558 85.0435 11.1013 85.0789 10.9513 85.1055C10.8012 85.1321 10.6717 85.1453 10.5626 85.1453L10.5625 85.1455Z" fill="#5F6163"/>
<path d="M15.5678 84.4881C15.8497 84.4881 16.1065 84.4394 16.3384 84.342C16.5702 84.2446 16.7771 84.1118 16.9589 83.9436C17.1453 83.7753 17.3067 83.5783 17.4431 83.3525C17.5795 83.1268 17.6931 82.8854 17.784 82.6287C17.875 82.3675 17.9432 82.0996 17.9886 81.8251C18.034 81.5506 18.0568 81.2783 18.0568 81.0083C18.0568 80.7471 18.0249 80.5036 17.9612 80.2778C17.9022 80.052 17.809 79.8572 17.6816 79.6934C17.5543 79.5251 17.3952 79.3945 17.2043 79.3016C17.0134 79.2086 16.786 79.1621 16.5224 79.1621C16.4178 79.1621 16.3019 79.1754 16.1746 79.202C16.0519 79.2285 15.9246 79.2706 15.7928 79.3281C15.6655 79.3856 15.5382 79.4564 15.4109 79.5406C15.2836 79.6247 15.1677 79.7243 15.0631 79.8394L14.0607 84.2158C14.1562 84.2645 14.2676 84.3066 14.3949 84.3419C14.5222 84.3774 14.654 84.4061 14.7904 84.4282C14.9267 84.4504 15.0608 84.4659 15.1927 84.4747C15.3291 84.4837 15.4541 84.4882 15.5677 84.4882L15.5678 84.4881ZM15.6565 85.1721C15.4701 85.1721 15.2973 85.1543 15.1382 85.1189C14.9791 85.0834 14.8359 85.037 14.7086 84.9794C14.5813 84.9219 14.4699 84.8555 14.3744 84.7802C14.279 84.7005 14.2017 84.6208 14.1426 84.5411L13.7949 85.1189H12.5811C12.6584 84.9683 12.7425 84.7736 12.8334 84.5345C12.9243 84.2954 12.9994 84.0431 13.0584 83.7774L14.6745 76.4193C14.7018 76.2998 14.6904 76.2024 14.6403 76.1271C14.5949 76.0474 14.504 75.981 14.3676 75.9279L13.7948 75.7087V75.5294L16.1132 75.0181C15.9905 75.5538 15.8678 76.0895 15.745 76.6252C15.6268 77.1609 15.5086 77.6966 15.3904 78.2323L15.0972 79.5206C15.3472 79.2505 15.5723 79.0425 15.7723 78.8964C15.9769 78.7458 16.1633 78.6373 16.3315 78.5709C16.5042 78.5001 16.661 78.4603 16.802 78.4514C16.9429 78.4381 17.0748 78.4315 17.1975 78.4315C17.5339 78.4315 17.8317 78.4934 18.0908 78.6174C18.3544 78.7369 18.5749 78.9052 18.7522 79.1221C18.9341 79.3391 19.0704 79.598 19.1614 79.8991C19.2568 80.2001 19.3046 80.5278 19.3046 80.882C19.3046 81.2317 19.2659 81.5815 19.1886 81.9312C19.1114 82.2766 18.9977 82.6086 18.8477 82.9273C18.7022 83.2461 18.5226 83.5428 18.3089 83.8173C18.0998 84.0873 17.8589 84.3242 17.5861 84.5278C17.3179 84.727 17.0201 84.8842 16.6928 84.9993C16.3701 85.1144 16.0245 85.172 15.6563 85.172L15.6565 85.1721Z" fill="#5F6163"/>
<path d="M21.4114 85.1455C21.2387 85.1455 21.0841 85.1189 20.9477 85.0658C20.8159 85.017 20.7022 84.9529 20.6067 84.8732C20.5158 84.7891 20.4453 84.6983 20.3953 84.6009C20.3453 84.4991 20.3203 84.3973 20.3203 84.2954C20.3203 84.1538 20.3339 84.0055 20.3612 83.8505C20.3885 83.6956 20.4203 83.5362 20.4567 83.3724L22.032 76.4193C22.0592 76.2998 22.0501 76.2024 22.0047 76.1271C21.9593 76.0474 21.8661 75.981 21.7252 75.9279L21.1523 75.7088V75.5294L23.4776 75.0181L21.7047 82.7946C21.6774 82.9141 21.6501 83.0359 21.6229 83.1599C21.5956 83.2794 21.5706 83.3945 21.5478 83.5052C21.5296 83.6158 21.5137 83.7177 21.5001 83.8107C21.4909 83.9037 21.4862 83.9833 21.4862 84.0497C21.4862 84.094 21.4999 84.1448 21.5271 84.2024C21.5589 84.2555 21.6021 84.3087 21.6567 84.3618C21.7112 84.4106 21.7794 84.4526 21.8612 84.4879C21.9476 84.5234 22.0453 84.5411 22.1545 84.5411C22.1817 84.5411 22.2317 84.5366 22.3044 84.5276C22.3771 84.5143 22.4567 84.4988 22.5431 84.4812C22.634 84.459 22.7226 84.4369 22.8091 84.4148C22.9 84.3927 22.9727 84.3705 23.0272 84.3485H23.1296V84.6473C23.0204 84.7137 22.8863 84.7779 22.7272 84.8399C22.5726 84.8974 22.4113 84.9505 22.2431 84.9993C22.0794 85.0435 21.9226 85.0789 21.7726 85.1055C21.6225 85.132 21.5021 85.1454 21.4112 85.1454L21.4114 85.1455Z" fill="#5F6163"/>
<path d="M26.2531 76.8643C26.144 76.8643 26.0394 76.8443 25.9394 76.8045C25.844 76.7646 25.7599 76.7115 25.6871 76.645C25.6189 76.5742 25.5644 76.4923 25.5235 76.3993C25.4826 76.302 25.4621 76.198 25.4621 76.0873C25.4621 75.981 25.4826 75.8814 25.5235 75.7884C25.5644 75.691 25.6189 75.6091 25.6871 75.5427C25.7598 75.4718 25.8439 75.4165 25.9394 75.3767C26.0394 75.3368 26.144 75.3169 26.2531 75.3169C26.3667 75.3169 26.4713 75.3368 26.5668 75.3767C26.6668 75.4165 26.7532 75.4718 26.8259 75.5427C26.8986 75.6091 26.9554 75.691 26.9964 75.7884C27.0418 75.8814 27.0645 75.981 27.0645 76.0873C27.0645 76.1979 27.0418 76.3019 26.9964 76.3993C26.9554 76.4923 26.8986 76.5742 26.8259 76.645C26.7532 76.7115 26.6668 76.7646 26.5668 76.8045C26.4713 76.8443 26.3667 76.8643 26.2531 76.8643ZM25.1348 85.1455C24.9712 85.1455 24.8234 85.1189 24.6915 85.0658C24.5643 85.0171 24.4551 84.9529 24.3642 84.8732C24.2732 84.7891 24.2028 84.6984 24.1528 84.6009C24.1074 84.4992 24.0847 84.3973 24.0847 84.2954C24.0847 84.1449 24.0983 83.9922 24.1256 83.8372C24.1529 83.6823 24.1847 83.5185 24.2211 83.3458L24.9985 79.8659C25.0258 79.742 25.0167 79.6379 24.9713 79.5538C24.9259 79.4653 24.8327 79.3945 24.6917 79.3413L24.1189 79.1222V78.9428L26.4374 78.4847L25.5578 82.4028C25.5396 82.5002 25.5192 82.602 25.4964 82.7083C25.4736 82.8146 25.4509 82.923 25.4282 83.0337C25.4055 83.1443 25.3827 83.2528 25.3601 83.3591C25.3373 83.4609 25.3168 83.556 25.2987 83.6446C25.2851 83.7331 25.2737 83.8128 25.2646 83.8837C25.2553 83.9545 25.2506 84.0098 25.2506 84.0497C25.2506 84.0939 25.2643 84.1449 25.2916 84.2024C25.3189 84.2555 25.3598 84.3086 25.4144 84.3618C25.4734 84.4105 25.5439 84.4526 25.6258 84.4879C25.7076 84.5234 25.803 84.5411 25.9121 84.5411C25.9394 84.5411 25.9872 84.5366 26.0554 84.5276C26.1236 84.5143 26.1986 84.4988 26.2804 84.4812C26.3622 84.459 26.4441 84.4369 26.5259 84.4148C26.6077 84.3926 26.6759 84.3705 26.7305 84.3484H26.8327V84.6473C26.7236 84.7137 26.594 84.7779 26.444 84.8398C26.2986 84.8974 26.1463 84.9505 25.9872 84.9993C25.8281 85.0435 25.6735 85.0789 25.5235 85.1055C25.3735 85.1321 25.2439 85.1453 25.1348 85.1453V85.1455Z" fill="#5F6163"/>
<path d="M29.9694 85.2188C29.5603 85.2188 29.1943 85.1567 28.8715 85.0328C28.5488 84.9088 28.276 84.7317 28.0533 84.5015C27.835 84.2713 27.6669 83.9946 27.5487 83.6714C27.435 83.3438 27.3782 82.9785 27.3782 82.5756C27.3782 82.2037 27.4191 81.8452 27.5009 81.4998C27.5873 81.1501 27.7055 80.8224 27.8556 80.517C28.0101 80.2071 28.1942 79.9259 28.4079 79.6736C28.6261 79.4168 28.867 79.1976 29.1307 79.0161C29.3989 78.8302 29.6876 78.6863 29.9967 78.5845C30.3058 78.4826 30.6309 78.4316 30.9718 78.4316C31.431 78.4316 31.8242 78.5025 32.1515 78.6442C32.4788 78.7858 32.7448 78.9784 32.9494 79.2219C33.1585 79.4654 33.3108 79.751 33.4063 80.0786C33.5017 80.4018 33.5495 80.7449 33.5495 81.1079C33.5495 81.471 33.5063 81.8252 33.42 82.1705C33.3381 82.5114 33.2199 82.8345 33.0654 83.14C32.9154 83.4455 32.7313 83.7267 32.513 83.9835C32.2994 84.2358 32.0607 84.455 31.7971 84.6409C31.5334 84.8224 31.247 84.9641 30.9378 85.0659C30.6287 85.1678 30.3059 85.2187 29.9695 85.2187L29.9694 85.2188ZM30.0445 84.7871C30.29 84.7871 30.515 84.7317 30.7196 84.6211C30.9287 84.506 31.1173 84.3532 31.2855 84.1628C31.4537 83.968 31.6015 83.7423 31.7288 83.4855C31.8606 83.2287 31.9698 82.9586 32.0561 82.6753C32.1425 82.3875 32.2084 82.0953 32.2539 81.7987C32.2993 81.502 32.322 81.2143 32.322 80.9354C32.322 80.652 32.2993 80.3842 32.2539 80.1318C32.2084 79.8794 32.1311 79.6603 32.022 79.4744C31.9129 79.284 31.7652 79.1357 31.5788 79.0295C31.3924 78.9188 31.1605 78.8634 30.8832 78.8634C30.6241 78.8634 30.3877 78.9255 30.174 79.0494C29.9604 79.169 29.7694 79.3305 29.6012 79.5342C29.433 79.7334 29.2853 79.9658 29.158 80.2315C29.0353 80.4971 28.933 80.7738 28.8512 81.0616C28.7693 81.345 28.7079 81.6305 28.667 81.9183C28.6261 82.2061 28.6056 82.4761 28.6056 82.7284C28.6056 82.9941 28.6261 83.2509 28.667 83.4988C28.7125 83.7467 28.7875 83.9659 28.8921 84.1562C29.0012 84.3466 29.1489 84.4994 29.3353 84.6145C29.5217 84.7296 29.7581 84.7872 30.0445 84.7872V84.7871Z" fill="#5F6163"/>
<path d="M36.059 85.1726C35.8544 85.1726 35.6658 85.1482 35.493 85.0995C35.3203 85.0508 35.1702 84.9821 35.0429 84.8936C34.9156 84.8006 34.8156 84.69 34.7429 84.5616C34.6747 84.4332 34.6406 84.2893 34.6406 84.1299C34.6406 84.0724 34.6474 83.9949 34.6611 83.8975C34.6792 83.8001 34.6997 83.6961 34.7225 83.5854C34.7452 83.4747 34.7679 83.3662 34.7906 83.2599C34.8179 83.1493 34.8406 83.0519 34.8587 82.9678L35.6907 79.1625H34.5928V78.857C34.8064 78.8305 34.9951 78.7995 35.1588 78.7641C35.3224 78.7287 35.4656 78.6755 35.5884 78.6047C35.7111 78.5294 35.8134 78.4298 35.8952 78.3059C35.9816 78.1819 36.052 78.0204 36.1066 77.8211L36.3248 77.0242L37.334 76.8184L36.9317 78.6579H39.1411L38.9842 79.1626H36.8157L36.0861 82.4963C36.0724 82.5671 36.052 82.6601 36.0247 82.7752C36.0019 82.8903 35.9769 83.0099 35.9496 83.1338C35.9223 83.2578 35.8996 83.3773 35.8815 83.4925C35.8633 83.6076 35.8543 83.7005 35.8543 83.7714C35.8543 83.8865 35.8884 83.9861 35.9566 84.0702C36.0293 84.1543 36.1156 84.2229 36.2157 84.2761C36.3157 84.3292 36.4202 84.369 36.5294 84.3956C36.643 84.4178 36.743 84.4289 36.8294 84.4289C36.8885 84.4289 36.9703 84.4201 37.0749 84.4024C37.1795 84.3847 37.2863 84.3626 37.3954 84.336C37.5045 84.3095 37.6091 84.2829 37.709 84.2563C37.809 84.2254 37.8841 84.1988 37.9341 84.1766H38.0296V84.4754C37.9614 84.5197 37.8546 84.5817 37.7091 84.6614C37.5682 84.7366 37.4045 84.8141 37.2182 84.8938C37.0363 84.9691 36.8431 85.0333 36.6385 85.0864C36.4385 85.1439 36.2453 85.1727 36.0589 85.1727L36.059 85.1726Z" fill="#5F6163"/>
<path d="M40.8938 81.4067C41.3166 81.4112 41.6757 81.378 41.9712 81.3071C42.2713 81.2318 42.5144 81.1211 42.7008 80.975C42.8917 80.8289 43.0281 80.6496 43.11 80.4371C43.1963 80.2202 43.2395 79.9722 43.2395 79.6933C43.2395 79.5827 43.2145 79.4808 43.1644 79.3878C43.119 79.2905 43.0485 79.2086 42.953 79.1421C42.8575 79.0713 42.7371 79.016 42.5916 78.9761C42.4461 78.9363 42.2734 78.9164 42.0734 78.9164C41.9415 78.9164 41.787 78.9695 41.6097 79.0757C41.4324 79.182 41.2528 79.3392 41.071 79.5473C40.8891 79.7554 40.7187 80.0143 40.5596 80.3242C40.4004 80.6341 40.2754 80.9905 40.1845 81.3934C40.2254 81.3934 40.2754 81.3957 40.3345 81.4002C40.3935 81.4002 40.4549 81.4024 40.5186 81.4069C40.5823 81.4069 40.6459 81.4069 40.7095 81.4069C40.7777 81.4069 40.8391 81.4069 40.8936 81.4069L40.8938 81.4067ZM41.2143 85.1854C41.0824 85.1854 40.9324 85.1699 40.7642 85.1389C40.6006 85.1124 40.4324 85.0637 40.2596 84.9929C40.0869 84.9177 39.9186 84.8181 39.755 84.6941C39.5913 84.5657 39.4459 84.4063 39.3186 84.2159C39.1913 84.0211 39.089 83.7909 39.0117 83.5252C38.9344 83.2596 38.8958 82.9497 38.8958 82.5955C38.8958 82.2591 38.9321 81.9226 39.0048 81.5861C39.082 81.2496 39.1934 80.9287 39.3389 80.6232C39.4889 80.3133 39.6708 80.0255 39.8845 79.7598C40.1027 79.4898 40.3504 79.2574 40.6277 79.0626C40.9096 78.8678 41.2187 78.715 41.5551 78.6043C41.8961 78.4892 42.2666 78.4316 42.6666 78.4316C42.8712 78.4316 43.0758 78.4538 43.2803 78.498C43.4895 78.5423 43.6758 78.6153 43.8395 78.7172C44.0032 78.8146 44.1373 78.9474 44.2418 79.1156C44.3463 79.2794 44.3985 79.4809 44.3985 79.72C44.3985 79.9767 44.3531 80.2092 44.2623 80.4172C44.1713 80.6209 44.0463 80.8024 43.8872 80.9618C43.7327 81.1212 43.5508 81.2584 43.3417 81.3735C43.1326 81.4886 42.9076 81.5838 42.6666 81.6591C42.4257 81.7344 42.1756 81.7897 41.9165 81.8251C41.6574 81.8605 41.4005 81.8783 41.146 81.8783C41.0778 81.8783 40.9937 81.8738 40.8937 81.8648C40.7937 81.8557 40.6937 81.8469 40.5936 81.8383C40.4936 81.825 40.3981 81.8139 40.3072 81.805C40.2209 81.7917 40.155 81.7806 40.1095 81.7717C40.1002 81.816 40.0912 81.8691 40.0823 81.9311C40.0776 81.9887 40.073 82.0484 40.0684 82.1105C40.0684 82.168 40.0661 82.2233 40.0615 82.2764C40.0615 82.3296 40.0615 82.3716 40.0615 82.4026C40.0615 82.6859 40.091 82.9516 40.15 83.1995C40.2091 83.4474 40.3069 83.6644 40.4433 83.8503C40.5796 84.0363 40.7592 84.1846 40.982 84.2952C41.2047 84.4015 41.4798 84.4546 41.8071 84.4546C42.048 84.4546 42.2685 84.4259 42.4685 84.3684C42.6731 84.3063 42.864 84.2288 43.0413 84.1359C43.2186 84.0385 43.3845 83.9323 43.5391 83.8172C43.6982 83.6976 43.8528 83.5825 44.0028 83.4718H44.1393L43.9551 84.0695C43.7642 84.22 43.5801 84.3639 43.4028 84.5012C43.2255 84.634 43.0323 84.7513 42.8232 84.8531C42.6186 84.955 42.3868 85.0347 42.1276 85.0922C41.8731 85.1541 41.5685 85.1851 41.2139 85.1851L41.2143 85.1854Z" fill="#5F6163"/>
<path d="M47.3442 85.1852C46.9669 85.1852 46.6191 85.1255 46.3009 85.0059C45.9872 84.8864 45.7144 84.7137 45.4826 84.4879C45.2553 84.2621 45.078 83.9877 44.9507 83.6645C44.8234 83.3413 44.7598 82.9761 44.7598 82.5687C44.7598 82.1437 44.8075 81.7474 44.903 81.38C44.9985 81.0081 45.1303 80.6694 45.2985 80.3639C45.4667 80.0584 45.6668 79.7862 45.8986 79.5471C46.1305 79.308 46.3827 79.1066 46.6555 78.9428C46.9283 78.7789 47.2146 78.655 47.5147 78.5709C47.8147 78.4823 48.1193 78.438 48.4285 78.438C48.624 78.438 48.8103 78.4513 48.9876 78.4778C49.1695 78.5044 49.3399 78.5421 49.499 78.5908C49.6582 78.6396 49.8037 78.7016 49.9355 78.7768C50.0719 78.8521 50.1878 78.9362 50.2832 79.0291L49.84 80.0319H49.7105C49.5878 79.8769 49.4378 79.7397 49.2605 79.6201C49.0832 79.4962 48.8967 79.3921 48.7012 79.308C48.5058 79.2239 48.3103 79.1597 48.1148 79.1154C47.9194 79.0712 47.7398 79.0491 47.5761 79.0491C47.4215 79.0491 47.2738 79.1 47.1329 79.2019C46.9965 79.3037 46.8692 79.4387 46.751 79.607C46.6328 79.7752 46.526 79.9678 46.4306 80.1847C46.3396 80.4017 46.26 80.6253 46.1919 80.8555C46.1282 81.0857 46.0782 81.3137 46.0419 81.5395C46.0101 81.7653 45.9942 81.9689 45.9942 82.1505C45.9942 82.5002 46.0283 82.8168 46.0965 83.1001C46.1647 83.379 46.2693 83.6181 46.4102 83.8173C46.5557 84.0166 46.7398 84.1693 46.9625 84.2756C47.1898 84.3818 47.458 84.435 47.7671 84.435C48.0854 84.435 48.3877 84.3774 48.6741 84.2623C48.9605 84.1472 49.2173 83.9856 49.4447 83.7775L49.7379 83.4787H49.8811L49.697 84.083C49.5106 84.2424 49.3402 84.3885 49.1856 84.5213C49.031 84.6541 48.8673 84.7715 48.6946 84.8733C48.5218 84.9707 48.3286 85.0459 48.1149 85.0991C47.9013 85.1566 47.6444 85.1854 47.3444 85.1854L47.3442 85.1852Z" fill="#5F6163"/>
<path d="M52.4996 84.4415C52.6132 84.4415 52.7405 84.4283 52.8815 84.4017C53.0224 84.3707 53.1656 84.3287 53.3111 84.2756C53.4611 84.218 53.6065 84.145 53.7475 84.0564C53.8929 83.9678 54.0247 83.8638 54.1429 83.7443L54.6203 81.5993C54.1884 81.5993 53.7793 81.6192 53.3929 81.659C53.0065 81.6945 52.6678 81.772 52.3768 81.8915C52.0859 82.0066 51.8563 82.1771 51.6881 82.4029C51.5245 82.6242 51.4449 82.9208 51.4495 83.2927C51.4495 83.4964 51.4744 83.6713 51.5245 83.8174C51.5791 83.9635 51.6518 84.083 51.7427 84.1759C51.8336 84.2689 51.9427 84.3376 52.0701 84.3818C52.1973 84.4217 52.3405 84.4416 52.4996 84.4416L52.4996 84.4415ZM51.9813 85.1721C51.6722 85.1721 51.4063 85.1278 51.1835 85.0392C50.9653 84.9462 50.7857 84.8244 50.6448 84.6739C50.5039 84.519 50.3993 84.3419 50.3311 84.1426C50.2629 83.9434 50.2288 83.7353 50.2288 83.5184C50.2242 83.204 50.2719 82.9274 50.372 82.6883C50.472 82.4448 50.6084 82.2345 50.7811 82.0574C50.9539 81.8803 51.154 81.732 51.3813 81.6124C51.6086 81.4885 51.8449 81.3889 52.0904 81.3136C52.3405 81.2383 52.5905 81.1852 52.8405 81.1542C53.0951 81.1233 53.3338 81.1078 53.5565 81.1078C53.602 81.1078 53.6792 81.1123 53.7884 81.1213C53.8975 81.1303 54.0112 81.1414 54.1293 81.1545C54.2521 81.1635 54.3657 81.1746 54.4703 81.1878C54.5794 81.1968 54.6544 81.2035 54.6953 81.2078L54.8112 80.6831C54.8248 80.63 54.8362 80.5702 54.8453 80.5038C54.8545 80.4374 54.8614 80.371 54.8658 80.3046C54.8704 80.2382 54.8727 80.1762 54.8727 80.1187C54.8773 80.0611 54.8796 80.0146 54.8796 79.9792C54.8796 79.8065 54.8501 79.6582 54.791 79.5342C54.732 79.4102 54.6502 79.3107 54.5456 79.2354C54.4456 79.1557 54.3251 79.0981 54.1842 79.0627C54.0478 79.0229 53.9023 79.0029 53.7477 79.0029C53.5432 79.0029 53.334 79.0406 53.1204 79.1159C52.9067 79.1867 52.6999 79.273 52.4998 79.3749C52.3044 79.4723 52.118 79.5741 51.9407 79.6804C51.7679 79.7867 51.6202 79.873 51.4975 79.9394H51.2792L51.5179 78.91L51.7293 78.8369C51.8793 78.7838 52.0293 78.7328 52.1794 78.6841C52.3294 78.631 52.4908 78.5867 52.6635 78.5512C52.8362 78.5157 53.0226 78.487 53.2226 78.4649C53.4272 78.4428 53.6591 78.4316 53.9182 78.4316C54.1819 78.4316 54.4387 78.456 54.6888 78.5048C54.9433 78.5535 55.1684 78.6376 55.3639 78.7571C55.5639 78.8722 55.723 79.0272 55.8412 79.222C55.9639 79.4168 56.0253 79.6603 56.0253 79.9525C56.0253 80.0233 56.0207 80.103 56.0114 80.1916C56.0022 80.2801 55.9908 80.3686 55.9772 80.4572C55.968 80.5458 55.9544 80.6343 55.9363 80.7228C55.9227 80.8069 55.9091 80.8822 55.8954 80.9487L55.5613 82.3897C55.5295 82.527 55.4954 82.6775 55.459 82.8413C55.4272 83.0007 55.3976 83.1556 55.3704 83.3062C55.3431 83.4567 55.3204 83.5961 55.3022 83.7245C55.2841 83.8485 55.275 83.9437 55.275 84.0101C55.275 84.0543 55.2886 84.1075 55.3159 84.1695C55.3432 84.2314 55.3818 84.2912 55.4319 84.3488C55.4865 84.4063 55.5547 84.455 55.6365 84.4949C55.7183 84.5347 55.8138 84.5547 55.9229 84.5547C55.9502 84.5547 55.9957 84.5502 56.0594 84.5412C56.1231 84.5321 56.1935 84.5188 56.2708 84.5013C56.348 84.4836 56.4252 84.4637 56.5026 84.4415C56.5799 84.4193 56.6458 84.3949 56.7003 84.3684H56.8027V84.6672C56.6935 84.7336 56.5708 84.7956 56.4344 84.8532C56.3026 84.9107 56.1639 84.9616 56.0185 85.006C55.873 85.0502 55.723 85.0835 55.5684 85.1056C55.4184 85.1322 55.2706 85.1455 55.1252 85.1455C54.9251 85.1455 54.7638 85.1123 54.641 85.0459C54.5183 84.9794 54.4206 84.8953 54.3478 84.7935C54.2751 84.6917 54.2205 84.5788 54.1841 84.4548C54.1523 84.3264 54.1251 84.2025 54.1023 84.0829C53.9296 84.2954 53.7522 84.4725 53.5704 84.6142C53.3931 84.7514 53.2135 84.8621 53.0317 84.9462C52.8498 85.026 52.6703 85.0835 52.493 85.1189C52.3157 85.1543 52.1452 85.1721 51.9816 85.1721H51.9813Z" fill="#5F6163"/>
<path d="M64.617 80.7161C65.0034 80.7161 65.3398 80.6408 65.6262 80.4903C65.9171 80.3353 66.1581 80.1361 66.349 79.8926C66.5445 79.6491 66.69 79.3768 66.7854 79.0758C66.8809 78.7703 66.9286 78.467 66.9286 78.166C66.9286 77.9269 66.8946 77.6989 66.8263 77.482C66.7581 77.265 66.6445 77.0769 66.4854 76.9175C66.3308 76.7537 66.124 76.6253 65.8649 76.5323C65.6103 76.435 65.2966 76.3862 64.9238 76.3862H64.1874L63.2191 80.6032C63.2873 80.6209 63.3782 80.6364 63.4919 80.6496C63.6101 80.6629 63.735 80.6762 63.8669 80.6895C64.0033 80.6985 64.1374 80.7051 64.2692 80.7094C64.401 80.7139 64.517 80.7162 64.617 80.7162V80.7161ZM63.5873 85.0526H59.8982L59.9733 84.7405L60.7916 84.5612C60.8915 84.539 60.9802 84.4925 61.0575 84.4217C61.1347 84.3509 61.1847 84.2667 61.2075 84.1693L62.8918 76.7846C62.9146 76.6829 62.9032 76.5965 62.8576 76.5256C62.8122 76.4504 62.7486 76.4039 62.6667 76.3861L61.7529 76.2135L61.8211 75.9014H65.217C65.6443 75.9014 66.0421 75.9434 66.4103 76.0275C66.7831 76.1116 67.1059 76.2422 67.3786 76.4193C67.6514 76.592 67.865 76.8111 68.0196 77.0768C68.1787 77.3424 68.2583 77.6545 68.2583 78.0131C68.2583 78.5001 68.1628 78.9451 67.9719 79.348C67.7809 79.7464 67.5241 80.0873 67.2013 80.3706C66.8785 80.654 66.5035 80.8731 66.0762 81.0281C65.6488 81.1831 65.1988 81.2606 64.726 81.2606C64.6078 81.2606 64.4737 81.2494 64.3237 81.2273C64.1782 81.2007 64.0327 81.1675 63.8872 81.1277C63.7418 81.0878 63.6054 81.0413 63.4781 80.9882C63.3508 80.935 63.2463 80.8797 63.1644 80.8222L62.4075 84.1692C62.3848 84.271 62.3962 84.3595 62.4417 84.4348C62.4918 84.5056 62.5577 84.5477 62.6395 84.561L63.6623 84.7403L63.5873 85.0526Z" fill="#5F6163"/>
<path d="M70.3933 85.1724C70.1614 85.1724 69.9454 85.1436 69.7454 85.0861C69.5454 85.0329 69.3726 84.9466 69.2272 84.8271C69.0817 84.7076 68.9658 84.557 68.8794 84.3755C68.7976 84.1895 68.7566 83.9682 68.7566 83.7114C68.7566 83.6095 68.7634 83.5011 68.7771 83.386C68.7907 83.2709 68.8112 83.1513 68.8385 83.0274L69.5408 79.8464C69.5636 79.7313 69.5522 79.6316 69.5067 79.5475C69.4657 79.4634 69.3749 79.3948 69.2339 79.3417L68.6611 79.1225V78.9432L71.0069 78.485L70.0522 82.6688C70.0158 82.8193 69.9862 82.9698 69.9636 83.1203C69.9408 83.2709 69.9295 83.4059 69.9295 83.5254C69.9295 83.6715 69.9522 83.8 69.9976 83.9107C70.043 84.0213 70.1135 84.1165 70.209 84.1962C70.3045 84.2715 70.4249 84.3291 70.5704 84.3689C70.7158 84.4087 70.8909 84.4287 71.0954 84.4287C71.2227 84.4287 71.3591 84.4175 71.5046 84.3954C71.6546 84.3688 71.8024 84.3289 71.9478 84.2758C72.0933 84.2227 72.2365 84.1563 72.3775 84.0766C72.5184 83.9925 72.6479 83.8929 72.7661 83.7777L73.6594 79.8463C73.6776 79.7578 73.6912 79.656 73.7003 79.5408C73.714 79.4213 73.723 79.3017 73.7275 79.1822C73.7322 79.0627 73.7345 78.952 73.7345 78.8502C73.7391 78.7439 73.7414 78.6598 73.7414 78.5978H75.0711L74.1233 82.7883C74.096 82.9078 74.0688 83.0296 74.0415 83.1535C74.0187 83.2731 73.996 83.3882 73.9733 83.4989C73.9552 83.6095 73.9393 83.7091 73.9256 83.7977C73.9164 83.8863 73.9118 83.9571 73.9118 84.0102C73.9118 84.0544 73.9231 84.1076 73.9459 84.1696C73.9732 84.2315 74.0141 84.2913 74.0687 84.3489C74.1232 84.4064 74.1891 84.4551 74.2664 84.4949C74.3483 84.5348 74.4437 84.5547 74.5528 84.5547C74.5801 84.5547 74.6233 84.5502 74.6823 84.5412C74.746 84.5279 74.8142 84.5147 74.8869 84.5014C74.9596 84.4837 75.0323 84.4638 75.1051 84.4416C75.1778 84.4194 75.2415 84.395 75.2961 84.3685H75.3984V84.6673C75.2892 84.7337 75.1688 84.7957 75.037 84.8533C74.9097 84.9108 74.7733 84.9617 74.6278 85.0061C74.4869 85.0459 74.3414 85.0791 74.1914 85.1057C74.0414 85.1323 73.8936 85.1456 73.7482 85.1456C73.5754 85.1456 73.4277 85.1123 73.3049 85.0459C73.1868 84.9795 73.089 84.8954 73.0117 84.7936C72.9344 84.6918 72.873 84.5789 72.8276 84.4549C72.7867 84.3265 72.7571 84.2025 72.739 84.083C72.498 84.353 72.2662 84.5611 72.0435 84.7072C71.8207 84.8533 71.6093 84.9618 71.4093 85.0326C71.2138 85.099 71.0297 85.1389 70.8569 85.1522C70.6842 85.1655 70.5296 85.1721 70.3933 85.1721V85.1724ZM71.873 77.9205L71.6275 77.7279C71.8548 77.4136 72.0571 77.1346 72.2344 76.8911C72.4117 76.6432 72.5685 76.4285 72.7049 76.247C72.8413 76.061 72.9617 75.906 73.0663 75.7821C73.1754 75.6537 73.2754 75.5497 73.3663 75.47C73.4618 75.3903 73.5527 75.3327 73.6391 75.2973C73.7255 75.2619 73.8163 75.2441 73.9118 75.2441C73.98 75.2441 74.0414 75.2574 74.096 75.284C74.1505 75.3062 74.1983 75.3372 74.2392 75.377C74.2801 75.4169 74.3096 75.4634 74.3278 75.5165C74.3506 75.5696 74.362 75.6228 74.362 75.6759C74.362 75.7512 74.3506 75.8199 74.3278 75.8818C74.3096 75.9393 74.2778 75.9947 74.2323 76.0478C74.1914 76.1009 74.1391 76.1563 74.0755 76.2138C74.0164 76.2669 73.946 76.3267 73.8641 76.3931L71.873 77.9205Z" fill="#5F6163"/>
<path d="M78.7324 84.4881C79.0142 84.4881 79.2711 84.4394 79.503 84.342C79.7348 84.2446 79.9417 84.1118 80.1235 83.9436C80.3099 83.7753 80.4713 83.5783 80.6076 83.3525C80.744 83.1268 80.8577 82.8854 80.9486 82.6287C81.0396 82.3675 81.1077 82.0996 81.1531 81.8251C81.1986 81.5506 81.2213 81.2783 81.2213 81.0083C81.2213 80.7471 81.1895 80.5036 81.1258 80.2778C81.0667 80.052 80.9735 79.8572 80.8462 79.6934C80.7189 79.5251 80.5598 79.3945 80.3689 79.3016C80.178 79.2086 79.9506 79.1621 79.687 79.1621C79.5824 79.1621 79.4665 79.1754 79.3392 79.202C79.2165 79.2285 79.0892 79.2706 78.9573 79.3281C78.8301 79.3856 78.7027 79.4564 78.5754 79.5406C78.4482 79.6247 78.3322 79.7243 78.2277 79.8394L77.2253 84.2158C77.3207 84.2645 77.4322 84.3066 77.5594 84.3419C77.6867 84.3774 77.8185 84.4061 77.9549 84.4282C78.0913 84.4504 78.2254 84.4659 78.3572 84.4747C78.4936 84.4837 78.6186 84.4882 78.7323 84.4882L78.7324 84.4881ZM78.821 85.1721C78.6346 85.1721 78.4619 85.1543 78.3028 85.1189C78.1437 85.0834 78.0004 85.037 77.8732 84.9794C77.7459 84.9219 77.6345 84.8555 77.5391 84.7802C77.4436 84.7005 77.3663 84.6208 77.3072 84.5411L76.9594 85.1189H75.7456C75.8229 84.9683 75.9071 84.7736 75.998 84.5345C76.0888 84.2954 76.1638 84.0431 76.223 83.7774L77.8391 76.4193C77.8664 76.2998 77.8549 76.2024 77.8049 76.1271C77.7595 76.0474 77.6685 75.981 77.5321 75.9279L76.9594 75.7087V75.5294L79.2778 75.0181C79.1551 75.5538 79.0324 76.0895 78.9096 76.6252C78.7914 77.1609 78.6732 77.6966 78.555 78.2323L78.2618 79.5206C78.5118 79.2505 78.7368 79.0425 78.9369 78.8964C79.1414 78.7458 79.3278 78.6373 79.496 78.5709C79.6688 78.5001 79.8256 78.4603 79.9665 78.4514C80.1074 78.4381 80.2393 78.4315 80.3621 78.4315C80.6985 78.4315 80.9962 78.4934 81.2554 78.6174C81.519 78.7369 81.7395 78.9052 81.9168 79.1221C82.0987 79.3391 82.235 79.598 82.326 79.8991C82.4214 80.2001 82.4691 80.5278 82.4691 80.882C82.4691 81.2317 82.4306 81.5815 82.3534 81.9312C82.276 82.2766 82.1623 82.6086 82.0124 82.9273C81.8669 83.2461 81.6873 83.5428 81.4736 83.8173C81.2645 84.0873 81.0236 84.3242 80.7508 84.5278C80.4826 84.727 80.1849 84.8842 79.8576 84.9993C79.5348 85.1144 79.1893 85.172 78.8211 85.172L78.821 85.1721Z" fill="#5F6163"/>
<path d="M84.5767 85.1455C84.404 85.1455 84.2494 85.1189 84.113 85.0658C83.9812 85.017 83.8675 84.9529 83.772 84.8732C83.6812 84.7891 83.6107 84.6983 83.5607 84.6009C83.5106 84.4991 83.4856 84.3973 83.4856 84.2954C83.4856 84.1538 83.4992 84.0055 83.5265 83.8505C83.5538 83.6956 83.5857 83.5362 83.6221 83.3724L85.1972 76.4193C85.2245 76.2998 85.2155 76.2024 85.17 76.1271C85.1246 76.0474 85.0314 75.981 84.8904 75.9279L84.3176 75.7088V75.5294L86.6429 75.0181L84.87 82.7946C84.8427 82.9141 84.8154 83.0359 84.7881 83.1599C84.7609 83.2794 84.7358 83.3945 84.7131 83.5052C84.6949 83.6158 84.679 83.7177 84.6654 83.8107C84.6561 83.9037 84.6515 83.9833 84.6515 84.0497C84.6515 84.094 84.6651 84.1448 84.6924 84.2024C84.7242 84.2555 84.7674 84.3087 84.822 84.3618C84.8765 84.4106 84.9447 84.4526 85.0265 84.4879C85.1129 84.5234 85.2106 84.5411 85.3197 84.5411C85.347 84.5411 85.397 84.5366 85.4697 84.5276C85.5425 84.5143 85.622 84.4988 85.7084 84.4812C85.7994 84.459 85.888 84.4369 85.9743 84.4148C86.0652 84.3927 86.138 84.3705 86.1926 84.3485H86.2948V84.6473C86.1857 84.7137 86.0516 84.7779 85.8925 84.8399C85.738 84.8974 85.5766 84.9505 85.4084 84.9993C85.2447 85.0435 85.0879 85.0789 84.9378 85.1055C84.7878 85.132 84.6674 85.1454 84.5764 85.1454L84.5767 85.1455Z" fill="#5F6163"/>
<path d="M89.4182 76.8643C89.309 76.8643 89.2045 76.8443 89.1045 76.8045C89.009 76.7646 88.9249 76.7115 88.8522 76.645C88.784 76.5742 88.7294 76.4923 88.6885 76.3993C88.6476 76.302 88.6271 76.198 88.6271 76.0873C88.6271 75.981 88.6476 75.8814 88.6885 75.7884C88.7294 75.691 88.784 75.6091 88.8522 75.5427C88.9249 75.4718 89.009 75.4165 89.1045 75.3767C89.2045 75.3368 89.309 75.3169 89.4182 75.3169C89.5318 75.3169 89.6363 75.3368 89.7318 75.3767C89.8318 75.4165 89.9182 75.4718 89.991 75.5427C90.0637 75.6091 90.1205 75.691 90.1614 75.7884C90.2068 75.8814 90.2295 75.981 90.2295 76.0873C90.2295 76.1979 90.2068 76.3019 90.1614 76.3993C90.1205 76.4923 90.0637 76.5742 89.991 76.645C89.9182 76.7115 89.8319 76.7646 89.7318 76.8045C89.6363 76.8443 89.5318 76.8643 89.4182 76.8643ZM88.2998 85.1455C88.1362 85.1455 87.9884 85.1189 87.8566 85.0658C87.7293 85.0171 87.6202 84.9529 87.5293 84.8732C87.4383 84.7891 87.3679 84.6984 87.3179 84.6009C87.2725 84.4992 87.2498 84.3973 87.2498 84.2954C87.2498 84.1449 87.2634 83.9922 87.2907 83.8372C87.3179 83.6823 87.3498 83.5185 87.3862 83.3458L88.1636 79.8659C88.1909 79.742 88.1818 79.6379 88.1363 79.5538C88.0909 79.4653 87.9977 79.3945 87.8568 79.3413L87.284 79.1222V78.9428L89.6025 78.4847L88.7228 82.4028C88.7046 82.5002 88.6842 82.602 88.6614 82.7083C88.6386 82.8146 88.6159 82.923 88.5933 83.0337C88.5705 83.1443 88.5478 83.2528 88.5251 83.3591C88.5023 83.4609 88.4819 83.556 88.4637 83.6446C88.4501 83.7331 88.4387 83.8128 88.4296 83.8837C88.4203 83.9545 88.4157 84.0098 88.4157 84.0497C88.4157 84.0939 88.4294 84.1449 88.4566 84.2024C88.4839 84.2555 88.5248 84.3086 88.5794 84.3618C88.6385 84.4105 88.7089 84.4526 88.7908 84.4879C88.8726 84.5234 88.9681 84.5411 89.0772 84.5411C89.1044 84.5411 89.1522 84.5366 89.2204 84.5276C89.2886 84.5143 89.3636 84.4988 89.4455 84.4812C89.5273 84.459 89.6091 84.4369 89.6909 84.4148C89.7728 84.3926 89.841 84.3705 89.8955 84.3484H89.9978V84.6473C89.8887 84.7137 89.7591 84.7779 89.6091 84.8398C89.4636 84.8974 89.3114 84.9505 89.1523 84.9993C88.9931 85.0435 88.8385 85.0789 88.6885 85.1055C88.5385 85.1321 88.4089 85.1453 88.2998 85.1453V85.1455Z" fill="#5F6163"/>
<path d="M93.1003 85.1852C92.723 85.1852 92.3752 85.1255 92.057 85.0059C91.7433 84.8864 91.4705 84.7137 91.2387 84.4879C91.0114 84.2621 90.8341 83.9877 90.7068 83.6645C90.5795 83.3413 90.5159 82.9761 90.5159 82.5687C90.5159 82.1437 90.5636 81.7474 90.6591 81.38C90.7545 81.0081 90.8864 80.6694 91.0546 80.3639C91.2228 80.0584 91.4228 79.7862 91.6547 79.5471C91.8865 79.308 92.1388 79.1066 92.4116 78.9428C92.6843 78.7789 92.9708 78.655 93.2708 78.5709C93.5708 78.4823 93.8754 78.438 94.1845 78.438C94.38 78.438 94.5664 78.4513 94.7437 78.4778C94.9255 78.5044 95.096 78.5421 95.2551 78.5908C95.4142 78.6396 95.5597 78.7016 95.6916 78.7768C95.8279 78.8521 95.9438 78.9362 96.0393 79.0291L95.5961 80.0319H95.4666C95.3438 79.8769 95.1938 79.7397 95.0165 79.6201C94.8392 79.4962 94.6528 79.3921 94.4573 79.308C94.2618 79.2239 94.0664 79.1597 93.8709 79.1154C93.6754 79.0712 93.4958 79.0491 93.3322 79.0491C93.1776 79.0491 93.0299 79.1 92.889 79.2019C92.7526 79.3037 92.6253 79.4387 92.5071 79.607C92.3889 79.7752 92.282 79.9678 92.1866 80.1847C92.0957 80.4017 92.0162 80.6253 91.9479 80.8555C91.8842 81.0857 91.8342 81.3137 91.798 81.5395C91.7662 81.7653 91.7502 81.9689 91.7502 82.1505C91.7502 82.5002 91.7844 82.8168 91.8526 83.1001C91.9208 83.379 92.0253 83.6181 92.1662 83.8173C92.3117 84.0166 92.4958 84.1693 92.7186 84.2756C92.9459 84.3818 93.2141 84.435 93.5232 84.435C93.8414 84.435 94.1438 84.3774 94.4302 84.2623C94.7166 84.1472 94.9734 83.9856 95.2007 83.7775L95.4939 83.4787H95.6372L95.453 84.083C95.2666 84.2424 95.0962 84.3885 94.9416 84.5213C94.787 84.6541 94.6234 84.7715 94.4506 84.8733C94.2779 84.9707 94.0847 85.0459 93.871 85.0991C93.6573 85.1566 93.4005 85.1854 93.1005 85.1854L93.1003 85.1852Z" fill="#5F6163"/>
<path d="M98.2557 84.4415C98.3694 84.4415 98.4966 84.4283 98.6376 84.4017C98.7785 84.3707 98.9217 84.3287 99.0672 84.2756C99.2172 84.218 99.3627 84.145 99.5036 84.0564C99.6491 83.9678 99.7809 83.8638 99.8991 83.7443L100.376 81.5993C99.9446 81.5993 99.5355 81.6192 99.149 81.659C98.7626 81.6945 98.4239 81.772 98.133 81.8915C97.842 82.0066 97.6124 82.1771 97.4442 82.4029C97.2806 82.6242 97.201 82.9208 97.2056 83.2927C97.2056 83.4964 97.2306 83.6713 97.2807 83.8174C97.3352 83.9635 97.408 84.083 97.4989 84.1759C97.5897 84.2689 97.6988 84.3376 97.8262 84.3818C97.9534 84.4217 98.0967 84.4416 98.2558 84.4416L98.2557 84.4415ZM97.7375 85.1721C97.4284 85.1721 97.1624 85.1278 96.9396 85.0392C96.7214 84.9462 96.5419 84.8244 96.4009 84.6739C96.26 84.519 96.1555 84.3419 96.0873 84.1426C96.0191 83.9434 95.9849 83.7353 95.9849 83.5184C95.9803 83.204 96.0281 82.9274 96.1282 82.6883C96.2282 82.4448 96.3645 82.2345 96.5373 82.0574C96.7101 81.8803 96.9101 81.732 97.1374 81.6124C97.3647 81.4885 97.6011 81.3889 97.8466 81.3136C98.0966 81.2383 98.3466 81.1852 98.5967 81.1542C98.8512 81.1233 99.0899 81.1078 99.3127 81.1078C99.3581 81.1078 99.4354 81.1123 99.5445 81.1213C99.6536 81.1303 99.7673 81.1414 99.8855 81.1545C100.008 81.1635 100.122 81.1746 100.226 81.1878C100.336 81.1968 100.411 81.2035 100.451 81.2078L100.567 80.6831C100.581 80.63 100.592 80.5702 100.602 80.5038C100.611 80.4374 100.618 80.371 100.622 80.3046C100.627 80.2382 100.629 80.1762 100.629 80.1187C100.634 80.0611 100.636 80.0146 100.636 79.9792C100.636 79.8065 100.606 79.6582 100.547 79.5342C100.488 79.4102 100.406 79.3107 100.302 79.2354C100.202 79.1557 100.081 79.0981 99.9404 79.0627C99.804 79.0229 99.6586 79.0029 99.504 79.0029C99.2994 79.0029 99.0904 79.0406 98.8767 79.1159C98.663 79.1867 98.4562 79.273 98.2561 79.3749C98.0607 79.4723 97.8743 79.5741 97.697 79.6804C97.5242 79.7867 97.3765 79.873 97.2537 79.9394H97.0355L97.2742 78.91L97.4856 78.8369C97.6356 78.7838 97.7856 78.7328 97.9356 78.6841C98.0857 78.631 98.2471 78.5867 98.4198 78.5512C98.5926 78.5157 98.7789 78.487 98.979 78.4649C99.1835 78.4428 99.4154 78.4316 99.6745 78.4316C99.9382 78.4316 100.195 78.456 100.445 78.5048C100.7 78.5535 100.925 78.6376 101.12 78.7571C101.32 78.8722 101.479 79.0272 101.597 79.222C101.72 79.4168 101.782 79.6603 101.782 79.9525C101.782 80.0233 101.777 80.103 101.768 80.1916C101.758 80.2801 101.747 80.3686 101.734 80.4572C101.724 80.5458 101.711 80.6343 101.693 80.7228C101.679 80.8069 101.665 80.8822 101.652 80.9487L101.318 82.3897C101.286 82.527 101.252 82.6775 101.215 82.8413C101.183 83.0007 101.154 83.1556 101.127 83.3062C101.099 83.4567 101.077 83.5961 101.059 83.7245C101.04 83.8485 101.031 83.9437 101.031 84.0101C101.031 84.0543 101.045 84.1075 101.072 84.1695C101.1 84.2314 101.138 84.2912 101.188 84.3488C101.243 84.4063 101.311 84.455 101.393 84.4949C101.475 84.5347 101.57 84.5547 101.679 84.5547C101.706 84.5547 101.752 84.5502 101.816 84.5412C101.879 84.5321 101.95 84.5188 102.027 84.5013C102.104 84.4836 102.182 84.4637 102.259 84.4415C102.336 84.4193 102.402 84.3949 102.457 84.3684H102.559V84.6672C102.45 84.7336 102.327 84.7956 102.191 84.8532C102.059 84.9107 101.92 84.9616 101.775 85.006C101.629 85.0502 101.479 85.0835 101.325 85.1056C101.175 85.1322 101.027 85.1455 100.881 85.1455C100.681 85.1455 100.52 85.1123 100.397 85.0459C100.275 84.9794 100.177 84.8953 100.104 84.7935C100.031 84.6917 99.9768 84.5788 99.9404 84.4548C99.9086 84.3264 99.8814 84.2025 99.8586 84.0829C99.6858 84.2954 99.5085 84.4725 99.3267 84.6142C99.1494 84.7514 98.9698 84.8621 98.7879 84.9462C98.6061 85.026 98.4266 85.0835 98.2493 85.1189C98.072 85.1543 97.9015 85.1721 97.7378 85.1721H97.7375Z" fill="#5F6163"/>
<path d="M108.607 85.0526H105.661L105.729 84.7405L106.568 84.5213C106.663 84.4992 106.75 84.4527 106.827 84.3818C106.904 84.3066 106.954 84.2225 106.977 84.1295L108.648 76.7846C108.671 76.6829 108.659 76.5965 108.614 76.5256C108.568 76.4504 108.505 76.4039 108.423 76.3861L107.516 76.2135L107.584 75.9014H110.38L111.239 81.8317L111.416 83.213L115.794 75.9014H118.488L118.419 76.2135L117.594 76.3861C117.494 76.4083 117.406 76.457 117.328 76.5322C117.251 76.603 117.201 76.6872 117.178 76.7846L115.494 84.1693C115.471 84.271 115.483 84.3574 115.528 84.4283C115.574 84.4991 115.642 84.5434 115.733 84.5612L116.633 84.7405L116.565 85.0526H112.985L113.053 84.7405L113.885 84.5612C113.98 84.539 114.064 84.4925 114.137 84.4217C114.214 84.3509 114.264 84.2667 114.287 84.1693L116.046 76.4792L115.405 77.5484L111.812 83.5318L110.816 85.0525H110.55L109.459 77.5616L109.302 76.4127L107.55 84.1295C107.527 84.2313 107.538 84.3176 107.584 84.3885C107.629 84.4549 107.695 84.4991 107.782 84.5212L108.675 84.7404L108.607 85.0526Z" fill="#5F6163"/>
<path d="M120.056 85.1722C119.824 85.1722 119.608 85.1434 119.408 85.0859C119.208 85.0328 119.035 84.9465 118.89 84.8269C118.744 84.7074 118.628 84.5568 118.542 84.3753C118.46 84.1894 118.419 83.968 118.419 83.7113C118.419 83.6094 118.426 83.5009 118.439 83.3858C118.453 83.2707 118.474 83.1512 118.501 83.0272L119.203 79.8462C119.226 79.7311 119.215 79.6315 119.169 79.5474C119.128 79.4633 119.037 79.3946 118.896 79.3415L118.323 79.1224V78.943L120.669 78.4849L119.715 82.6686C119.678 82.8192 119.649 82.9697 119.626 83.1202C119.603 83.2707 119.592 83.4057 119.592 83.5253C119.592 83.6714 119.615 83.7998 119.66 83.9105C119.705 84.0211 119.776 84.1163 119.871 84.196C119.967 84.2713 120.087 84.3289 120.233 84.3687C120.378 84.4086 120.553 84.4285 120.758 84.4285C120.885 84.4285 121.022 84.4174 121.167 84.3952C121.317 84.3686 121.465 84.3288 121.61 84.2756C121.756 84.2225 121.899 84.1561 122.04 84.0764C122.181 83.9923 122.31 83.8927 122.428 83.7776L123.322 79.8462C123.34 79.7577 123.354 79.6558 123.363 79.5407C123.376 79.4211 123.385 79.3016 123.39 79.182C123.395 79.0625 123.397 78.9519 123.397 78.85C123.402 78.7438 123.404 78.6596 123.404 78.5977H124.734L123.786 82.7881C123.758 82.9076 123.731 83.0294 123.704 83.1534C123.681 83.2729 123.658 83.388 123.636 83.4987C123.618 83.6093 123.602 83.709 123.588 83.7975C123.579 83.8861 123.574 83.9569 123.574 84.01C123.574 84.0542 123.586 84.1074 123.608 84.1694C123.636 84.2314 123.677 84.2911 123.731 84.3487C123.786 84.4062 123.852 84.4549 123.929 84.4948C124.011 84.5346 124.106 84.5545 124.215 84.5545C124.242 84.5545 124.286 84.55 124.345 84.541C124.408 84.5278 124.477 84.5145 124.549 84.5012C124.622 84.4835 124.695 84.4636 124.768 84.4414C124.84 84.4192 124.904 84.3949 124.958 84.3683H125.061V84.6671C124.952 84.7336 124.831 84.7956 124.699 84.8531C124.572 84.9106 124.436 84.9616 124.29 85.0059C124.149 85.0458 124.004 85.079 123.854 85.1055C123.704 85.1321 123.556 85.1454 123.411 85.1454C123.238 85.1454 123.09 85.1122 122.967 85.0457C122.849 84.9793 122.751 84.8952 122.674 84.7934C122.597 84.6916 122.535 84.5787 122.49 84.4547C122.449 84.3263 122.42 84.2023 122.401 84.0828C122.16 84.3529 121.929 84.561 121.706 84.7071C121.483 84.8532 121.272 84.9616 121.072 85.0325C120.876 85.0989 120.692 85.1387 120.519 85.152C120.347 85.1653 120.192 85.172 120.056 85.172L120.056 85.1722Z" fill="#5F6163"/>
<path d="M131.055 85.1454C130.896 85.1454 130.753 85.1189 130.625 85.0658C130.503 85.017 130.396 84.9528 130.305 84.8732C130.219 84.7891 130.15 84.6983 130.1 84.6009C130.055 84.4991 130.032 84.3973 130.032 84.2954C130.032 84.198 130.044 84.0585 130.066 83.877C130.094 83.6955 130.128 83.5229 130.169 83.359L130.66 81.3468C130.687 81.2495 130.712 81.1454 130.735 81.0347C130.762 80.9241 130.787 80.8156 130.81 80.7093C130.833 80.5986 130.851 80.4902 130.864 80.3839C130.878 80.2776 130.885 80.1802 130.885 80.0917C130.885 79.9456 130.862 79.8172 130.817 79.7065C130.771 79.5914 130.701 79.4962 130.605 79.421C130.51 79.3413 130.387 79.2815 130.237 79.2416C130.092 79.1974 129.917 79.1753 129.712 79.1753C129.589 79.1753 129.455 79.1886 129.31 79.2151C129.164 79.2373 129.019 79.275 128.873 79.3281C128.728 79.3812 128.585 79.4499 128.444 79.534C128.307 79.6137 128.182 79.7133 128.069 79.8328L127.162 83.8174C127.139 83.9191 127.121 84.0298 127.107 84.1494C127.098 84.2645 127.091 84.3796 127.087 84.4947C127.082 84.6098 127.08 84.7161 127.08 84.8135C127.08 84.9109 127.08 84.9906 127.08 85.0526H125.75L126.937 79.8328C126.959 79.7222 126.941 79.627 126.882 79.5473C126.827 79.4632 126.73 79.3946 126.589 79.3414L126.016 79.1222V78.9429L128.293 78.4847L128.096 79.5207C128.332 79.255 128.555 79.0492 128.764 78.9031C128.973 78.7525 129.173 78.6441 129.364 78.5777C129.555 78.5069 129.739 78.4648 129.916 78.4515C130.094 78.4382 130.269 78.4316 130.441 78.4316C130.664 78.4316 130.873 78.4604 131.069 78.5179C131.269 78.5754 131.439 78.664 131.58 78.7835C131.726 78.903 131.839 79.0558 131.921 79.2417C132.008 79.4233 132.051 79.6402 132.051 79.8926C132.051 79.9989 132.042 80.114 132.023 80.2379C132.01 80.3575 131.989 80.4726 131.962 80.5832L131.43 82.788C131.398 82.9164 131.369 83.047 131.342 83.1798C131.319 83.3126 131.296 83.4388 131.273 83.5584C131.255 83.6735 131.239 83.7753 131.226 83.8639C131.217 83.9525 131.212 84.0144 131.212 84.0498C131.212 84.094 131.226 84.1449 131.253 84.2024C131.28 84.26 131.319 84.3153 131.369 84.3684C131.423 84.4215 131.492 84.4658 131.573 84.5012C131.655 84.5366 131.751 84.5543 131.86 84.5543C131.887 84.5543 131.93 84.5498 131.989 84.5408C132.048 84.5318 132.112 84.5186 132.18 84.501C132.248 84.4833 132.317 84.4634 132.385 84.4412C132.458 84.4191 132.521 84.3947 132.576 84.3681H132.678V84.6669C132.569 84.7334 132.439 84.7953 132.289 84.8529C132.144 84.9104 131.994 84.9614 131.839 85.0057C131.685 85.0456 131.537 85.0788 131.396 85.1053C131.255 85.1319 131.142 85.1452 131.055 85.1452L131.055 85.1454Z" fill="#5F6163"/>
<path d="M135.76 76.8643C135.651 76.8643 135.547 76.8443 135.447 76.8045C135.351 76.7646 135.267 76.7115 135.194 76.645C135.126 76.5742 135.072 76.4923 135.031 76.3993C134.99 76.302 134.969 76.198 134.969 76.0873C134.969 75.981 134.99 75.8814 135.031 75.7884C135.072 75.691 135.126 75.6091 135.194 75.5427C135.267 75.4718 135.351 75.4165 135.447 75.3767C135.547 75.3368 135.651 75.3169 135.76 75.3169C135.874 75.3169 135.979 75.3368 136.074 75.3767C136.174 75.4165 136.261 75.4718 136.333 75.5427C136.406 75.6091 136.463 75.691 136.504 75.7884C136.549 75.8814 136.572 75.981 136.572 76.0873C136.572 76.1979 136.549 76.3019 136.504 76.3993C136.463 76.4923 136.406 76.5742 136.333 76.645C136.261 76.7115 136.174 76.7646 136.074 76.8045C135.979 76.8443 135.874 76.8643 135.76 76.8643ZM134.642 85.1455C134.478 85.1455 134.331 85.1189 134.199 85.0658C134.072 85.0171 133.962 84.9529 133.872 84.8732C133.781 84.7891 133.71 84.6984 133.66 84.6009C133.615 84.4992 133.592 84.3973 133.592 84.2954C133.592 84.1449 133.606 83.9922 133.633 83.8372C133.66 83.6823 133.692 83.5185 133.728 83.3458L134.506 79.8659C134.533 79.742 134.524 79.6379 134.479 79.5538C134.433 79.4653 134.34 79.3945 134.199 79.3413L133.626 79.1222V78.9428L135.945 78.4847L135.065 82.4028C135.047 82.5002 135.026 82.602 135.004 82.7083C134.981 82.8146 134.958 82.923 134.936 83.0337C134.913 83.1443 134.89 83.2528 134.867 83.3591C134.845 83.4609 134.824 83.556 134.806 83.6446C134.792 83.7331 134.781 83.8128 134.772 83.8837C134.763 83.9545 134.758 84.0098 134.758 84.0497C134.758 84.0939 134.772 84.1449 134.799 84.2024C134.826 84.2555 134.867 84.3086 134.922 84.3618C134.981 84.4105 135.051 84.4526 135.133 84.4879C135.215 84.5234 135.31 84.5411 135.419 84.5411C135.447 84.5411 135.494 84.5366 135.563 84.5276C135.631 84.5143 135.706 84.4988 135.788 84.4812C135.87 84.459 135.951 84.4369 136.033 84.4148C136.115 84.3926 136.183 84.3705 136.238 84.3484H136.34V84.6473C136.231 84.7137 136.101 84.7779 135.951 84.8398C135.806 84.8974 135.654 84.9505 135.495 84.9993C135.335 85.0435 135.181 85.0789 135.031 85.1055C134.881 85.1321 134.751 85.1453 134.642 85.1453L134.642 85.1455Z" fill="#5F6163"/>
<path d="M139.443 85.1852C139.065 85.1852 138.717 85.1255 138.399 85.0059C138.086 84.8864 137.813 84.7137 137.581 84.4879C137.354 84.2621 137.176 83.9877 137.049 83.6645C136.922 83.3413 136.858 82.9761 136.858 82.5687C136.858 82.1437 136.906 81.7474 137.001 81.38C137.097 81.0081 137.229 80.6694 137.397 80.3639C137.565 80.0584 137.765 79.7862 137.997 79.5471C138.229 79.308 138.481 79.1066 138.754 78.9428C139.027 78.7789 139.313 78.655 139.613 78.5709C139.913 78.4823 140.218 78.438 140.527 78.438C140.722 78.438 140.909 78.4513 141.086 78.4778C141.268 78.5044 141.438 78.5421 141.597 78.5908C141.756 78.6396 141.902 78.7016 142.034 78.7768C142.17 78.8521 142.286 78.9362 142.382 79.0291L141.938 80.0319H141.809C141.686 79.8769 141.536 79.7397 141.359 79.6201C141.181 79.4962 140.995 79.3921 140.8 79.308C140.604 79.2239 140.409 79.1597 140.213 79.1154C140.018 79.0712 139.838 79.0491 139.674 79.0491C139.52 79.0491 139.372 79.1 139.231 79.2019C139.095 79.3037 138.968 79.4387 138.849 79.607C138.731 79.7752 138.624 79.9678 138.529 80.1847C138.438 80.4017 138.358 80.6253 138.29 80.8555C138.226 81.0857 138.177 81.3137 138.14 81.5395C138.108 81.7653 138.093 81.9689 138.093 82.1505C138.093 82.5002 138.127 82.8168 138.195 83.1001C138.263 83.379 138.368 83.6181 138.509 83.8173C138.654 84.0166 138.838 84.1693 139.061 84.2756C139.288 84.3818 139.556 84.435 139.866 84.435C140.184 84.435 140.486 84.3774 140.772 84.2623C141.059 84.1472 141.316 83.9856 141.543 83.7775L141.836 83.4787H141.979L141.795 84.083C141.609 84.2424 141.438 84.3885 141.284 84.5213C141.129 84.6541 140.966 84.7715 140.793 84.8733C140.62 84.9707 140.427 85.0459 140.213 85.0991C140 85.1566 139.743 85.1854 139.443 85.1854L139.443 85.1852Z" fill="#5F6163"/>
<path d="M145.17 76.8643C145.061 76.8643 144.956 76.8443 144.856 76.8045C144.761 76.7646 144.677 76.7115 144.604 76.645C144.536 76.5742 144.481 76.4923 144.44 76.3993C144.4 76.302 144.379 76.198 144.379 76.0873C144.379 75.981 144.4 75.8814 144.44 75.7884C144.481 75.691 144.536 75.6091 144.604 75.5427C144.677 75.4718 144.761 75.4165 144.856 75.3767C144.956 75.3368 145.061 75.3169 145.17 75.3169C145.284 75.3169 145.388 75.3368 145.484 75.3767C145.584 75.4165 145.67 75.4718 145.743 75.5427C145.816 75.6091 145.872 75.691 145.913 75.7884C145.959 75.8814 145.982 75.981 145.982 76.0873C145.982 76.1979 145.959 76.3019 145.913 76.3993C145.872 76.4923 145.816 76.5742 145.743 76.645C145.67 76.7115 145.584 76.7646 145.484 76.8045C145.388 76.8443 145.284 76.8643 145.17 76.8643ZM144.052 85.1455C143.888 85.1455 143.74 85.1189 143.609 85.0658C143.481 85.0171 143.372 84.9529 143.281 84.8732C143.19 84.7891 143.12 84.6984 143.07 84.6009C143.024 84.4992 143.002 84.3973 143.002 84.2954C143.002 84.1449 143.015 83.9922 143.043 83.8372C143.07 83.6823 143.102 83.5185 143.138 83.3458L143.916 79.8659C143.943 79.742 143.934 79.6379 143.888 79.5538C143.843 79.4653 143.75 79.3945 143.609 79.3413L143.036 79.1222V78.9428L145.354 78.4847L144.475 82.4028C144.457 82.5002 144.436 82.602 144.413 82.7083C144.391 82.8146 144.368 82.923 144.345 83.0337C144.322 83.1443 144.3 83.2528 144.277 83.3591C144.254 83.4609 144.234 83.556 144.216 83.6446C144.202 83.7331 144.191 83.8128 144.182 83.8837C144.172 83.9545 144.168 84.0098 144.168 84.0497C144.168 84.0939 144.181 84.1449 144.209 84.2024C144.236 84.2555 144.277 84.3086 144.331 84.3618C144.39 84.4105 144.461 84.4526 144.543 84.4879C144.625 84.5234 144.72 84.5411 144.829 84.5411C144.856 84.5411 144.904 84.5366 144.972 84.5276C145.041 84.5143 145.116 84.4988 145.197 84.4812C145.279 84.459 145.361 84.4369 145.443 84.4148C145.525 84.3926 145.593 84.3705 145.647 84.3484H145.75V84.6473C145.641 84.7137 145.511 84.7779 145.361 84.8398C145.216 84.8974 145.063 84.9505 144.904 84.9993C144.745 85.0435 144.591 85.0789 144.441 85.1055C144.291 85.1321 144.161 85.1453 144.052 85.1453V85.1455Z" fill="#5F6163"/>
<path d="M149.201 84.4882C149.483 84.4882 149.739 84.4395 149.971 84.3421C150.203 84.2448 150.41 84.1119 150.592 83.9437C150.778 83.7754 150.94 83.5784 151.076 83.3527C151.212 83.1269 151.326 82.8856 151.417 82.6288C151.508 82.3676 151.576 82.0997 151.621 81.8252C151.667 81.5507 151.69 81.2784 151.69 81.0084C151.69 80.7472 151.658 80.5037 151.594 80.2779C151.535 80.0521 151.442 79.8573 151.315 79.6935C151.187 79.5252 151.028 79.3946 150.837 79.3017C150.646 79.2087 150.419 79.1622 150.155 79.1622C150.051 79.1622 149.937 79.1755 149.814 79.2021C149.692 79.2286 149.564 79.2707 149.433 79.3282C149.305 79.3857 149.178 79.4565 149.051 79.5407C148.928 79.6248 148.814 79.7244 148.71 79.8395L147.707 84.2159C147.803 84.2646 147.912 84.3067 148.035 84.342C148.162 84.3775 148.291 84.4062 148.423 84.4283C148.56 84.4505 148.694 84.466 148.826 84.4748C148.962 84.4838 149.087 84.4883 149.201 84.4883L149.201 84.4882ZM148.082 88.1805H144.646L144.714 87.8817L145.505 87.7157C145.6 87.6935 145.684 87.6492 145.757 87.5828C145.825 87.5164 145.871 87.4345 145.893 87.3371L147.571 79.8329C147.598 79.7133 147.582 79.6159 147.523 79.5407C147.464 79.461 147.364 79.3946 147.223 79.3415L146.65 79.1223V78.943L148.942 78.4848L148.744 79.5207C148.976 79.2507 149.189 79.0426 149.385 78.8965C149.585 78.746 149.771 78.6375 149.944 78.5711C150.117 78.5003 150.276 78.4604 150.421 78.4515C150.567 78.4382 150.703 78.4316 150.83 78.4316C151.167 78.4316 151.465 78.4936 151.724 78.6176C151.987 78.7371 152.208 78.9053 152.385 79.1223C152.567 79.3392 152.703 79.5982 152.794 79.8992C152.89 80.2003 152.938 80.5279 152.938 80.8821C152.938 81.2319 152.899 81.5816 152.822 81.9314C152.744 82.2767 152.631 82.6088 152.481 82.9275C152.335 83.2463 152.156 83.5429 151.942 83.8174C151.733 84.0875 151.492 84.3243 151.219 84.528C150.951 84.7272 150.653 84.8844 150.326 84.9995C150.003 85.1146 149.658 85.1722 149.289 85.1722C149.103 85.1722 148.923 85.15 148.751 85.1058C148.578 85.0659 148.419 85.0128 148.273 84.9464C148.128 84.8756 148.001 84.7981 147.891 84.7139C147.782 84.6298 147.698 84.5479 147.639 84.4682L147.025 87.3172C147.003 87.4102 147.012 87.4943 147.053 87.5695C147.094 87.6492 147.159 87.6979 147.25 87.7156L148.15 87.8816L148.082 88.1805Z" fill="#5F6163"/>
<path d="M155.583 84.4415C155.697 84.4415 155.824 84.4283 155.965 84.4017C156.106 84.3707 156.249 84.3287 156.395 84.2756C156.545 84.218 156.69 84.145 156.831 84.0564C156.977 83.9678 157.108 83.8638 157.227 83.7443L157.704 81.5993C157.272 81.5993 156.863 81.6192 156.477 81.659C156.09 81.6945 155.751 81.772 155.461 81.8915C155.17 82.0066 154.94 82.1771 154.772 82.4029C154.608 82.6242 154.529 82.9208 154.533 83.2927C154.533 83.4964 154.558 83.6713 154.608 83.8174C154.663 83.9635 154.736 84.083 154.826 84.1759C154.917 84.2689 155.027 84.3376 155.154 84.3818C155.281 84.4217 155.424 84.4416 155.583 84.4416L155.583 84.4415ZM155.065 85.1721C154.756 85.1721 154.49 85.1278 154.267 85.0392C154.049 84.9462 153.869 84.8244 153.729 84.6739C153.588 84.519 153.483 84.3419 153.415 84.1426C153.347 83.9434 153.313 83.7353 153.313 83.5184C153.308 83.204 153.356 82.9274 153.456 82.6883C153.556 82.4448 153.692 82.2345 153.865 82.0574C154.038 81.8803 154.238 81.732 154.465 81.6124C154.692 81.4885 154.929 81.3889 155.174 81.3136C155.424 81.2383 155.674 81.1852 155.924 81.1542C156.179 81.1233 156.418 81.1078 156.64 81.1078C156.686 81.1078 156.763 81.1123 156.872 81.1213C156.981 81.1303 157.095 81.1414 157.213 81.1545C157.336 81.1635 157.449 81.1746 157.554 81.1878C157.663 81.1968 157.738 81.2035 157.779 81.2078L157.895 80.6831C157.909 80.63 157.92 80.5702 157.929 80.5038C157.938 80.4374 157.945 80.371 157.95 80.3046C157.954 80.2382 157.957 80.1762 157.957 80.1187C157.961 80.0611 157.964 80.0146 157.964 79.9792C157.964 79.8065 157.934 79.6582 157.875 79.5342C157.816 79.4102 157.734 79.3107 157.629 79.2354C157.529 79.1557 157.409 79.0981 157.268 79.0627C157.132 79.0229 156.986 79.0029 156.832 79.0029C156.627 79.0029 156.418 79.0406 156.204 79.1159C155.991 79.1867 155.784 79.273 155.584 79.3749C155.388 79.4723 155.202 79.5741 155.025 79.6804C154.852 79.7867 154.704 79.873 154.581 79.9394H154.363L154.602 78.91L154.813 78.8369C154.963 78.7838 155.113 78.7328 155.263 78.6841C155.413 78.631 155.575 78.5867 155.747 78.5512C155.92 78.5157 156.107 78.487 156.307 78.4649C156.511 78.4428 156.743 78.4316 157.002 78.4316C157.266 78.4316 157.523 78.456 157.773 78.5048C158.027 78.5535 158.252 78.6376 158.448 78.7571C158.648 78.8722 158.807 79.0272 158.925 79.222C159.048 79.4168 159.109 79.6603 159.109 79.9525C159.109 80.0233 159.105 80.103 159.095 80.1916C159.086 80.2801 159.075 80.3686 159.061 80.4572C159.052 80.5458 159.038 80.6343 159.02 80.7228C159.007 80.8069 158.993 80.8822 158.979 80.9487L158.645 82.3897C158.613 82.527 158.579 82.6775 158.543 82.8413C158.511 83.0007 158.482 83.1556 158.454 83.3062C158.427 83.4567 158.404 83.5961 158.386 83.7245C158.368 83.8485 158.359 83.9437 158.359 84.0101C158.359 84.0543 158.373 84.1075 158.4 84.1695C158.427 84.2314 158.466 84.2912 158.516 84.3488C158.57 84.4063 158.639 84.455 158.72 84.4949C158.802 84.5347 158.898 84.5547 159.007 84.5547C159.034 84.5547 159.08 84.5502 159.143 84.5412C159.207 84.5321 159.277 84.5188 159.355 84.5013C159.432 84.4836 159.509 84.4637 159.586 84.4415C159.664 84.4193 159.73 84.3949 159.784 84.3684H159.887V84.6672C159.777 84.7336 159.655 84.7956 159.518 84.8532C159.386 84.9107 159.248 84.9616 159.102 85.006C158.957 85.0502 158.807 85.0835 158.652 85.1056C158.502 85.1322 158.354 85.1455 158.209 85.1455C158.009 85.1455 157.848 85.1123 157.725 85.0459C157.602 84.9794 157.504 84.8953 157.432 84.7935C157.359 84.6917 157.304 84.5788 157.268 84.4548C157.236 84.3264 157.209 84.2025 157.186 84.0829C157.013 84.2954 156.836 84.4725 156.654 84.6142C156.477 84.7514 156.297 84.8621 156.116 84.9462C155.934 85.026 155.754 85.0835 155.577 85.1189C155.4 85.1543 155.229 85.1721 155.065 85.1721H155.065Z" fill="#5F6163"/>
<path d="M161.713 85.1455C161.54 85.1455 161.386 85.1189 161.25 85.0658C161.118 85.017 161.004 84.9529 160.909 84.8732C160.818 84.7891 160.747 84.6983 160.697 84.6009C160.647 84.4991 160.622 84.3973 160.622 84.2954C160.622 84.1538 160.636 84.0055 160.663 83.8505C160.69 83.6956 160.722 83.5362 160.759 83.3724L162.334 76.4193C162.361 76.2998 162.352 76.2024 162.307 76.1271C162.261 76.0474 162.168 75.981 162.027 75.9279L161.454 75.7088V75.5294L163.779 75.0181L162.006 82.7946C161.979 82.9141 161.952 83.0359 161.925 83.1599C161.897 83.2794 161.872 83.3945 161.85 83.5052C161.831 83.6158 161.816 83.7177 161.802 83.8107C161.793 83.9037 161.788 83.9833 161.788 84.0497C161.788 84.094 161.802 84.1448 161.829 84.2024C161.861 84.2555 161.904 84.3087 161.958 84.3618C162.013 84.4106 162.081 84.4526 162.163 84.4879C162.249 84.5234 162.347 84.5411 162.456 84.5411C162.484 84.5411 162.534 84.5366 162.606 84.5276C162.679 84.5143 162.759 84.4988 162.845 84.4812C162.936 84.459 163.024 84.4369 163.111 84.4148C163.202 84.3927 163.275 84.3705 163.329 84.3485H163.431V84.6473C163.322 84.7137 163.188 84.7779 163.029 84.8399C162.874 84.8974 162.713 84.9505 162.545 84.9993C162.381 85.0435 162.224 85.0789 162.074 85.1055C161.924 85.132 161.804 85.1454 161.713 85.1454L161.713 85.1455Z" fill="#5F6163"/>
<path d="M4.58842 91.0967H0V102.9H2.77037V99.1906H4.58842C6.97785 99.1906 8.83051 97.3863 8.83051 95.1436C8.83051 92.9009 6.97785 91.0967 4.58842 91.0967ZM4.58842 96.6613H2.77037V93.6261H4.58842C5.43684 93.6261 6.06014 94.2837 6.06014 95.1436C6.06014 96.0036 5.43684 96.6613 4.58842 96.6613Z" fill="#2F2D2E"/>
<path d="M16.5871 102.9H19.5653L16.9854 98.5667C18.3186 97.9091 19.219 96.5938 19.219 95.1436C19.219 92.9009 17.3663 91.0967 15.0635 91.0967H10.2153V102.9H12.9857V99.022H14.3016L16.5871 102.9ZM12.9857 93.6261H15.0635C15.8253 93.6261 16.4486 94.2837 16.4486 95.1436C16.4486 96.0036 15.8253 96.6613 15.0635 96.6613H12.9857V93.6261Z" fill="#2F2D2E"/>
<path d="M26.4744 103.137C29.9547 103.137 32.777 100.472 32.777 96.9987C32.777 93.5251 29.9547 90.8608 26.4744 90.8608C22.9942 90.8608 20.1719 93.5251 20.1719 96.9987C20.1719 100.472 22.9942 103.137 26.4744 103.137ZM26.4744 100.506C24.5005 100.506 22.9422 99.1066 22.9422 96.9987C22.9422 94.891 24.5005 93.4914 26.4744 93.4914C28.4483 93.4914 30.0066 94.891 30.0066 96.9987C30.0066 99.1066 28.4483 100.506 26.4744 100.506Z" fill="#2F2D2E"/>
<path d="M41.6935 93.6935V91.0967H34.3347V102.9H37.1051V98.5667H41.6069V95.9699H37.1051V93.6935H41.6935Z" fill="#2F2D2E"/>
<path d="M46.1092 100.304V98.2126H50.4379V95.6495H46.1092V93.6935H50.8708V91.0967H43.3389V102.9H50.9574V100.304H46.1092Z" fill="#2F2D2E"/>
<path d="M56.7576 103.137C59.3894 103.137 61.2594 101.788 61.2594 99.5112C61.2594 97.0156 59.1989 96.3917 57.3635 95.8521C55.4762 95.2956 55.1819 94.9247 55.1819 94.3851C55.1819 93.9129 55.6148 93.4914 56.4805 93.4914C57.5886 93.4914 58.16 94.0141 58.5756 94.8572L60.9131 93.5251C60.03 91.7883 58.4717 90.8608 56.4805 90.8608C54.3854 90.8608 52.4115 92.1761 52.4115 94.4525C52.4115 96.7121 54.1777 97.5552 55.9784 98.0442C57.7964 98.5332 58.489 98.8199 58.489 99.545C58.489 100 58.16 100.506 56.8441 100.506C55.4762 100.506 54.7317 99.8485 54.2989 98.8705L51.9094 100.219C52.5847 101.956 54.2123 103.137 56.7576 103.137Z" fill="#2F2D2E"/>
<path d="M66.5403 103.137C69.1721 103.137 71.0421 101.788 71.0421 99.5112C71.0421 97.0156 68.9816 96.3917 67.1462 95.8521C65.2589 95.2956 64.9646 94.9247 64.9646 94.3851C64.9646 93.9129 65.3975 93.4914 66.2632 93.4914C67.3713 93.4914 67.9428 94.0141 68.3583 94.8572L70.6958 93.5251C69.8127 91.7883 68.2544 90.8608 66.2632 90.8608C64.1681 90.8608 62.1942 92.1761 62.1942 94.4525C62.1942 96.7121 63.9604 97.5552 65.7611 98.0442C67.5791 98.5332 68.2717 98.8199 68.2717 99.545C68.2717 100 67.9428 100.506 66.6268 100.506C65.259 100.506 64.5144 99.8485 64.0816 98.8705L61.6921 100.219C62.3674 101.956 63.995 103.137 66.5403 103.137Z" fill="#2F2D2E"/>
<path d="M78.1239 103.137C81.6041 103.137 84.4264 100.472 84.4264 96.9987C84.4264 93.5251 81.6041 90.8608 78.1239 90.8608C74.6436 90.8608 71.8213 93.5251 71.8213 96.9987C71.8213 100.472 74.6436 103.137 78.1239 103.137ZM78.1239 100.506C76.15 100.506 74.5917 99.1066 74.5917 96.9987C74.5917 94.891 76.15 93.4914 78.1239 93.4914C80.0978 93.4914 81.6561 94.891 81.6561 96.9987C81.6561 99.1066 80.0978 100.506 78.1239 100.506Z" fill="#2F2D2E"/>
<path d="M92.3567 102.9H95.3348L92.7549 98.5667C94.0882 97.9091 94.9885 96.5938 94.9885 95.1436C94.9885 92.9009 93.1359 91.0967 90.833 91.0967H85.9849V102.9H88.7552V99.022H90.0711L92.3567 102.9ZM88.7552 93.6261H90.833C91.5948 93.6261 92.2182 94.2837 92.2182 95.1436C92.2182 96.0036 91.5948 96.6613 90.833 96.6613H88.7552V93.6261Z" fill="#2F2D2E"/>
<path d="M108.667 102.9H111.697L107.576 91.0967H104.044L99.9231 102.9H102.953L103.559 101.045H108.061L108.667 102.9ZM104.39 98.5161L105.81 94.1825L107.23 98.5161H104.39Z" fill="#2F2D2E"/>
<path d="M115.506 100.304V91.0967H112.736V102.9H119.835V100.304H115.506Z" fill="#2F2D2E"/>
<path d="M133.167 91.0967H130.397L127.107 96.3409L123.817 91.0967H121.047V102.9H123.817V96.0374L126.951 101.045H127.263L130.397 96.0374V102.9H133.167V91.0967Z" fill="#2F2D2E"/>
<path d="M135.245 91.0967V102.9H138.015V91.0967H135.245Z" fill="#2F2D2E"/>
<path d="M146.846 91.0967V97.5044L142.171 91.0967H140.093V102.9H142.863V96.4927L147.538 102.9H149.616V91.0967H146.846Z" fill="#2F2D2E"/>
<path d="M157.477 103.137C160.957 103.137 163.779 100.472 163.779 96.9987C163.779 93.5251 160.957 90.8608 157.477 90.8608C153.997 90.8608 151.174 93.5251 151.174 96.9987C151.174 100.472 153.997 103.137 157.477 103.137ZM157.477 100.506C155.503 100.506 153.945 99.1066 153.945 96.9987C153.945 94.891 155.503 93.4914 157.477 93.4914C159.451 93.4914 161.009 94.891 161.009 96.9987C161.009 99.1066 159.451 100.506 157.477 100.506Z" fill="#2F2D2E"/>
<path d="M33.9538 113.187H27.8763V115.548H31.1142C30.6813 116.678 29.6251 117.369 28.0149 117.369C25.6601 117.369 24.2056 115.902 24.2056 113.895C24.2056 111.821 25.7293 110.354 27.7725 110.354C29.1403 110.354 30.2311 110.961 30.7333 111.737L33.0881 110.422C32.0665 108.837 30.1099 107.724 27.7898 107.724C24.2229 107.724 21.4353 110.455 21.4353 113.878C21.4353 117.268 24.171 119.999 27.9803 119.999C31.3739 119.999 33.9538 117.807 33.9538 114.199V113.187Z" fill="#2F2D2E"/>
<path d="M42.7845 119.763H45.8145L41.6936 107.959H38.1614L34.0405 119.763H37.0706L37.6766 117.908H42.1784L42.7845 119.763ZM38.5077 115.379L39.9275 111.045L41.3474 115.379H38.5077Z" fill="#2F2D2E"/>
<path d="M54.3684 113.642C55.0263 113.086 55.4246 112.31 55.4246 111.332C55.4246 109.292 53.7104 107.959 51.598 107.959H46.8538V119.763H51.9443C54.1086 119.763 55.8574 118.397 55.8574 116.306C55.8574 115.109 55.2688 114.199 54.3684 113.642ZM51.598 110.489C52.2387 110.489 52.6542 110.927 52.6542 111.534C52.6542 112.141 52.2213 112.58 51.598 112.58H49.6241V110.489H51.598ZM51.9443 117.234H49.6241V114.974H51.9443C52.6369 114.974 53.0871 115.446 53.0871 116.104C53.0871 116.762 52.6369 117.234 51.9443 117.234Z" fill="#2F2D2E"/>
<path d="M63.614 119.763H66.5922L64.0122 115.429C65.3455 114.772 66.2458 113.457 66.2458 112.006C66.2458 109.764 64.3932 107.959 62.0903 107.959H57.2422V119.763H60.0126V115.885H61.3285L63.614 119.763ZM60.0126 110.489H62.0903C62.8522 110.489 63.4755 111.146 63.4755 112.006C63.4755 112.866 62.8522 113.524 62.0903 113.524H60.0126V110.489Z" fill="#2F2D2E"/>
<path d="M67.8911 107.959V119.763H70.6615V107.959H67.8911Z" fill="#2F2D2E"/>
<path d="M75.5091 117.166V115.075H79.8378V112.512H75.5091V110.556H80.2707V107.959H72.7388V119.763H80.3573V117.166H75.5091Z" fill="#2F2D2E"/>
<path d="M84.6859 117.166V107.959H81.9155V119.763H89.0145V117.166H84.6859Z" fill="#2F2D2E"/>
<path d="M97.4643 119.763H100.997L104.944 107.959H101.914L99.2305 116.644L96.5467 107.959H93.5166L97.4643 119.763Z" fill="#2F2D2E"/>
<path d="M105.983 107.959V119.763H108.753V107.959H105.983Z" fill="#2F2D2E"/>
<path d="M113.602 117.166V115.075H117.93V112.512H113.602V110.556H118.363V107.959H110.831V119.763H118.45V117.166H113.602Z" fill="#2F2D2E"/>
<path d="M126.761 107.959V114.367L122.086 107.959H120.008V119.763H122.778V113.355L127.453 119.763H129.531V107.959H126.761Z" fill="#2F2D2E"/>
<path d="M139.314 119.763H142.344L138.223 107.959H134.691L130.57 119.763H133.6L134.206 117.908H138.708L139.314 119.763ZM135.037 115.379L136.457 111.045L137.877 115.379H135.037Z" fill="#2F2D2E"/>
<path d="M155.033 54.9365L138.807 40.8629C111.289 31.2318 95.3515 33.1463 81.8896 37.5297V54.4427L155.033 54.9365Z" fill="#F5F5F5"/>
<path d="M103.39 33.9279C97.344 33.9532 92.0782 34.7567 87.2333 35.9797C85.1344 36.9224 83.7686 37.6152 83.7686 37.6152L81.894 54.4299C97.05 33.839 125.755 44.7809 145.354 46.5424L138.807 40.8634C124.188 35.7469 112.838 33.8883 103.39 33.9279Z" fill="#EFEFEF"/>
<path d="M81.8896 37.5297C81.8896 37.5297 94.6526 29.0383 106.609 26.7893C118.565 24.5402 137.412 27.1596 137.412 27.1596L153.131 38.8877C135.026 43.7801 96.845 28.634 81.8896 54.4427V37.5297Z" fill="#E1E1E1"/>
<path d="M117.587 25.8896C113.763 25.9245 109.922 26.1668 106.609 26.79C100.233 27.9893 93.6464 30.9582 88.8696 33.4735C87.896 34.9468 86.9241 36.4515 85.9421 38.0135L81.8892 54.388V54.4386C81.8917 54.4361 81.8944 54.4335 81.897 54.4309C84.6635 49.6617 88.2246 46.2943 92.3048 43.9388C99.8608 36.6489 107.761 30.1855 117.587 25.8897L117.587 25.8896Z" fill="#D0D1D2"/>
<path d="M81.8896 54.4427V37.5297C88.0864 18.8736 94.1665 5.09035 118.778 0L138.046 6.2961C105.603 12.9524 94.6456 32.926 81.8896 54.4427Z" fill="#F5F5F5"/>
<path d="M8.74634 54.9365L24.9722 40.8629C52.1093 34.565 69.6951 26.9737 81.8893 37.5296V54.4427L8.74634 54.9365Z" fill="#F5F5F5"/>
<path d="M61.903 44.7344C49.1898 44.7149 34.3773 54.0253 8.74608 54.9362L0 63.7011L81.9393 60.4912L163.78 63.7011L155.032 54.9362C126.75 53.931 111.641 42.6991 97.9883 45.06C84.336 47.4208 81.8893 54.4426 81.8893 54.4426C81.8893 54.4426 79.4426 47.4208 65.7902 45.06C64.5103 44.8387 63.2181 44.7364 61.903 44.7344Z" fill="#E1E1E1"/>
<path d="M81.8893 60.3091C74.8415 60.3091 71.6216 60.4914 71.6216 60.4914L0 63.7014V67.6523L71.6216 63.4646C71.6216 63.4646 74.7916 66.8341 81.8893 66.8341C88.987 66.8341 92.1569 63.4646 92.1569 63.4646L163.78 67.6523V63.7014L92.1569 60.4914C92.1569 60.4914 88.9371 60.3091 81.8893 60.3091Z" fill="url(#paint0_linear)"/>
<path d="M102.086 70.347C102.259 64.7814 100.96 59.6017 94.6567 54.6513C98.3152 53.635 102.269 53.1948 107.198 54.6513C112.157 57.8512 114.102 64.3442 114.908 68.4799L107.418 63.5786L102.086 70.347Z" fill="url(#paint1_linear)"/>
<path d="M81.8891 60.3091C78.6001 60.3091 76.2226 60.3488 74.5391 60.3912C74.5354 60.4217 74.5324 60.4523 74.5303 60.4829C74.5303 61.4552 75.3236 62.3878 76.7356 63.0753C78.1476 63.7629 80.0628 64.1492 82.0597 64.1492C84.0566 64.1492 85.9717 63.7629 87.3838 63.0753C88.7958 62.3878 89.5891 61.4552 89.5891 60.4829C89.5878 60.4545 89.5859 60.4262 89.5832 60.3979C87.8966 60.3529 85.3676 60.3091 81.8891 60.3091Z" fill="#2F2D2E"/>
</g>
<defs>
<linearGradient id="paint0_linear" x1="9.27536" y1="67.6409" x2="9.27536" y2="60.3091" gradientUnits="userSpaceOnUse">
<stop stop-color="#257F3A"/>
<stop offset="1" stop-color="#30AD53"/>
</linearGradient>
<linearGradient id="paint1_linear" x1="94.6567" y1="51.8863" x2="94.6567" y2="64.2638" gradientUnits="userSpaceOnUse">
<stop stop-color="#D96530"/>
<stop offset="1" stop-color="#D9243A"/>
</linearGradient>
<clipPath id="clip0">
<rect width="163.78" height="120" fill="white"/>
</clipPath>
</defs>
</svg>
