<svg xmlns="http://www.w3.org/2000/svg" width="106.136" height="132.765" viewBox="0 0 28.082 35.127"><path fill="currentColor" d="M7.057.06a.248.248 0 00-.23.231c.003.127.107.23.235.23L8.597.516h.01c.307-.007.297-.469-.01-.462zm3.418-.013a.258.258 0 00-.23.235.231.231 0 00.231.227L25.132.463l-3.747 23.642-20.147.496a.231.231 0 00.01.461v.01l.949-.024c.012.029.03.054.051.076l1.707 1.812a.258.258 0 00.168.075l1.519.006-.163.84-.168.001c-.474.01-1.93.028-2.518-.547-.588-.574-1.996-2.429-2.31-2.847L4.858 4.237a.228.228 0 00-.177-.274.23.23 0 00-.273.177L.004 24.47a.252.252 0 00.041.188c.058.096 1.67 2.27 2.423 2.988.752.719 2.346.685 2.848.674h.074l-1.24 6.414 1.947-2.642 1.71 3.036s.052-2.723.25-4.848c.064-.679.15-1.344.236-1.972 4.419-.02 16.213-.061 16.373-.064a.232.232 0 00.235-.204l3.18-24.822a.232.232 0 10-.463-.055l-3.16 24.618c-1.801.007-12.05.045-16.098.065.044-.303.082-.57.121-.817l15.156.063a.23.23 0 00.25-.2l3.068-21.52a.237.237 0 00-.04-.175L25.34 3.111a.23.23 0 00-.146-.092L25.63.267a.24.24 0 00-.134-.245A.227.227 0 0025.4 0zm14.632 3.52l1.342 1.807-3.03 21.228-14.858-.064.108-.637-2.823.06-.109.564-1.533-.007-1.41-1.486 18.794-.465a.225.225 0 00.222-.194z"/></svg>
