<svg xmlns="http://www.w3.org/2000/svg" width="91.813" height="116.371" viewBox="0 0 24.292 30.79"><path fill="currentColor" d="M12.715 30.788a.232.232 0 00.163-.42L.623 21.811 2.1 20.67l11.092 8.464a.23.23 0 00.183.084.234.234 0 00.196-.12l8.96-10.25 1.15.45-8.971 10.775a.232.232 0 00-.053.17.231.231 0 00.409.128l9.175-11.024a.233.233 0 00.052-.163l-.001-.017L22.681.658a.232.232 0 00-.174-.204L20.71.018a.069.069 0 00-.013-.005L20.65.007l-.037-.005a.23.23 0 00-.256.191l-7.773 8.193-9.202-6.967a.234.234 0 00-.106-.042.231.231 0 00-.235.096l-2.03 2.874a.28.28 0 00-.044.12L0 21.815a.232.232 0 00.198.243l12.417 8.69a.23.23 0 00.1.04zm.404-2.313L2.236 20.174a.23.23 0 00-.279.002L.491 21.315l.931-16.738 1.568-2.21-.808 17a.228.228 0 00.06.167.234.234 0 00.16.075.24.24 0 00.241-.22l.79-17.34 8.955 6.766zm.459-.102l-.73-19.593 7.59-8.018 1.393 16.077a.231.231 0 00.247.213.236.236 0 00.213-.252L20.88.54l1.34.325 1.57 17.98-1.245-.485-.055-.007a.228.228 0 00-.196.05zm.22-6.04a.22.22 0 00.2-.073l6.323-6.76a.232.232 0 00-.14-.386.224.224 0 00-.195.067l-6.324 6.761a.23.23 0 00.014.328.22.22 0 00.123.062zm-2.227-.512a.231.231 0 00.159-.415l-6.696-5.05a.206.206 0 00-.11-.047.23.23 0 00-.211.09.236.236 0 00.042.326l6.694 5.05a.231.231 0 00.122.046zm2.282-3.058h.023a.228.228 0 00.161-.074l6.32-6.762a.236.236 0 00-.01-.327.24.24 0 00-.126-.058.227.227 0 00-.2.072l-6.32 6.761a.231.231 0 00.152.388zm-1.839-.243a.23.23 0 00.14-.427l-6.695-5.05a.249.249 0 00-.11-.042.23.23 0 00-.211.085.231.231 0 00.042.322l6.695 5.05a.23.23 0 00.14.062zm1.877-3.328a.23.23 0 00.187-.074l6.319-6.762a.231.231 0 00-.136-.385.227.227 0 00-.2.072l-6.32 6.761a.235.235 0 00.01.328.231.231 0 00.14.06zm-2.495-.337a.237.237 0 00.07 0 .23.23 0 00.106-.413l-6.694-5.05a.25.25 0 00-.106-.041.23.23 0 00-.216.089.226.226 0 00.047.322l6.69 5.05c.03.022.065.037.103.043zm2.548-3.232a.23.23 0 00.186-.07l6.325-6.761a.23.23 0 00-.014-.328.207.207 0 00-.127-.062.232.232 0 00-.195.072l-6.324 6.761a.232.232 0 00.149.388zm-2.303-.307a.228.228 0 00.221-.089.233.233 0 00-.044-.325l-6.695-5.05a.208.208 0 00-.11-.046v.005a.231.231 0 00-.17.411l6.695 5.05c.03.023.065.038.103.044z"/></svg>
