<svg xmlns="http://www.w3.org/2000/svg" width="152.023" height="135.88" viewBox="0 0 40.223 35.951"><path fill="currentColor" d="M29.756 0a.24.24 0 00-.156.053c-.019.014-2.032 1.599-7.002 1.599-5.541 0-8.324 1.093-8.97 3.493-3.023-.534-5.77 1.436-7.383 5.319C4.458 14.769.671 17.877.635 17.91a.227.227 0 00-.06.286l.39.748-.833.403a.235.235 0 00-.115.134.245.245 0 000 .18l8.43 16.166c.036.066.1.112.175.124h.028a.238.238 0 00.17-.064l14.064-15.021 17.168-5.307a.244.244 0 00.148-.143.234.234 0 000-.203L31.59 1.434a.22.22 0 00-.212-.106l-.66.052L29.942.11a.24.24 0 00-.157-.107.238.238 0 00-.028-.002zm-.101.57l8.168 13.358a36.16 36.16 0 01-3.773 1.34c-2.336.739-4.952.637-7.053.554a23.544 23.544 0 00-2.607 0c-1.774.148-2.75 1.806-3.128 2.637L14.026 5.36c.534-2.217 3.178-3.233 8.549-3.238 4.293 0 6.435-1.131 7.08-1.551zM31.272 1.8l8.38 13.395-16.939 5.243a.208.208 0 00-.096.06L8.719 35.342.55 19.67l.628-.317 7.457 14.275a.227.227 0 00.16.12h.038a.236.236 0 00.156-.055 27.612 27.612 0 002.962-3.15l.166-.213c1.511-1.89 4.658-5.824 5.376-8.882.668-2.86 3.63-2.245 3.754-2.217a.23.23 0 00.267-.143.228.228 0 00.02-.041c.008 0 .897-2.606 2.915-2.772.85-.048 1.702-.048 2.552 0 2.142.083 4.8.19 7.209-.577 3.473-1.1 4.067-1.497 4.09-1.497a.236.236 0 00.07-.314L30.988 1.82zM29.89 3.525a.242.242 0 00-.216.168c-.461 1.4-3.943 2.23-9.31 2.23-2.86 0-3.685 2.153-3.685 2.176-.041.12.02.25.138.296h.078a.23.23 0 00.226-.139c.041-.078.723-1.87 3.266-1.87 3.326 0 9.015-.328 9.747-2.545a.244.244 0 00-.244-.316zM12.586 5.516c.345-.006.694.025 1.048.094l7.232 13.104c-.986-.074-3.23.055-3.832 2.623-.678 2.956-3.792 6.85-5.284 8.697l-.166.213a27.442 27.442 0 01-2.69 2.896L1.062 18.141c.724-.624 3.972-3.575 5.602-7.501 1.35-3.246 3.509-5.084 5.922-5.124zm19.34.762a.23.23 0 00-.166.066c-1.782 1.787-4.624 2.689-8.452 2.689-3.561 0-4.888 1.671-4.943 1.745a.23.23 0 00.036.324c.042.03.092.046.143.046a.23.23 0 00.185-.065c.009-.014 1.271-1.566 4.579-1.566 3.956 0 6.909-.97 8.775-2.845a.23.23 0 00-.156-.394zm1.085 2.573a.229.229 0 00-.127.047c-1.8 1.35-5.173 2.158-9.024 2.158a4.776 4.776 0 00-4.422 2.522.226.226 0 00.11.304.226.226 0 00.304-.111 4.345 4.345 0 014.008-2.253c1.893 0 6.597-.222 9.3-2.25.1-.078.12-.22.047-.323a.228.228 0 00-.152-.092c-.014-.002-.03-.003-.044-.002zm-18.681.181c-2.087 0-4 1.52-6.602 5.243a62.408 62.408 0 01-4.376 5.672.232.232 0 10.34.314 64.26 64.26 0 004.414-5.718c2.501-3.584 4.307-5.049 6.224-5.049a.23.23 0 000-.462zm20.174 2.205a.229.229 0 00-.109.031 30.433 30.433 0 01-9.816 2.184c-3.239.19-3.847 2.102-3.874 2.185a.236.236 0 00.156.287.163.163 0 00.065 0c.1 0 .19-.065.221-.162.023-.06.562-1.677 3.46-1.848a30.67 30.67 0 009.972-2.226.23.23 0 00.142-.313.233.233 0 00-.217-.138zm-18.692.184c-2.09 0-4.002 1.519-6.6 5.242a64.326 64.326 0 01-4.381 5.676.226.226 0 000 .324c.042.039.098.06.156.06a.232.232 0 00.185-.074 64.305 64.305 0 004.412-5.718c2.507-3.585 4.308-5.049 6.228-5.049.128 0 .23-.103.231-.23a.235.235 0 00-.23-.231zm1.452 2.387c-2.091 0-4.003 1.52-6.602 5.247a64.54 64.54 0 01-4.38 5.672.231.231 0 00.17.384.225.225 0 00.17-.074 64.794 64.794 0 004.418-5.718c2.502-3.585 4.303-5.049 6.224-5.049a.23.23 0 000-.462zm20.53 1.103a.23.23 0 00-.091.015 31.96 31.96 0 01-10.291 2.31l-.825.064a5.418 5.418 0 00-3.46 1.926c-.077.101-.058.246.042.324a.206.206 0 00.139.05.245.245 0 00.184-.087 4.976 4.976 0 013.137-1.75l.82-.065a32.633 32.633 0 0010.42-2.338.233.233 0 00-.075-.45zM18.747 16.2c-2.091 0-4.003 1.515-6.601 5.242a63.488 63.488 0 01-4.381 5.673.228.228 0 000 .323c.04.04.096.06.152.06a.224.224 0 00.189-.074 62.84 62.84 0 004.418-5.718c2.501-3.584 4.302-5.044 6.223-5.044a.23.23 0 00.163-.068.232.232 0 00-.163-.394zm3.095 4.04c-.03.001-.06.008-.087.02a11.262 11.262 0 00-2.626 1.69 16.8 16.8 0 00-2.395 2.93 67.047 67.047 0 01-2.216 2.978.235.235 0 00.037.328c.041.03.091.047.143.046a.23.23 0 00.194-.083 83.916 83.916 0 002.234-2.997 16.235 16.235 0 012.303-2.85c.757-.651 1.6-1.195 2.506-1.617a.236.236 0 00.12-.305.225.225 0 00-.213-.14z"/></svg>
