<svg xmlns="http://www.w3.org/2000/svg" width="100" height="100" fill="none"><path stroke="url(#paint0_linear)" stroke-linecap="round" stroke-linejoin="round" stroke-width="4" d="M33.5 76.714h34M62.643 16H38.357c-2.428 0-4.857 2.429-4.857 4.857v58.286C33.5 81.57 35.929 84 38.357 84h24.286c2.428 0 4.857-2.429 4.857-4.857V20.857C67.5 18.43 65.071 16 62.643 16zM33.5 23.286h34-34z"/><path fill="url(#paint1_linear)" d="M62 52.75l-3.181-3.181L53 55.386V37h-4.5v18.387l-5.819-5.819L39.5 52.75 50.75 64 62 52.75z"/><defs><linearGradient id="paint0_linear" x1="50.516" x2="46.038" y1="84.013" y2="16.268" gradientUnits="userSpaceOnUse"><stop stop-color="#EC008C"/><stop offset=".458" stop-color="#833184"/><stop offset="1" stop-color="#833184"/></linearGradient><linearGradient id="paint1_linear" x1="50.76" x2="49.691" y1="64.005" y2="37.032" gradientUnits="userSpaceOnUse"><stop stop-color="#EC008C"/><stop offset=".458" stop-color="#833184"/><stop offset="1" stop-color="#833184"/></linearGradient></defs></svg>