<svg xmlns="http://www.w3.org/2000/svg" width="100" height="100" fill="none"><path fill="url(#paint0_linear)" d="M29.459 14l5.18 5.724c.046.051 4.363 5.043 3.66 10.89-.446 3.729-2.88 7.176-7.205 10.209-12.72 8.616-16.575 20.208-11.304 31.455C23.759 80.744 32.45 86 41.798 86h5.445l-3.411-4.833c-2.724-3.522-2.67-7.548-2.022-10.548 4.635 3.507 10.05 3.06 13.812.66 3.45-2.199 5.895-6.165 5.976-10.896.774 1.224 1.41 2.649 1.869 4.23 1.326 4.593 1.164 11.598-3.645 16.224L54.812 86h4.722c2.673 0 5.355-.498 7.746-1.689 7.47-3.705 12.51-10.47 15.165-20.253 2.163-7.965.78-18.486-3.798-26.673C68.03 18.332 38.459 14.894 37.205 14.756L29.459 14zm13.359 7.845c8.72 1.962 24.183 6.957 30.6 18.465 3.786 6.771 5.022 15.294 3.222 22.254-1.491 5.82-3.837 10.17-7.191 13.236 1.185-4.494.858-9.126-.216-12.852-1.965-6.804-6.624-11.739-12.165-12.885l-6.61-1.38 3.43 5.85c3.18 5.355 1.455 9.81-1.491 11.685-2.35 1.5-6.186 1.641-9.285-2.904l-2.86-4.2-2.297 4.53c-.795 1.572-3.876 8.349-1.8 15.471-4.38-1.422-8.805-4.602-11.1-9.762-4.866-10.914 2.43-18.84 9.444-23.589 5.844-4.095 9.135-8.976 9.774-14.502.41-3.573-.378-6.825-1.455-9.417z"/><defs><linearGradient id="paint0_linear" x1="50.503" x2="47.906" y1="86.013" y2="14.065" gradientUnits="userSpaceOnUse"><stop stop-color="#EC008C"/><stop offset=".458" stop-color="#833184"/><stop offset="1" stop-color="#833184"/></linearGradient></defs></svg>