<svg xmlns="http://www.w3.org/2000/svg" width="100" height="100" fill="none"><g clip-path="url(#clip0)"><path fill="url(#paint0_linear)" d="M53.2 45.5c-1.8-.45-3.6-1.35-4.95-2.7-1.35-.45-1.8-1.8-1.8-2.7 0-.9.45-2.25 1.35-2.7 1.35-.9 2.7-1.8 4.05-1.35 2.7 0 4.95 1.35 6.3 3.15l4.05-5.4c-1.35-1.35-2.7-2.25-4.05-3.15-1.35-.9-3.15-1.35-4.95-1.35V23h-5.4v6.3c-2.25.45-4.5 1.8-6.3 3.6-1.8 2.25-3.15 4.95-2.7 7.65 0 2.7.9 5.4 2.7 7.2 2.25 2.25 5.4 3.6 8.1 4.95 1.35.45 3.15 1.35 4.5 2.25.9.9 1.35 2.25 1.35 3.6s-.45 2.7-1.35 4.05c-1.35 1.35-3.15 1.8-4.5 1.8-1.8 0-4.05-.45-5.4-1.8-1.35-.9-2.7-2.25-3.6-3.6l-4.5 4.95c1.35 1.8 2.7 3.15 4.5 4.5 2.25 1.35 4.95 2.7 7.65 2.7V77h4.95v-6.75c2.7-.45 4.95-1.8 6.75-3.6 2.25-2.25 3.6-5.85 3.6-9 0-2.7-.9-5.85-3.15-7.65-2.25-2.25-4.5-3.6-7.2-4.5zM50.5 14c-19.8 0-36 16.2-36 36s16.2 36 36 36 36-16.2 36-36-16.2-36-36-36zm0 67.05C33.4 81.05 19.45 67.1 19.45 50S33.4 18.95 50.5 18.95 81.55 32.9 81.55 50 67.6 81.05 50.5 81.05z"/></g><defs><linearGradient id="paint0_linear" x1="50.533" x2="48.155" y1="86.013" y2="14.049" gradientUnits="userSpaceOnUse"><stop stop-color="#EC008C"/><stop offset=".458" stop-color="#833184"/><stop offset="1" stop-color="#833184"/></linearGradient><clipPath id="clip0"><path fill="#fff" d="M0 0h72v72H0z" transform="translate(14 14)"/></clipPath></defs></svg>