<svg xmlns="http://www.w3.org/2000/svg" width="72" height="72" fill="none"><path fill="currentColor" d="M38.625 31.625c-1.75-.438-3.5-1.313-4.813-2.625-1.312-.438-1.75-1.75-1.75-2.625s.438-2.188 1.313-2.625c1.313-.875 2.625-1.75 3.938-1.313a7.655 7.655 0 016.124 3.063l3.938-5.25c-1.313-1.313-2.625-2.188-3.938-3.063-1.312-.875-3.062-1.312-4.812-1.312V9.75h-5.25v6.125c-2.188.438-4.375 1.75-6.125 3.5-1.75 2.188-3.063 4.813-2.625 7.438 0 2.625.875 5.25 2.625 7 2.188 2.187 5.25 3.5 7.875 4.812 1.313.438 3.063 1.313 4.375 2.188.875.874 1.313 2.187 1.313 3.5 0 1.312-.438 2.624-1.313 3.937-1.313 1.313-3.063 1.75-4.375 1.75-1.75 0-3.938-.438-5.25-1.75a13.315 13.315 0 01-3.5-3.5L22 49.563a20.74 20.74 0 004.375 4.374c2.188 1.313 4.813 2.626 7.438 2.626v5.687h4.812v-6.563c2.625-.437 4.813-1.75 6.563-3.5 2.187-2.187 3.5-5.687 3.5-8.75 0-2.624-.876-5.687-3.063-7.437-2.188-2.188-4.375-3.5-7-4.375zM36 1C16.75 1 1 16.75 1 36s15.75 35 35 35 35-15.75 35-35S55.25 1 36 1zm0 65.188C19.375 66.188 5.812 52.624 5.812 36S19.376 5.812 36 5.812 66.188 19.376 66.188 36 52.624 66.188 36 66.188z"/></svg>
