<svg xmlns="http://www.w3.org/2000/svg" width="100" height="100" fill="none"><path fill="url(#paint0_linear)" d="M26 26h18v18H26V26zm48 0v18H56V26h18zM56 59h6v-6h-6v-6h6v6h6v-6h6v6h-6v6h6v9h-6v6h-6v-6h-9v6h-6V62h9v-3zm6 0v9h6v-9h-6zM26 74V56h18v18H26zm6-42v6h6v-6h-6zm30 0v6h6v-6h-6zM32 62v6h6v-6h-6zm-6-15h6v6h-6v-6zm15 0h12v12h-6v-6h-6v-6zm6-15h6v12h-6V32zM20 20v12h-6V20a6 6 0 016-6h12v6H20zm60-6a6 6 0 016 6v12h-6V20H68v-6h12zM20 68v12h12v6H20a6 6 0 01-6-6V68h6zm60 12V68h6v12a6 6 0 01-6 6H68v-6h12z"/><defs><linearGradient id="paint0_linear" x1="50.033" x2="47.655" y1="86.013" y2="14.049" gradientUnits="userSpaceOnUse"><stop stop-color="#EC008C"/><stop offset=".458" stop-color="#833184"/><stop offset="1" stop-color="#833184"/></linearGradient></defs></svg>