<svg xmlns="http://www.w3.org/2000/svg" width="68" height="72" fill="none"><path fill="currentColor" d="M7.377 40.437l22.64 27.167C31.996 69.868 34.307 71 36.95 71c2.358 0 4.386-.707 6.084-2.122l19.668-16.555c1.886-1.698 2.971-3.82 3.254-6.368.283-2.358-.424-4.67-2.122-6.933l-22.64-27.167c-2.452-3.207-5.66-5.236-9.621-6.085L11.905 1.243C10.018.677 8.225 1.1 6.528 2.516L4.122 4.638C2.707 5.676 2 7.374 2 9.732l1.132 20.234c.472 4.056 1.887 7.547 4.245 10.47zm3.396-33.393l19.95 4.81c2.076.472 4.151 1.746 6.227 3.821l22.639 27.167c.754.755.99 1.604.707 2.547 0 .566-.424 1.368-1.273 2.406L39.355 64.35c-.66.566-1.462.825-2.405.778-.944-.047-1.651-.401-2.123-1.061L12.187 36.9C10.396 34.636 9.5 32.325 9.5 29.966l-1.415-20.8 2.689-2.122zm8.065 9.905c0 .849-.283 1.556-.849 2.122-.566.566-1.273.849-2.122.849-.85 0-1.557-.283-2.123-.849-.566-.566-.849-1.273-.849-2.122 0-.85.283-1.557.85-2.123.565-.566 1.273-.849 2.122-.849s1.556.283 2.122.85c.566.565.849 1.273.849 2.122zm1.556 21.082l27.734 8.773h.99c1.32 0 2.311-.707 2.971-2.122.284-.755.236-1.51-.141-2.264-.377-.755-.943-1.274-1.698-1.557L22.517 32.09c-.755-.378-1.533-.378-2.335 0-.802.377-1.344.943-1.627 1.698-.566 2.17.047 3.584 1.84 4.245zm22.64 13.584c0 1.226-.425 2.288-1.274 3.184-.849.896-1.933 1.344-3.254 1.344-1.32 0-2.406-.448-3.255-1.344-.848-.896-1.273-1.958-1.273-3.184 0-1.226.448-2.287 1.344-3.184.896-.896 1.958-1.344 3.184-1.344 1.226 0 2.287.448 3.184 1.344.896.897 1.344 1.958 1.344 3.184zm-9.056-24.054c0 1.226-.448 2.287-1.344 3.183-.896.897-1.957 1.345-3.184 1.345-1.226 0-2.287-.448-3.183-1.345-.897-.896-1.345-1.957-1.345-3.183 0-1.227.425-2.288 1.274-3.184.849-.896 1.934-1.344 3.254-1.344s2.406.448 3.255 1.344c.849.896 1.273 1.957 1.273 3.184z"/></svg>
