<svg xmlns="http://www.w3.org/2000/svg" width="72" height="72" fill="none"><path fill="currentColor" d="M26.947 59.947a5.527 5.527 0 100 11.054 5.527 5.527 0 000-11.054zm38.685-11.052h-44.21a3.684 3.684 0 110-7.369h31.282a11.101 11.101 0 0010.629-8.017l5.84-20.447a3.685 3.685 0 00-3.541-4.694H20.463A11.079 11.079 0 0010.073 1H6.685a3.684 3.684 0 000 7.368h3.393a3.703 3.703 0 013.545 2.671l.57 2.008v.019l6.046 21.154a11.053 11.053 0 001.183 22.043h44.21a3.684 3.684 0 000-7.368zm-4.886-33.158l-4.494 15.746a3.702 3.702 0 01-3.548 2.675h-24.82l-.94-3.286-4.322-15.135h38.124zm-4.325 44.21a5.527 5.527 0 100 11.054 5.527 5.527 0 000-11.054z"/></svg>
